<svg xmlns="http://www.w3.org/2000/svg" xmlns:xlink="http://www.w3.org/1999/xlink" width="600" height="400" viewBox="0 0 2400 1600">
<defs>
  <clipPath id="clip450">
    <rect x="0" y="0" width="2400" height="1600"></rect>
  </clipPath>
</defs>
<path clip-path="url(#clip450)" d="M0 1600 L2400 1600 L2400 0 L0 0  Z" fill="#ffffff" fill-rule="evenodd" fill-opacity="1"></path>
<defs>
  <clipPath id="clip451">
    <rect x="480" y="0" width="1681" height="1600"></rect>
  </clipPath>
</defs>
<path clip-path="url(#clip450)" d="M186.274 1486.45 L2352.76 1486.45 L2352.76 47.2441 L186.274 47.2441  Z" fill="#ffffff" fill-rule="evenodd" fill-opacity="1"></path>
<defs>
  <clipPath id="clip452">
    <rect x="186" y="47" width="2167" height="1440"></rect>
  </clipPath>
</defs>
<polyline clip-path="url(#clip452)" style="stroke:#000000; stroke-linecap:round; stroke-linejoin:round; stroke-width:2; stroke-opacity:0.1; fill:none" points="244.172,1486.45 244.172,47.2441 "></polyline>
<polyline clip-path="url(#clip452)" style="stroke:#000000; stroke-linecap:round; stroke-linejoin:round; stroke-width:2; stroke-opacity:0.1; fill:none" points="585.953,1486.45 585.953,47.2441 "></polyline>
<polyline clip-path="url(#clip452)" style="stroke:#000000; stroke-linecap:round; stroke-linejoin:round; stroke-width:2; stroke-opacity:0.1; fill:none" points="927.734,1486.45 927.734,47.2441 "></polyline>
<polyline clip-path="url(#clip452)" style="stroke:#000000; stroke-linecap:round; stroke-linejoin:round; stroke-width:2; stroke-opacity:0.1; fill:none" points="1269.51,1486.45 1269.51,47.2441 "></polyline>
<polyline clip-path="url(#clip452)" style="stroke:#000000; stroke-linecap:round; stroke-linejoin:round; stroke-width:2; stroke-opacity:0.1; fill:none" points="1611.3,1486.45 1611.3,47.2441 "></polyline>
<polyline clip-path="url(#clip452)" style="stroke:#000000; stroke-linecap:round; stroke-linejoin:round; stroke-width:2; stroke-opacity:0.1; fill:none" points="1953.08,1486.45 1953.08,47.2441 "></polyline>
<polyline clip-path="url(#clip452)" style="stroke:#000000; stroke-linecap:round; stroke-linejoin:round; stroke-width:2; stroke-opacity:0.1; fill:none" points="2294.86,1486.45 2294.86,47.2441 "></polyline>
<polyline clip-path="url(#clip450)" style="stroke:#000000; stroke-linecap:round; stroke-linejoin:round; stroke-width:4; stroke-opacity:1; fill:none" points="186.274,1486.45 2352.76,1486.45 "></polyline>
<polyline clip-path="url(#clip450)" style="stroke:#000000; stroke-linecap:round; stroke-linejoin:round; stroke-width:4; stroke-opacity:1; fill:none" points="244.172,1486.45 244.172,1467.55 "></polyline>
<polyline clip-path="url(#clip450)" style="stroke:#000000; stroke-linecap:round; stroke-linejoin:round; stroke-width:4; stroke-opacity:1; fill:none" points="585.953,1486.45 585.953,1467.55 "></polyline>
<polyline clip-path="url(#clip450)" style="stroke:#000000; stroke-linecap:round; stroke-linejoin:round; stroke-width:4; stroke-opacity:1; fill:none" points="927.734,1486.45 927.734,1467.55 "></polyline>
<polyline clip-path="url(#clip450)" style="stroke:#000000; stroke-linecap:round; stroke-linejoin:round; stroke-width:4; stroke-opacity:1; fill:none" points="1269.51,1486.45 1269.51,1467.55 "></polyline>
<polyline clip-path="url(#clip450)" style="stroke:#000000; stroke-linecap:round; stroke-linejoin:round; stroke-width:4; stroke-opacity:1; fill:none" points="1611.3,1486.45 1611.3,1467.55 "></polyline>
<polyline clip-path="url(#clip450)" style="stroke:#000000; stroke-linecap:round; stroke-linejoin:round; stroke-width:4; stroke-opacity:1; fill:none" points="1953.08,1486.45 1953.08,1467.55 "></polyline>
<polyline clip-path="url(#clip450)" style="stroke:#000000; stroke-linecap:round; stroke-linejoin:round; stroke-width:4; stroke-opacity:1; fill:none" points="2294.86,1486.45 2294.86,1467.55 "></polyline>
<path clip-path="url(#clip450)" d="M244.172 1517.37 Q240.561 1517.37 238.732 1520.93 Q236.926 1524.47 236.926 1531.6 Q236.926 1538.71 238.732 1542.27 Q240.561 1545.82 244.172 1545.82 Q247.806 1545.82 249.612 1542.27 Q251.44 1538.71 251.44 1531.6 Q251.44 1524.47 249.612 1520.93 Q247.806 1517.37 244.172 1517.37 M244.172 1513.66 Q249.982 1513.66 253.037 1518.27 Q256.116 1522.85 256.116 1531.6 Q256.116 1540.33 253.037 1544.94 Q249.982 1549.52 244.172 1549.52 Q238.362 1549.52 235.283 1544.94 Q232.227 1540.33 232.227 1531.6 Q232.227 1522.85 235.283 1518.27 Q238.362 1513.66 244.172 1513.66 Z" fill="#000000" fill-rule="nonzero" fill-opacity="1"></path><path clip-path="url(#clip450)" d="M545.559 1544.91 L553.198 1544.91 L553.198 1518.55 L544.888 1520.21 L544.888 1515.95 L553.152 1514.29 L557.828 1514.29 L557.828 1544.91 L565.467 1544.91 L565.467 1548.85 L545.559 1548.85 L545.559 1544.91 Z" fill="#000000" fill-rule="nonzero" fill-opacity="1"></path><path clip-path="url(#clip450)" d="M584.911 1517.37 Q581.3 1517.37 579.471 1520.93 Q577.666 1524.47 577.666 1531.6 Q577.666 1538.71 579.471 1542.27 Q581.3 1545.82 584.911 1545.82 Q588.545 1545.82 590.351 1542.27 Q592.18 1538.71 592.18 1531.6 Q592.18 1524.47 590.351 1520.93 Q588.545 1517.37 584.911 1517.37 M584.911 1513.66 Q590.721 1513.66 593.777 1518.27 Q596.856 1522.85 596.856 1531.6 Q596.856 1540.33 593.777 1544.94 Q590.721 1549.52 584.911 1549.52 Q579.101 1549.52 576.022 1544.94 Q572.967 1540.33 572.967 1531.6 Q572.967 1522.85 576.022 1518.27 Q579.101 1513.66 584.911 1513.66 Z" fill="#000000" fill-rule="nonzero" fill-opacity="1"></path><path clip-path="url(#clip450)" d="M615.073 1517.37 Q611.462 1517.37 609.633 1520.93 Q607.828 1524.47 607.828 1531.6 Q607.828 1538.71 609.633 1542.27 Q611.462 1545.82 615.073 1545.82 Q618.707 1545.82 620.513 1542.27 Q622.341 1538.71 622.341 1531.6 Q622.341 1524.47 620.513 1520.93 Q618.707 1517.37 615.073 1517.37 M615.073 1513.66 Q620.883 1513.66 623.939 1518.27 Q627.017 1522.85 627.017 1531.6 Q627.017 1540.33 623.939 1544.94 Q620.883 1549.52 615.073 1549.52 Q609.263 1549.52 606.184 1544.94 Q603.129 1540.33 603.129 1531.6 Q603.129 1522.85 606.184 1518.27 Q609.263 1513.66 615.073 1513.66 Z" fill="#000000" fill-rule="nonzero" fill-opacity="1"></path><path clip-path="url(#clip450)" d="M891.426 1544.91 L907.746 1544.91 L907.746 1548.85 L885.801 1548.85 L885.801 1544.91 Q888.463 1542.16 893.047 1537.53 Q897.653 1532.88 898.834 1531.53 Q901.079 1529.01 901.959 1527.27 Q902.861 1525.51 902.861 1523.82 Q902.861 1521.07 900.917 1519.33 Q898.996 1517.6 895.894 1517.6 Q893.695 1517.6 891.241 1518.36 Q888.81 1519.13 886.033 1520.68 L886.033 1515.95 Q888.857 1514.82 891.31 1514.24 Q893.764 1513.66 895.801 1513.66 Q901.172 1513.66 904.366 1516.35 Q907.56 1519.03 907.56 1523.52 Q907.56 1525.65 906.75 1527.57 Q905.963 1529.47 903.857 1532.07 Q903.278 1532.74 900.176 1535.95 Q897.074 1539.15 891.426 1544.91 Z" fill="#000000" fill-rule="nonzero" fill-opacity="1"></path><path clip-path="url(#clip450)" d="M927.56 1517.37 Q923.949 1517.37 922.12 1520.93 Q920.315 1524.47 920.315 1531.6 Q920.315 1538.71 922.12 1542.27 Q923.949 1545.82 927.56 1545.82 Q931.195 1545.82 933 1542.27 Q934.829 1538.71 934.829 1531.6 Q934.829 1524.47 933 1520.93 Q931.195 1517.37 927.56 1517.37 M927.56 1513.66 Q933.37 1513.66 936.426 1518.27 Q939.505 1522.85 939.505 1531.6 Q939.505 1540.33 936.426 1544.94 Q933.37 1549.52 927.56 1549.52 Q921.75 1549.52 918.671 1544.94 Q915.616 1540.33 915.616 1531.6 Q915.616 1522.85 918.671 1518.27 Q921.75 1513.66 927.56 1513.66 Z" fill="#000000" fill-rule="nonzero" fill-opacity="1"></path><path clip-path="url(#clip450)" d="M957.722 1517.37 Q954.111 1517.37 952.282 1520.93 Q950.477 1524.47 950.477 1531.6 Q950.477 1538.71 952.282 1542.27 Q954.111 1545.82 957.722 1545.82 Q961.356 1545.82 963.162 1542.27 Q964.991 1538.71 964.991 1531.6 Q964.991 1524.47 963.162 1520.93 Q961.356 1517.37 957.722 1517.37 M957.722 1513.66 Q963.532 1513.66 966.588 1518.27 Q969.667 1522.85 969.667 1531.6 Q969.667 1540.33 966.588 1544.94 Q963.532 1549.52 957.722 1549.52 Q951.912 1549.52 948.833 1544.94 Q945.778 1540.33 945.778 1531.6 Q945.778 1522.85 948.833 1518.27 Q951.912 1513.66 957.722 1513.66 Z" fill="#000000" fill-rule="nonzero" fill-opacity="1"></path><path clip-path="url(#clip450)" d="M1243.28 1530.21 Q1246.63 1530.93 1248.51 1533.2 Q1250.41 1535.47 1250.41 1538.8 Q1250.41 1543.92 1246.89 1546.72 Q1243.37 1549.52 1236.89 1549.52 Q1234.71 1549.52 1232.4 1549.08 Q1230.11 1548.66 1227.65 1547.81 L1227.65 1543.29 Q1229.6 1544.43 1231.91 1545.01 Q1234.23 1545.58 1236.75 1545.58 Q1241.15 1545.58 1243.44 1543.85 Q1245.75 1542.11 1245.75 1538.8 Q1245.75 1535.75 1243.6 1534.03 Q1241.47 1532.3 1237.65 1532.3 L1233.62 1532.3 L1233.62 1528.45 L1237.84 1528.45 Q1241.29 1528.45 1243.11 1527.09 Q1244.94 1525.7 1244.94 1523.11 Q1244.94 1520.45 1243.05 1519.03 Q1241.17 1517.6 1237.65 1517.6 Q1235.73 1517.6 1233.53 1518.01 Q1231.33 1518.43 1228.69 1519.31 L1228.69 1515.14 Q1231.36 1514.4 1233.67 1514.03 Q1236.01 1513.66 1238.07 1513.66 Q1243.39 1513.66 1246.49 1516.09 Q1249.6 1518.5 1249.6 1522.62 Q1249.6 1525.49 1247.95 1527.48 Q1246.31 1529.45 1243.28 1530.21 Z" fill="#000000" fill-rule="nonzero" fill-opacity="1"></path><path clip-path="url(#clip450)" d="M1269.27 1517.37 Q1265.66 1517.37 1263.83 1520.93 Q1262.03 1524.47 1262.03 1531.6 Q1262.03 1538.71 1263.83 1542.27 Q1265.66 1545.82 1269.27 1545.82 Q1272.91 1545.82 1274.71 1542.27 Q1276.54 1538.71 1276.54 1531.6 Q1276.54 1524.47 1274.71 1520.93 Q1272.91 1517.37 1269.27 1517.37 M1269.27 1513.66 Q1275.08 1513.66 1278.14 1518.27 Q1281.22 1522.85 1281.22 1531.6 Q1281.22 1540.33 1278.14 1544.94 Q1275.08 1549.52 1269.27 1549.52 Q1263.46 1549.52 1260.38 1544.94 Q1257.33 1540.33 1257.33 1531.6 Q1257.33 1522.85 1260.38 1518.27 Q1263.46 1513.66 1269.27 1513.66 Z" fill="#000000" fill-rule="nonzero" fill-opacity="1"></path><path clip-path="url(#clip450)" d="M1299.43 1517.37 Q1295.82 1517.37 1293.99 1520.93 Q1292.19 1524.47 1292.19 1531.6 Q1292.19 1538.71 1293.99 1542.27 Q1295.82 1545.82 1299.43 1545.82 Q1303.07 1545.82 1304.87 1542.27 Q1306.7 1538.71 1306.7 1531.6 Q1306.7 1524.47 1304.87 1520.93 Q1303.07 1517.37 1299.43 1517.37 M1299.43 1513.66 Q1305.24 1513.66 1308.3 1518.27 Q1311.38 1522.85 1311.38 1531.6 Q1311.38 1540.33 1308.3 1544.94 Q1305.24 1549.52 1299.43 1549.52 Q1293.62 1549.52 1290.54 1544.94 Q1287.49 1540.33 1287.49 1531.6 Q1287.49 1522.85 1290.54 1518.27 Q1293.62 1513.66 1299.43 1513.66 Z" fill="#000000" fill-rule="nonzero" fill-opacity="1"></path><path clip-path="url(#clip450)" d="M1584.39 1518.36 L1572.58 1536.81 L1584.39 1536.81 L1584.39 1518.36 M1583.16 1514.29 L1589.04 1514.29 L1589.04 1536.81 L1593.97 1536.81 L1593.97 1540.7 L1589.04 1540.7 L1589.04 1548.85 L1584.39 1548.85 L1584.39 1540.7 L1568.78 1540.7 L1568.78 1536.19 L1583.16 1514.29 Z" fill="#000000" fill-rule="nonzero" fill-opacity="1"></path><path clip-path="url(#clip450)" d="M1611.7 1517.37 Q1608.09 1517.37 1606.26 1520.93 Q1604.46 1524.47 1604.46 1531.6 Q1604.46 1538.71 1606.26 1542.27 Q1608.09 1545.82 1611.7 1545.82 Q1615.34 1545.82 1617.14 1542.27 Q1618.97 1538.71 1618.97 1531.6 Q1618.97 1524.47 1617.14 1520.93 Q1615.34 1517.37 1611.7 1517.37 M1611.7 1513.66 Q1617.51 1513.66 1620.57 1518.27 Q1623.65 1522.85 1623.65 1531.6 Q1623.65 1540.33 1620.57 1544.94 Q1617.51 1549.52 1611.7 1549.52 Q1605.89 1549.52 1602.81 1544.94 Q1599.76 1540.33 1599.76 1531.6 Q1599.76 1522.85 1602.81 1518.27 Q1605.89 1513.66 1611.7 1513.66 Z" fill="#000000" fill-rule="nonzero" fill-opacity="1"></path><path clip-path="url(#clip450)" d="M1641.86 1517.37 Q1638.25 1517.37 1636.42 1520.93 Q1634.62 1524.47 1634.62 1531.6 Q1634.62 1538.71 1636.42 1542.27 Q1638.25 1545.82 1641.86 1545.82 Q1645.5 1545.82 1647.3 1542.27 Q1649.13 1538.71 1649.13 1531.6 Q1649.13 1524.47 1647.3 1520.93 Q1645.5 1517.37 1641.86 1517.37 M1641.86 1513.66 Q1647.67 1513.66 1650.73 1518.27 Q1653.81 1522.85 1653.81 1531.6 Q1653.81 1540.33 1650.73 1544.94 Q1647.67 1549.52 1641.86 1549.52 Q1636.05 1549.52 1632.97 1544.94 Q1629.92 1540.33 1629.92 1531.6 Q1629.92 1522.85 1632.97 1518.27 Q1636.05 1513.66 1641.86 1513.66 Z" fill="#000000" fill-rule="nonzero" fill-opacity="1"></path><path clip-path="url(#clip450)" d="M1912.7 1514.29 L1931.05 1514.29 L1931.05 1518.22 L1916.98 1518.22 L1916.98 1526.7 Q1918 1526.35 1919.01 1526.19 Q1920.03 1526 1921.05 1526 Q1926.84 1526 1930.22 1529.17 Q1933.6 1532.34 1933.6 1537.76 Q1933.6 1543.34 1930.13 1546.44 Q1926.65 1549.52 1920.33 1549.52 Q1918.16 1549.52 1915.89 1549.15 Q1913.64 1548.78 1911.24 1548.04 L1911.24 1543.34 Q1913.32 1544.47 1915.54 1545.03 Q1917.76 1545.58 1920.24 1545.58 Q1924.25 1545.58 1926.58 1543.48 Q1928.92 1541.37 1928.92 1537.76 Q1928.92 1534.15 1926.58 1532.04 Q1924.25 1529.94 1920.24 1529.94 Q1918.37 1529.94 1916.49 1530.35 Q1914.64 1530.77 1912.7 1531.65 L1912.7 1514.29 Z" fill="#000000" fill-rule="nonzero" fill-opacity="1"></path><path clip-path="url(#clip450)" d="M1952.81 1517.37 Q1949.2 1517.37 1947.37 1520.93 Q1945.57 1524.47 1945.57 1531.6 Q1945.57 1538.71 1947.37 1542.27 Q1949.2 1545.82 1952.81 1545.82 Q1956.45 1545.82 1958.25 1542.27 Q1960.08 1538.71 1960.08 1531.6 Q1960.08 1524.47 1958.25 1520.93 Q1956.45 1517.37 1952.81 1517.37 M1952.81 1513.66 Q1958.62 1513.66 1961.68 1518.27 Q1964.76 1522.85 1964.76 1531.6 Q1964.76 1540.33 1961.68 1544.94 Q1958.62 1549.52 1952.81 1549.52 Q1947 1549.52 1943.92 1544.94 Q1940.87 1540.33 1940.87 1531.6 Q1940.87 1522.85 1943.92 1518.27 Q1947 1513.66 1952.81 1513.66 Z" fill="#000000" fill-rule="nonzero" fill-opacity="1"></path><path clip-path="url(#clip450)" d="M1982.97 1517.37 Q1979.36 1517.37 1977.53 1520.93 Q1975.73 1524.47 1975.73 1531.6 Q1975.73 1538.71 1977.53 1542.27 Q1979.36 1545.82 1982.97 1545.82 Q1986.61 1545.82 1988.41 1542.27 Q1990.24 1538.71 1990.24 1531.6 Q1990.24 1524.47 1988.41 1520.93 Q1986.61 1517.37 1982.97 1517.37 M1982.97 1513.66 Q1988.78 1513.66 1991.84 1518.27 Q1994.92 1522.85 1994.92 1531.6 Q1994.92 1540.33 1991.84 1544.94 Q1988.78 1549.52 1982.97 1549.52 Q1977.16 1549.52 1974.08 1544.94 Q1971.03 1540.33 1971.03 1531.6 Q1971.03 1522.85 1974.08 1518.27 Q1977.16 1513.66 1982.97 1513.66 Z" fill="#000000" fill-rule="nonzero" fill-opacity="1"></path><path clip-path="url(#clip450)" d="M2265.18 1529.7 Q2262.03 1529.7 2260.18 1531.86 Q2258.35 1534.01 2258.35 1537.76 Q2258.35 1541.49 2260.18 1543.66 Q2262.03 1545.82 2265.18 1545.82 Q2268.33 1545.82 2270.16 1543.66 Q2272.01 1541.49 2272.01 1537.76 Q2272.01 1534.01 2270.16 1531.86 Q2268.33 1529.7 2265.18 1529.7 M2274.46 1515.05 L2274.46 1519.31 Q2272.71 1518.48 2270.9 1518.04 Q2269.12 1517.6 2267.36 1517.6 Q2262.73 1517.6 2260.28 1520.72 Q2257.84 1523.85 2257.5 1530.17 Q2258.86 1528.15 2260.92 1527.09 Q2262.98 1526 2265.46 1526 Q2270.67 1526 2273.68 1529.17 Q2276.71 1532.32 2276.71 1537.76 Q2276.71 1543.08 2273.56 1546.3 Q2270.41 1549.52 2265.18 1549.52 Q2259.19 1549.52 2256.02 1544.94 Q2252.84 1540.33 2252.84 1531.6 Q2252.84 1523.41 2256.73 1518.55 Q2260.62 1513.66 2267.17 1513.66 Q2268.93 1513.66 2270.71 1514.01 Q2272.52 1514.36 2274.46 1515.05 Z" fill="#000000" fill-rule="nonzero" fill-opacity="1"></path><path clip-path="url(#clip450)" d="M2294.77 1517.37 Q2291.15 1517.37 2289.33 1520.93 Q2287.52 1524.47 2287.52 1531.6 Q2287.52 1538.71 2289.33 1542.27 Q2291.15 1545.82 2294.77 1545.82 Q2298.4 1545.82 2300.21 1542.27 Q2302.03 1538.71 2302.03 1531.6 Q2302.03 1524.47 2300.21 1520.93 Q2298.4 1517.37 2294.77 1517.37 M2294.77 1513.66 Q2300.58 1513.66 2303.63 1518.27 Q2306.71 1522.85 2306.71 1531.6 Q2306.71 1540.33 2303.63 1544.94 Q2300.58 1549.52 2294.77 1549.52 Q2288.96 1549.52 2285.88 1544.94 Q2282.82 1540.33 2282.82 1531.6 Q2282.82 1522.85 2285.88 1518.27 Q2288.96 1513.66 2294.77 1513.66 Z" fill="#000000" fill-rule="nonzero" fill-opacity="1"></path><path clip-path="url(#clip450)" d="M2324.93 1517.37 Q2321.32 1517.37 2319.49 1520.93 Q2317.68 1524.47 2317.68 1531.6 Q2317.68 1538.71 2319.49 1542.27 Q2321.32 1545.82 2324.93 1545.82 Q2328.56 1545.82 2330.37 1542.27 Q2332.2 1538.71 2332.2 1531.6 Q2332.2 1524.47 2330.37 1520.93 Q2328.56 1517.37 2324.93 1517.37 M2324.93 1513.66 Q2330.74 1513.66 2333.79 1518.27 Q2336.87 1522.85 2336.87 1531.6 Q2336.87 1540.33 2333.79 1544.94 Q2330.74 1549.52 2324.93 1549.52 Q2319.12 1549.52 2316.04 1544.94 Q2312.98 1540.33 2312.98 1531.6 Q2312.98 1522.85 2316.04 1518.27 Q2319.12 1513.66 2324.93 1513.66 Z" fill="#000000" fill-rule="nonzero" fill-opacity="1"></path><polyline clip-path="url(#clip452)" style="stroke:#000000; stroke-linecap:round; stroke-linejoin:round; stroke-width:2; stroke-opacity:0.1; fill:none" points="186.274,1470.38 2352.76,1470.38 "></polyline>
<polyline clip-path="url(#clip452)" style="stroke:#000000; stroke-linecap:round; stroke-linejoin:round; stroke-width:2; stroke-opacity:0.1; fill:none" points="186.274,1228.17 2352.76,1228.17 "></polyline>
<polyline clip-path="url(#clip452)" style="stroke:#000000; stroke-linecap:round; stroke-linejoin:round; stroke-width:2; stroke-opacity:0.1; fill:none" points="186.274,985.968 2352.76,985.968 "></polyline>
<polyline clip-path="url(#clip452)" style="stroke:#000000; stroke-linecap:round; stroke-linejoin:round; stroke-width:2; stroke-opacity:0.1; fill:none" points="186.274,743.765 2352.76,743.765 "></polyline>
<polyline clip-path="url(#clip452)" style="stroke:#000000; stroke-linecap:round; stroke-linejoin:round; stroke-width:2; stroke-opacity:0.1; fill:none" points="186.274,501.561 2352.76,501.561 "></polyline>
<polyline clip-path="url(#clip452)" style="stroke:#000000; stroke-linecap:round; stroke-linejoin:round; stroke-width:2; stroke-opacity:0.1; fill:none" points="186.274,259.357 2352.76,259.357 "></polyline>
<polyline clip-path="url(#clip450)" style="stroke:#000000; stroke-linecap:round; stroke-linejoin:round; stroke-width:4; stroke-opacity:1; fill:none" points="186.274,1486.45 186.274,47.2441 "></polyline>
<polyline clip-path="url(#clip450)" style="stroke:#000000; stroke-linecap:round; stroke-linejoin:round; stroke-width:4; stroke-opacity:1; fill:none" points="186.274,1470.38 205.172,1470.38 "></polyline>
<polyline clip-path="url(#clip450)" style="stroke:#000000; stroke-linecap:round; stroke-linejoin:round; stroke-width:4; stroke-opacity:1; fill:none" points="186.274,1228.17 205.172,1228.17 "></polyline>
<polyline clip-path="url(#clip450)" style="stroke:#000000; stroke-linecap:round; stroke-linejoin:round; stroke-width:4; stroke-opacity:1; fill:none" points="186.274,985.968 205.172,985.968 "></polyline>
<polyline clip-path="url(#clip450)" style="stroke:#000000; stroke-linecap:round; stroke-linejoin:round; stroke-width:4; stroke-opacity:1; fill:none" points="186.274,743.765 205.172,743.765 "></polyline>
<polyline clip-path="url(#clip450)" style="stroke:#000000; stroke-linecap:round; stroke-linejoin:round; stroke-width:4; stroke-opacity:1; fill:none" points="186.274,501.561 205.172,501.561 "></polyline>
<polyline clip-path="url(#clip450)" style="stroke:#000000; stroke-linecap:round; stroke-linejoin:round; stroke-width:4; stroke-opacity:1; fill:none" points="186.274,259.357 205.172,259.357 "></polyline>
<path clip-path="url(#clip450)" d="M63.9319 1456.17 Q60.3208 1456.17 58.4921 1459.74 Q56.6865 1463.28 56.6865 1470.41 Q56.6865 1477.52 58.4921 1481.08 Q60.3208 1484.62 63.9319 1484.62 Q67.5661 1484.62 69.3717 1481.08 Q71.2004 1477.52 71.2004 1470.41 Q71.2004 1463.28 69.3717 1459.74 Q67.5661 1456.17 63.9319 1456.17 M63.9319 1452.47 Q69.742 1452.47 72.7976 1457.08 Q75.8763 1461.66 75.8763 1470.41 Q75.8763 1479.14 72.7976 1483.74 Q69.742 1488.33 63.9319 1488.33 Q58.1217 1488.33 55.043 1483.74 Q51.9875 1479.14 51.9875 1470.41 Q51.9875 1461.66 55.043 1457.08 Q58.1217 1452.47 63.9319 1452.47 Z" fill="#000000" fill-rule="nonzero" fill-opacity="1"></path><path clip-path="url(#clip450)" d="M84.0938 1481.78 L88.978 1481.78 L88.978 1487.66 L84.0938 1487.66 L84.0938 1481.78 Z" fill="#000000" fill-rule="nonzero" fill-opacity="1"></path><path clip-path="url(#clip450)" d="M103.191 1483.72 L119.51 1483.72 L119.51 1487.66 L97.566 1487.66 L97.566 1483.72 Q100.228 1480.97 104.811 1476.34 Q109.418 1471.68 110.598 1470.34 Q112.844 1467.82 113.723 1466.08 Q114.626 1464.32 114.626 1462.63 Q114.626 1459.88 112.682 1458.14 Q110.76 1456.41 107.658 1456.41 Q105.459 1456.41 103.006 1457.17 Q100.575 1457.93 97.7974 1459.48 L97.7974 1454.76 Q100.621 1453.63 103.075 1453.05 Q105.529 1452.47 107.566 1452.47 Q112.936 1452.47 116.131 1455.16 Q119.325 1457.84 119.325 1462.33 Q119.325 1464.46 118.515 1466.38 Q117.728 1468.28 115.621 1470.87 Q115.043 1471.55 111.941 1474.76 Q108.839 1477.96 103.191 1483.72 Z" fill="#000000" fill-rule="nonzero" fill-opacity="1"></path><path clip-path="url(#clip450)" d="M129.371 1453.1 L147.728 1453.1 L147.728 1457.03 L133.654 1457.03 L133.654 1465.5 Q134.672 1465.16 135.691 1464.99 Q136.709 1464.81 137.728 1464.81 Q143.515 1464.81 146.894 1467.98 Q150.274 1471.15 150.274 1476.57 Q150.274 1482.15 146.802 1485.25 Q143.33 1488.33 137.01 1488.33 Q134.834 1488.33 132.566 1487.96 Q130.32 1487.59 127.913 1486.85 L127.913 1482.15 Q129.996 1483.28 132.219 1483.84 Q134.441 1484.39 136.918 1484.39 Q140.922 1484.39 143.26 1482.29 Q145.598 1480.18 145.598 1476.57 Q145.598 1472.96 143.26 1470.85 Q140.922 1468.74 136.918 1468.74 Q135.043 1468.74 133.168 1469.16 Q131.316 1469.58 129.371 1470.46 L129.371 1453.1 Z" fill="#000000" fill-rule="nonzero" fill-opacity="1"></path><path clip-path="url(#clip450)" d="M62.9365 1213.97 Q59.3254 1213.97 57.4967 1217.54 Q55.6912 1221.08 55.6912 1228.21 Q55.6912 1235.31 57.4967 1238.88 Q59.3254 1242.42 62.9365 1242.42 Q66.5707 1242.42 68.3763 1238.88 Q70.205 1235.31 70.205 1228.21 Q70.205 1221.08 68.3763 1217.54 Q66.5707 1213.97 62.9365 1213.97 M62.9365 1210.27 Q68.7467 1210.27 71.8022 1214.87 Q74.8809 1219.46 74.8809 1228.21 Q74.8809 1236.93 71.8022 1241.54 Q68.7467 1246.12 62.9365 1246.12 Q57.1264 1246.12 54.0477 1241.54 Q50.9921 1236.93 50.9921 1228.21 Q50.9921 1219.46 54.0477 1214.87 Q57.1264 1210.27 62.9365 1210.27 Z" fill="#000000" fill-rule="nonzero" fill-opacity="1"></path><path clip-path="url(#clip450)" d="M83.0984 1239.57 L87.9827 1239.57 L87.9827 1245.45 L83.0984 1245.45 L83.0984 1239.57 Z" fill="#000000" fill-rule="nonzero" fill-opacity="1"></path><path clip-path="url(#clip450)" d="M112.334 1226.82 Q115.691 1227.54 117.566 1229.8 Q119.464 1232.07 119.464 1235.41 Q119.464 1240.52 115.945 1243.32 Q112.427 1246.12 105.946 1246.12 Q103.77 1246.12 101.455 1245.68 Q99.1632 1245.27 96.7095 1244.41 L96.7095 1239.9 Q98.6539 1241.03 100.969 1241.61 Q103.284 1242.19 105.807 1242.19 Q110.205 1242.19 112.496 1240.45 Q114.811 1238.72 114.811 1235.41 Q114.811 1232.35 112.658 1230.64 Q110.529 1228.9 106.709 1228.9 L102.682 1228.9 L102.682 1225.06 L106.895 1225.06 Q110.344 1225.06 112.172 1223.69 Q114.001 1222.3 114.001 1219.71 Q114.001 1217.05 112.103 1215.64 Q110.228 1214.2 106.709 1214.2 Q104.788 1214.2 102.589 1214.62 Q100.39 1215.04 97.7511 1215.92 L97.7511 1211.75 Q100.413 1211.01 102.728 1210.64 Q105.066 1210.27 107.126 1210.27 Q112.45 1210.27 115.552 1212.7 Q118.654 1215.11 118.654 1219.23 Q118.654 1222.1 117.01 1224.09 Q115.367 1226.05 112.334 1226.82 Z" fill="#000000" fill-rule="nonzero" fill-opacity="1"></path><path clip-path="url(#clip450)" d="M138.33 1213.97 Q134.719 1213.97 132.89 1217.54 Q131.084 1221.08 131.084 1228.21 Q131.084 1235.31 132.89 1238.88 Q134.719 1242.42 138.33 1242.42 Q141.964 1242.42 143.769 1238.88 Q145.598 1235.31 145.598 1228.21 Q145.598 1221.08 143.769 1217.54 Q141.964 1213.97 138.33 1213.97 M138.33 1210.27 Q144.14 1210.27 147.195 1214.87 Q150.274 1219.46 150.274 1228.21 Q150.274 1236.93 147.195 1241.54 Q144.14 1246.12 138.33 1246.12 Q132.519 1246.12 129.441 1241.54 Q126.385 1236.93 126.385 1228.21 Q126.385 1219.46 129.441 1214.87 Q132.519 1210.27 138.33 1210.27 Z" fill="#000000" fill-rule="nonzero" fill-opacity="1"></path><path clip-path="url(#clip450)" d="M63.9319 971.767 Q60.3208 971.767 58.4921 975.332 Q56.6865 978.874 56.6865 986.003 Q56.6865 993.11 58.4921 996.674 Q60.3208 1000.22 63.9319 1000.22 Q67.5661 1000.22 69.3717 996.674 Q71.2004 993.11 71.2004 986.003 Q71.2004 978.874 69.3717 975.332 Q67.5661 971.767 63.9319 971.767 M63.9319 968.063 Q69.742 968.063 72.7976 972.67 Q75.8763 977.253 75.8763 986.003 Q75.8763 994.73 72.7976 999.336 Q69.742 1003.92 63.9319 1003.92 Q58.1217 1003.92 55.043 999.336 Q51.9875 994.73 51.9875 986.003 Q51.9875 977.253 55.043 972.67 Q58.1217 968.063 63.9319 968.063 Z" fill="#000000" fill-rule="nonzero" fill-opacity="1"></path><path clip-path="url(#clip450)" d="M84.0938 997.369 L88.978 997.369 L88.978 1003.25 L84.0938 1003.25 L84.0938 997.369 Z" fill="#000000" fill-rule="nonzero" fill-opacity="1"></path><path clip-path="url(#clip450)" d="M113.33 984.614 Q116.686 985.332 118.561 987.6 Q120.459 989.869 120.459 993.202 Q120.459 998.318 116.941 1001.12 Q113.422 1003.92 106.941 1003.92 Q104.765 1003.92 102.45 1003.48 Q100.159 1003.06 97.7048 1002.21 L97.7048 997.693 Q99.6493 998.827 101.964 999.406 Q104.279 999.985 106.802 999.985 Q111.2 999.985 113.492 998.248 Q115.807 996.512 115.807 993.202 Q115.807 990.147 113.654 988.434 Q111.524 986.698 107.705 986.698 L103.677 986.698 L103.677 982.855 L107.89 982.855 Q111.339 982.855 113.168 981.489 Q114.996 980.1 114.996 977.508 Q114.996 974.846 113.098 973.434 Q111.223 971.999 107.705 971.999 Q105.783 971.999 103.584 972.415 Q101.385 972.832 98.7465 973.712 L98.7465 969.545 Q101.409 968.804 103.723 968.434 Q106.061 968.063 108.121 968.063 Q113.445 968.063 116.547 970.494 Q119.649 972.901 119.649 977.022 Q119.649 979.892 118.006 981.883 Q116.362 983.85 113.33 984.614 Z" fill="#000000" fill-rule="nonzero" fill-opacity="1"></path><path clip-path="url(#clip450)" d="M129.371 968.688 L147.728 968.688 L147.728 972.624 L133.654 972.624 L133.654 981.096 Q134.672 980.749 135.691 980.587 Q136.709 980.401 137.728 980.401 Q143.515 980.401 146.894 983.573 Q150.274 986.744 150.274 992.161 Q150.274 997.739 146.802 1000.84 Q143.33 1003.92 137.01 1003.92 Q134.834 1003.92 132.566 1003.55 Q130.32 1003.18 127.913 1002.44 L127.913 997.739 Q129.996 998.873 132.219 999.429 Q134.441 999.985 136.918 999.985 Q140.922 999.985 143.26 997.878 Q145.598 995.772 145.598 992.161 Q145.598 988.549 143.26 986.443 Q140.922 984.337 136.918 984.337 Q135.043 984.337 133.168 984.753 Q131.316 985.17 129.371 986.049 L129.371 968.688 Z" fill="#000000" fill-rule="nonzero" fill-opacity="1"></path><path clip-path="url(#clip450)" d="M62.9365 729.563 Q59.3254 729.563 57.4967 733.128 Q55.6912 736.67 55.6912 743.799 Q55.6912 750.906 57.4967 754.471 Q59.3254 758.012 62.9365 758.012 Q66.5707 758.012 68.3763 754.471 Q70.205 750.906 70.205 743.799 Q70.205 736.67 68.3763 733.128 Q66.5707 729.563 62.9365 729.563 M62.9365 725.86 Q68.7467 725.86 71.8022 730.466 Q74.8809 735.049 74.8809 743.799 Q74.8809 752.526 71.8022 757.133 Q68.7467 761.716 62.9365 761.716 Q57.1264 761.716 54.0477 757.133 Q50.9921 752.526 50.9921 743.799 Q50.9921 735.049 54.0477 730.466 Q57.1264 725.86 62.9365 725.86 Z" fill="#000000" fill-rule="nonzero" fill-opacity="1"></path><path clip-path="url(#clip450)" d="M83.0984 755.165 L87.9827 755.165 L87.9827 761.045 L83.0984 761.045 L83.0984 755.165 Z" fill="#000000" fill-rule="nonzero" fill-opacity="1"></path><path clip-path="url(#clip450)" d="M111.015 730.559 L99.2095 749.008 L111.015 749.008 L111.015 730.559 M109.788 726.485 L115.668 726.485 L115.668 749.008 L120.598 749.008 L120.598 752.897 L115.668 752.897 L115.668 761.045 L111.015 761.045 L111.015 752.897 L95.4132 752.897 L95.4132 748.383 L109.788 726.485 Z" fill="#000000" fill-rule="nonzero" fill-opacity="1"></path><path clip-path="url(#clip450)" d="M138.33 729.563 Q134.719 729.563 132.89 733.128 Q131.084 736.67 131.084 743.799 Q131.084 750.906 132.89 754.471 Q134.719 758.012 138.33 758.012 Q141.964 758.012 143.769 754.471 Q145.598 750.906 145.598 743.799 Q145.598 736.67 143.769 733.128 Q141.964 729.563 138.33 729.563 M138.33 725.86 Q144.14 725.86 147.195 730.466 Q150.274 735.049 150.274 743.799 Q150.274 752.526 147.195 757.133 Q144.14 761.716 138.33 761.716 Q132.519 761.716 129.441 757.133 Q126.385 752.526 126.385 743.799 Q126.385 735.049 129.441 730.466 Q132.519 725.86 138.33 725.86 Z" fill="#000000" fill-rule="nonzero" fill-opacity="1"></path><path clip-path="url(#clip450)" d="M63.9319 487.359 Q60.3208 487.359 58.4921 490.924 Q56.6865 494.466 56.6865 501.596 Q56.6865 508.702 58.4921 512.267 Q60.3208 515.808 63.9319 515.808 Q67.5661 515.808 69.3717 512.267 Q71.2004 508.702 71.2004 501.596 Q71.2004 494.466 69.3717 490.924 Q67.5661 487.359 63.9319 487.359 M63.9319 483.656 Q69.742 483.656 72.7976 488.262 Q75.8763 492.846 75.8763 501.596 Q75.8763 510.322 72.7976 514.929 Q69.742 519.512 63.9319 519.512 Q58.1217 519.512 55.043 514.929 Q51.9875 510.322 51.9875 501.596 Q51.9875 492.846 55.043 488.262 Q58.1217 483.656 63.9319 483.656 Z" fill="#000000" fill-rule="nonzero" fill-opacity="1"></path><path clip-path="url(#clip450)" d="M84.0938 512.961 L88.978 512.961 L88.978 518.841 L84.0938 518.841 L84.0938 512.961 Z" fill="#000000" fill-rule="nonzero" fill-opacity="1"></path><path clip-path="url(#clip450)" d="M112.01 488.355 L100.205 506.804 L112.01 506.804 L112.01 488.355 M110.783 484.281 L116.663 484.281 L116.663 506.804 L121.594 506.804 L121.594 510.693 L116.663 510.693 L116.663 518.841 L112.01 518.841 L112.01 510.693 L96.4085 510.693 L96.4085 506.179 L110.783 484.281 Z" fill="#000000" fill-rule="nonzero" fill-opacity="1"></path><path clip-path="url(#clip450)" d="M129.371 484.281 L147.728 484.281 L147.728 488.216 L133.654 488.216 L133.654 496.688 Q134.672 496.341 135.691 496.179 Q136.709 495.994 137.728 495.994 Q143.515 495.994 146.894 499.165 Q150.274 502.336 150.274 507.753 Q150.274 513.332 146.802 516.433 Q143.33 519.512 137.01 519.512 Q134.834 519.512 132.566 519.142 Q130.32 518.771 127.913 518.031 L127.913 513.332 Q129.996 514.466 132.219 515.021 Q134.441 515.577 136.918 515.577 Q140.922 515.577 143.26 513.47 Q145.598 511.364 145.598 507.753 Q145.598 504.142 143.26 502.035 Q140.922 499.929 136.918 499.929 Q135.043 499.929 133.168 500.346 Q131.316 500.762 129.371 501.642 L129.371 484.281 Z" fill="#000000" fill-rule="nonzero" fill-opacity="1"></path><path clip-path="url(#clip450)" d="M62.9365 245.156 Q59.3254 245.156 57.4967 248.72 Q55.6912 252.262 55.6912 259.392 Q55.6912 266.498 57.4967 270.063 Q59.3254 273.605 62.9365 273.605 Q66.5707 273.605 68.3763 270.063 Q70.205 266.498 70.205 259.392 Q70.205 252.262 68.3763 248.72 Q66.5707 245.156 62.9365 245.156 M62.9365 241.452 Q68.7467 241.452 71.8022 246.058 Q74.8809 250.642 74.8809 259.392 Q74.8809 268.119 71.8022 272.725 Q68.7467 277.308 62.9365 277.308 Q57.1264 277.308 54.0477 272.725 Q50.9921 268.119 50.9921 259.392 Q50.9921 250.642 54.0477 246.058 Q57.1264 241.452 62.9365 241.452 Z" fill="#000000" fill-rule="nonzero" fill-opacity="1"></path><path clip-path="url(#clip450)" d="M83.0984 270.757 L87.9827 270.757 L87.9827 276.637 L83.0984 276.637 L83.0984 270.757 Z" fill="#000000" fill-rule="nonzero" fill-opacity="1"></path><path clip-path="url(#clip450)" d="M98.2141 242.077 L116.57 242.077 L116.57 246.012 L102.496 246.012 L102.496 254.484 Q103.515 254.137 104.534 253.975 Q105.552 253.79 106.571 253.79 Q112.358 253.79 115.737 256.961 Q119.117 260.132 119.117 265.549 Q119.117 271.128 115.645 274.23 Q112.172 277.308 105.853 277.308 Q103.677 277.308 101.409 276.938 Q99.1632 276.568 96.7558 275.827 L96.7558 271.128 Q98.8391 272.262 101.061 272.818 Q103.284 273.373 105.76 273.373 Q109.765 273.373 112.103 271.267 Q114.441 269.16 114.441 265.549 Q114.441 261.938 112.103 259.832 Q109.765 257.725 105.76 257.725 Q103.885 257.725 102.01 258.142 Q100.159 258.558 98.2141 259.438 L98.2141 242.077 Z" fill="#000000" fill-rule="nonzero" fill-opacity="1"></path><path clip-path="url(#clip450)" d="M138.33 245.156 Q134.719 245.156 132.89 248.72 Q131.084 252.262 131.084 259.392 Q131.084 266.498 132.89 270.063 Q134.719 273.605 138.33 273.605 Q141.964 273.605 143.769 270.063 Q145.598 266.498 145.598 259.392 Q145.598 252.262 143.769 248.72 Q141.964 245.156 138.33 245.156 M138.33 241.452 Q144.14 241.452 147.195 246.058 Q150.274 250.642 150.274 259.392 Q150.274 268.119 147.195 272.725 Q144.14 277.308 138.33 277.308 Q132.519 277.308 129.441 272.725 Q126.385 268.119 126.385 259.392 Q126.385 250.642 129.441 246.058 Q132.519 241.452 138.33 241.452 Z" fill="#000000" fill-rule="nonzero" fill-opacity="1"></path><polyline clip-path="url(#clip452)" style="stroke:#009af9; stroke-linecap:round; stroke-linejoin:round; stroke-width:4; stroke-opacity:1; fill:none" points="247.59,87.9763 251.007,351.731 254.425,1011.7 257.843,1167.25 261.261,1240.67 264.679,1283.64 268.096,1311.89 271.514,1331.88 274.932,1346.78 278.35,1358.31 281.768,1367.51 285.185,1375.01 288.603,1381.25 292.021,1386.51 295.439,1391.02 298.857,1394.92 302.274,1398.33 305.692,1401.34 309.11,1404.01 312.528,1406.4 315.946,1408.54 319.364,1410.48 322.781,1412.25 326.199,1413.86 329.617,1415.33 333.035,1416.69 336.453,1417.94 339.87,1419.1 343.288,1420.18 346.706,1421.18 350.124,1422.12 353.542,1422.99 356.959,1423.81 360.377,1424.58 363.795,1425.3 367.213,1425.99 370.631,1426.63 374.049,1427.24 377.466,1427.82 380.884,1428.37 384.302,1428.89 387.72,1429.39 391.138,1429.86 394.555,1430.31 397.973,1430.74 401.391,1431.15 404.809,1431.54 408.227,1431.92 411.644,1432.28 415.062,1432.63 418.48,1432.96 421.898,1433.28 425.316,1433.58 428.733,1433.88 432.151,1434.16 435.569,1434.44 438.987,1434.7 442.405,1434.95 445.823,1435.2 449.24,1435.44 452.658,1435.67 456.076,1435.89 459.494,1436.11 462.912,1436.31 466.329,1436.52 469.747,1436.71 473.165,1436.9 476.583,1437.08 480.001,1437.26 483.418,1437.44 486.836,1437.61 490.254,1437.77 493.672,1437.93 497.09,1438.08 500.508,1438.23 503.925,1438.38 507.343,1438.52 510.761,1438.66 514.179,1438.8 517.597,1438.93 521.014,1439.06 524.432,1439.18 527.85,1439.31 531.268,1439.42 534.686,1439.54 538.103,1439.65 541.521,1439.77 544.939,1439.87 548.357,1439.98 551.775,1440.08 555.192,1440.19 558.61,1440.28 562.028,1440.38 565.446,1440.48 568.864,1440.57 572.282,1440.66 575.699,1440.75 579.117,1440.84 582.535,1440.92 585.953,1441 589.371,1441.09 592.788,1441.17 596.206,1441.24 599.624,1441.32 603.042,1441.4 606.46,1441.47 609.877,1441.54 613.295,1441.61 616.713,1441.68 620.131,1441.75 623.549,1441.82 626.967,1441.89 630.384,1441.95 633.802,1442.01 637.22,1442.08 640.638,1442.14 644.056,1442.2 647.473,1442.26 650.891,1442.31 654.309,1442.37 657.727,1442.43 661.145,1442.48 664.562,1442.54 667.98,1442.59 671.398,1442.64 674.816,1442.69 678.234,1442.74 681.651,1442.79 685.069,1442.84 688.487,1442.89 691.905,1442.94 695.323,1442.99 698.741,1443.03 702.158,1443.08 705.576,1443.12 708.994,1443.16 712.412,1443.21 715.83,1443.25 719.247,1443.29 722.665,1443.33 726.083,1443.37 729.501,1443.41 732.919,1443.45 736.336,1443.49 739.754,1443.53 743.172,1443.57 746.59,1443.6 750.008,1443.64 753.426,1443.67 756.843,1443.71 760.261,1443.74 763.679,1443.78 767.097,1443.81 770.515,1443.84 773.932,1443.88 777.35,1443.91 780.768,1443.94 784.186,1443.97 787.604,1444 791.021,1444.03 794.439,1444.06 797.857,1444.09 801.275,1444.12 804.693,1444.15 808.11,1444.18 811.528,1444.21 814.946,1444.23 818.364,1444.26 821.782,1444.29 825.2,1444.31 828.617,1444.34 832.035,1444.37 835.453,1444.39 838.871,1444.42 842.289,1444.44 845.706,1444.46 849.124,1444.49 852.542,1444.51 855.96,1444.53 859.378,1444.56 862.795,1444.58 866.213,1444.6 869.631,1444.62 873.049,1444.64 876.467,1444.67 879.885,1444.69 883.302,1444.71 886.72,1444.73 890.138,1444.75 893.556,1444.77 896.974,1444.79 900.391,1444.81 903.809,1444.83 907.227,1444.84 910.645,1444.86 914.063,1444.88 917.48,1444.9 920.898,1444.92 924.316,1444.93 927.734,1444.95 931.152,1444.97 934.569,1444.98 937.987,1445 941.405,1445.02 944.823,1445.03 948.241,1445.05 951.659,1445.06 955.076,1445.08 958.494,1445.09 961.912,1445.11 965.33,1445.12 968.748,1445.14 972.165,1445.15 975.583,1445.17 979.001,1445.18 982.419,1445.19 985.837,1445.21 989.254,1445.22 992.672,1445.23 996.09,1445.24 999.508,1445.26 1002.93,1445.27 1006.34,1445.28 1009.76,1445.29 1013.18,1445.31 1016.6,1445.32 1020.01,1445.33 1023.43,1445.34 1026.85,1445.35 1030.27,1445.36 1033.69,1445.37 1037.1,1445.38 1040.52,1445.39 1043.94,1445.4 1047.36,1445.41 1050.78,1445.42 1054.19,1445.43 1057.61,1445.44 1061.03,1445.45 1064.45,1445.46 1067.86,1445.47 1071.28,1445.48 1074.7,1445.48 1078.12,1445.49 1081.54,1445.5 1084.95,1445.51 1088.37,1445.52 1091.79,1445.52 1095.21,1445.53 1098.62,1445.54 1102.04,1445.55 1105.46,1445.55 1108.88,1445.56 1112.3,1445.57 1115.71,1445.57 1119.13,1445.58 1122.55,1445.59 1125.97,1445.59 1129.38,1445.6 1132.8,1445.6 1136.22,1445.61 1139.64,1445.61 1143.06,1445.62 1146.47,1445.63 1149.89,1445.63 1153.31,1445.64 1156.73,1445.64 1160.15,1445.64 1163.56,1445.65 1166.98,1445.65 1170.4,1445.66 1173.82,1445.66 1177.23,1445.67 1180.65,1445.67 1184.07,1445.67 1187.49,1445.68 1190.91,1445.68 1194.32,1445.68 1197.74,1445.69 1201.16,1445.69 1204.58,1445.69 1207.99,1445.69 1211.41,1445.7 1214.83,1445.7 1218.25,1445.7 1221.67,1445.7 1225.08,1445.7 1228.5,1445.71 1231.92,1445.71 1235.34,1445.71 1238.75,1445.71 1242.17,1445.71 1245.59,1445.71 1249.01,1445.71 1252.43,1445.71 1255.84,1445.71 1259.26,1445.72 1262.68,1445.72 1266.1,1445.72 1269.51,1445.72 1272.93,1445.72 1276.35,1445.72 1279.77,1445.72 1283.19,1445.71 1286.6,1445.71 1290.02,1445.71 1293.44,1445.71 1296.86,1445.71 1300.28,1445.71 1303.69,1445.71 1307.11,1445.71 1310.53,1445.71 1313.95,1445.7 1317.36,1445.7 1320.78,1445.7 1324.2,1445.7 1327.62,1445.7 1331.04,1445.69 1334.45,1445.69 1337.87,1445.69 1341.29,1445.69 1344.71,1445.68 1348.12,1445.68 1351.54,1445.68 1354.96,1445.67 1358.38,1445.67 1361.8,1445.67 1365.21,1445.66 1368.63,1445.66 1372.05,1445.65 1375.47,1445.65 1378.88,1445.64 1382.3,1445.64 1385.72,1445.64 1389.14,1445.63 1392.56,1445.63 1395.97,1445.62 1399.39,1445.61 1402.81,1445.61 1406.23,1445.6 1409.65,1445.6 1413.06,1445.59 1416.48,1445.59 1419.9,1445.58 1423.32,1445.57 1426.73,1445.57 1430.15,1445.56 1433.57,1445.55 1436.99,1445.55 1440.41,1445.54 1443.82,1445.53 1447.24,1445.52 1450.66,1445.52 1454.08,1445.51 1457.49,1445.5 1460.91,1445.49 1464.33,1445.48 1467.75,1445.48 1471.17,1445.47 1474.58,1445.46 1478,1445.45 1481.42,1445.44 1484.84,1445.43 1488.25,1445.42 1491.67,1445.41 1495.09,1445.4 1498.51,1445.39 1501.93,1445.38 1505.34,1445.37 1508.76,1445.36 1512.18,1445.35 1515.6,1445.34 1519.02,1445.33 1522.43,1445.32 1525.85,1445.31 1529.27,1445.29 1532.69,1445.28 1536.1,1445.27 1539.52,1445.26 1542.94,1445.24 1546.36,1445.23 1549.78,1445.22 1553.19,1445.21 1556.61,1445.19 1560.03,1445.18 1563.45,1445.17 1566.86,1445.15 1570.28,1445.14 1573.7,1445.12 1577.12,1445.11 1580.54,1445.09 1583.95,1445.08 1587.37,1445.06 1590.79,1445.05 1594.21,1445.03 1597.62,1445.02 1601.04,1445 1604.46,1444.98 1607.88,1444.97 1611.3,1444.95 1614.71,1444.93 1618.13,1444.92 1621.55,1444.9 1624.97,1444.88 1628.39,1444.86 1631.8,1444.84 1635.22,1444.83 1638.64,1444.81 1642.06,1444.79 1645.47,1444.77 1648.89,1444.75 1652.31,1444.73 1655.73,1444.71 1659.15,1444.69 1662.56,1444.67 1665.98,1444.64 1669.4,1444.62 1672.82,1444.6 1676.23,1444.58 1679.65,1444.56 1683.07,1444.53 1686.49,1444.51 1689.91,1444.49 1693.32,1444.46 1696.74,1444.44 1700.16,1444.42 1703.58,1444.39 1706.99,1444.37 1710.41,1444.34 1713.83,1444.31 1717.25,1444.29 1720.67,1444.26 1724.08,1444.23 1727.5,1444.21 1730.92,1444.18 1734.34,1444.15 1737.76,1444.12 1741.17,1444.09 1744.59,1444.06 1748.01,1444.03 1751.43,1444 1754.84,1443.97 1758.26,1443.94 1761.68,1443.91 1765.1,1443.88 1768.52,1443.84 1771.93,1443.81 1775.35,1443.78 1778.77,1443.74 1782.19,1443.71 1785.6,1443.67 1789.02,1443.64 1792.44,1443.6 1795.86,1443.57 1799.28,1443.53 1802.69,1443.49 1806.11,1443.45 1809.53,1443.41 1812.95,1443.37 1816.36,1443.33 1819.78,1443.29 1823.2,1443.25 1826.62,1443.21 1830.04,1443.16 1833.45,1443.12 1836.87,1443.08 1840.29,1443.03 1843.71,1442.99 1847.12,1442.94 1850.54,1442.89 1853.96,1442.84 1857.38,1442.79 1860.8,1442.74 1864.21,1442.69 1867.63,1442.64 1871.05,1442.59 1874.47,1442.54 1877.89,1442.48 1881.3,1442.43 1884.72,1442.37 1888.14,1442.31 1891.56,1442.26 1894.97,1442.2 1898.39,1442.14 1901.81,1442.08 1905.23,1442.01 1908.65,1441.95 1912.06,1441.89 1915.48,1441.82 1918.9,1441.75 1922.32,1441.68 1925.73,1441.61 1929.15,1441.54 1932.57,1441.47 1935.99,1441.4 1939.41,1441.32 1942.82,1441.24 1946.24,1441.17 1949.66,1441.09 1953.08,1441 1956.49,1440.92 1959.91,1440.84 1963.33,1440.75 1966.75,1440.66 1970.17,1440.57 1973.58,1440.48 1977,1440.38 1980.42,1440.28 1983.84,1440.19 1987.26,1440.08 1990.67,1439.98 1994.09,1439.87 1997.51,1439.77 2000.93,1439.65 2004.34,1439.54 2007.76,1439.42 2011.18,1439.31 2014.6,1439.18 2018.02,1439.06 2021.43,1438.93 2024.85,1438.8 2028.27,1438.66 2031.69,1438.52 2035.1,1438.38 2038.52,1438.23 2041.94,1438.08 2045.36,1437.93 2048.78,1437.77 2052.19,1437.61 2055.61,1437.44 2059.03,1437.26 2062.45,1437.08 2065.86,1436.9 2069.28,1436.71 2072.7,1436.52 2076.12,1436.31 2079.54,1436.11 2082.95,1435.89 2086.37,1435.67 2089.79,1435.44 2093.21,1435.2 2096.63,1434.95 2100.04,1434.7 2103.46,1434.44 2106.88,1434.16 2110.3,1433.88 2113.71,1433.58 2117.13,1433.28 2120.55,1432.96 2123.97,1432.63 2127.39,1432.28 2130.8,1431.92 2134.22,1431.54 2137.64,1431.15 2141.06,1430.74 2144.47,1430.31 2147.89,1429.86 2151.31,1429.39 2154.73,1428.89 2158.15,1428.37 2161.56,1427.82 2164.98,1427.24 2168.4,1426.63 2171.82,1425.99 2175.23,1425.3 2178.65,1424.58 2182.07,1423.81 2185.49,1422.99 2188.91,1422.12 2192.32,1421.18 2195.74,1420.18 2199.16,1419.1 2202.58,1417.94 2206,1416.69 2209.41,1415.33 2212.83,1413.86 2216.25,1412.25 2219.67,1410.48 2223.08,1408.54 2226.5,1406.4 2229.92,1404.01 2233.34,1401.34 2236.76,1398.33 2240.17,1394.92 2243.59,1391.02 2247.01,1386.51 2250.43,1381.25 2253.84,1375.01 2257.26,1367.51 2260.68,1358.31 2264.1,1346.78 2267.52,1331.88 2270.93,1311.89 2274.35,1283.64 2277.77,1240.67 2281.19,1167.25 2284.6,1011.7 2288.02,351.731 2291.44,87.9763 "></polyline>
<path clip-path="url(#clip450)" d="M2011.46 198.898 L2280.54 198.898 L2280.54 95.2176 L2011.46 95.2176  Z" fill="#ffffff" fill-rule="evenodd" fill-opacity="1"></path>
<polyline clip-path="url(#clip450)" style="stroke:#000000; stroke-linecap:round; stroke-linejoin:round; stroke-width:4; stroke-opacity:1; fill:none" points="2011.46,198.898 2280.54,198.898 2280.54,95.2176 2011.46,95.2176 2011.46,198.898 "></polyline>
<polyline clip-path="url(#clip450)" style="stroke:#009af9; stroke-linecap:round; stroke-linejoin:round; stroke-width:4; stroke-opacity:1; fill:none" points="2035.53,147.058 2179.97,147.058 "></polyline>
<path clip-path="url(#clip450)" d="M2217.88 166.745 Q2216.07 171.375 2214.36 172.787 Q2212.65 174.199 2209.78 174.199 L2206.38 174.199 L2206.38 170.634 L2208.88 170.634 Q2210.63 170.634 2211.61 169.8 Q2212.58 168.967 2213.76 165.865 L2214.52 163.921 L2204.04 138.412 L2208.55 138.412 L2216.65 158.689 L2224.76 138.412 L2229.27 138.412 L2217.88 166.745 Z" fill="#000000" fill-rule="nonzero" fill-opacity="1"></path><path clip-path="url(#clip450)" d="M2236.56 160.402 L2244.2 160.402 L2244.2 134.037 L2235.89 135.703 L2235.89 131.444 L2244.15 129.778 L2248.83 129.778 L2248.83 160.402 L2256.47 160.402 L2256.47 164.338 L2236.56 164.338 L2236.56 160.402 Z" fill="#000000" fill-rule="nonzero" fill-opacity="1"></path></svg>