<svg xmlns="http://www.w3.org/2000/svg" xmlns:xlink="http://www.w3.org/1999/xlink" width="600" height="400" viewBox="0 0 2400 1600">
<defs>
  <clipPath id="clip370">
    <rect x="0" y="0" width="2400" height="1600"></rect>
  </clipPath>
</defs>
<path clip-path="url(#clip370)" d="M0 1600 L2400 1600 L2400 0 L0 0  Z" fill="#ffffff" fill-rule="evenodd" fill-opacity="1"></path>
<defs>
  <clipPath id="clip371">
    <rect x="480" y="0" width="1681" height="1600"></rect>
  </clipPath>
</defs>
<path clip-path="url(#clip370)" d="M186.274 1486.45 L2352.76 1486.45 L2352.76 47.2441 L186.274 47.2441  Z" fill="#ffffff" fill-rule="evenodd" fill-opacity="1"></path>
<defs>
  <clipPath id="clip372">
    <rect x="186" y="47" width="2167" height="1440"></rect>
  </clipPath>
</defs>
<polyline clip-path="url(#clip372)" style="stroke:#000000; stroke-linecap:round; stroke-linejoin:round; stroke-width:2; stroke-opacity:0.1; fill:none" points="237.267,1486.45 237.267,47.2441 "></polyline>
<polyline clip-path="url(#clip372)" style="stroke:#000000; stroke-linecap:round; stroke-linejoin:round; stroke-width:2; stroke-opacity:0.1; fill:none" points="753.391,1486.45 753.391,47.2441 "></polyline>
<polyline clip-path="url(#clip372)" style="stroke:#000000; stroke-linecap:round; stroke-linejoin:round; stroke-width:2; stroke-opacity:0.1; fill:none" points="1269.51,1486.45 1269.51,47.2441 "></polyline>
<polyline clip-path="url(#clip372)" style="stroke:#000000; stroke-linecap:round; stroke-linejoin:round; stroke-width:2; stroke-opacity:0.1; fill:none" points="1785.64,1486.45 1785.64,47.2441 "></polyline>
<polyline clip-path="url(#clip372)" style="stroke:#000000; stroke-linecap:round; stroke-linejoin:round; stroke-width:2; stroke-opacity:0.1; fill:none" points="2301.76,1486.45 2301.76,47.2441 "></polyline>
<polyline clip-path="url(#clip370)" style="stroke:#000000; stroke-linecap:round; stroke-linejoin:round; stroke-width:4; stroke-opacity:1; fill:none" points="186.274,1486.45 2352.76,1486.45 "></polyline>
<polyline clip-path="url(#clip370)" style="stroke:#000000; stroke-linecap:round; stroke-linejoin:round; stroke-width:4; stroke-opacity:1; fill:none" points="237.267,1486.45 237.267,1467.55 "></polyline>
<polyline clip-path="url(#clip370)" style="stroke:#000000; stroke-linecap:round; stroke-linejoin:round; stroke-width:4; stroke-opacity:1; fill:none" points="753.391,1486.45 753.391,1467.55 "></polyline>
<polyline clip-path="url(#clip370)" style="stroke:#000000; stroke-linecap:round; stroke-linejoin:round; stroke-width:4; stroke-opacity:1; fill:none" points="1269.51,1486.45 1269.51,1467.55 "></polyline>
<polyline clip-path="url(#clip370)" style="stroke:#000000; stroke-linecap:round; stroke-linejoin:round; stroke-width:4; stroke-opacity:1; fill:none" points="1785.64,1486.45 1785.64,1467.55 "></polyline>
<polyline clip-path="url(#clip370)" style="stroke:#000000; stroke-linecap:round; stroke-linejoin:round; stroke-width:4; stroke-opacity:1; fill:none" points="2301.76,1486.45 2301.76,1467.55 "></polyline>
<path clip-path="url(#clip370)" d="M237.267 1517.37 Q233.656 1517.37 231.827 1520.93 Q230.022 1524.47 230.022 1531.6 Q230.022 1538.71 231.827 1542.27 Q233.656 1545.82 237.267 1545.82 Q240.901 1545.82 242.707 1542.27 Q244.536 1538.71 244.536 1531.6 Q244.536 1524.47 242.707 1520.93 Q240.901 1517.37 237.267 1517.37 M237.267 1513.66 Q243.077 1513.66 246.133 1518.27 Q249.211 1522.85 249.211 1531.6 Q249.211 1540.33 246.133 1544.94 Q243.077 1549.52 237.267 1549.52 Q231.457 1549.52 228.378 1544.94 Q225.323 1540.33 225.323 1531.6 Q225.323 1522.85 228.378 1518.27 Q231.457 1513.66 237.267 1513.66 Z" fill="#000000" fill-rule="nonzero" fill-opacity="1"></path><path clip-path="url(#clip370)" d="M728.09 1514.29 L746.447 1514.29 L746.447 1518.22 L732.373 1518.22 L732.373 1526.7 Q733.391 1526.35 734.41 1526.19 Q735.428 1526 736.447 1526 Q742.234 1526 745.613 1529.17 Q748.993 1532.34 748.993 1537.76 Q748.993 1543.34 745.521 1546.44 Q742.048 1549.52 735.729 1549.52 Q733.553 1549.52 731.285 1549.15 Q729.039 1548.78 726.632 1548.04 L726.632 1543.34 Q728.715 1544.47 730.937 1545.03 Q733.16 1545.58 735.636 1545.58 Q739.641 1545.58 741.979 1543.48 Q744.317 1541.37 744.317 1537.76 Q744.317 1534.15 741.979 1532.04 Q739.641 1529.94 735.636 1529.94 Q733.761 1529.94 731.886 1530.35 Q730.035 1530.77 728.09 1531.65 L728.09 1514.29 Z" fill="#000000" fill-rule="nonzero" fill-opacity="1"></path><path clip-path="url(#clip370)" d="M768.206 1517.37 Q764.595 1517.37 762.766 1520.93 Q760.96 1524.47 760.96 1531.6 Q760.96 1538.71 762.766 1542.27 Q764.595 1545.82 768.206 1545.82 Q771.84 1545.82 773.646 1542.27 Q775.474 1538.71 775.474 1531.6 Q775.474 1524.47 773.646 1520.93 Q771.84 1517.37 768.206 1517.37 M768.206 1513.66 Q774.016 1513.66 777.071 1518.27 Q780.15 1522.85 780.15 1531.6 Q780.15 1540.33 777.071 1544.94 Q774.016 1549.52 768.206 1549.52 Q762.396 1549.52 759.317 1544.94 Q756.261 1540.33 756.261 1531.6 Q756.261 1522.85 759.317 1518.27 Q762.396 1513.66 768.206 1513.66 Z" fill="#000000" fill-rule="nonzero" fill-opacity="1"></path><path clip-path="url(#clip370)" d="M1229.12 1544.91 L1236.76 1544.91 L1236.76 1518.55 L1228.45 1520.21 L1228.45 1515.95 L1236.71 1514.29 L1241.39 1514.29 L1241.39 1544.91 L1249.03 1544.91 L1249.03 1548.85 L1229.12 1548.85 L1229.12 1544.91 Z" fill="#000000" fill-rule="nonzero" fill-opacity="1"></path><path clip-path="url(#clip370)" d="M1268.47 1517.37 Q1264.86 1517.37 1263.03 1520.93 Q1261.23 1524.47 1261.23 1531.6 Q1261.23 1538.71 1263.03 1542.27 Q1264.86 1545.82 1268.47 1545.82 Q1272.11 1545.82 1273.91 1542.27 Q1275.74 1538.71 1275.74 1531.6 Q1275.74 1524.47 1273.91 1520.93 Q1272.11 1517.37 1268.47 1517.37 M1268.47 1513.66 Q1274.28 1513.66 1277.34 1518.27 Q1280.42 1522.85 1280.42 1531.6 Q1280.42 1540.33 1277.34 1544.94 Q1274.28 1549.52 1268.47 1549.52 Q1262.66 1549.52 1259.58 1544.94 Q1256.53 1540.33 1256.53 1531.6 Q1256.53 1522.85 1259.58 1518.27 Q1262.66 1513.66 1268.47 1513.66 Z" fill="#000000" fill-rule="nonzero" fill-opacity="1"></path><path clip-path="url(#clip370)" d="M1298.64 1517.37 Q1295.02 1517.37 1293.2 1520.93 Q1291.39 1524.47 1291.39 1531.6 Q1291.39 1538.71 1293.2 1542.27 Q1295.02 1545.82 1298.64 1545.82 Q1302.27 1545.82 1304.07 1542.27 Q1305.9 1538.71 1305.9 1531.6 Q1305.9 1524.47 1304.07 1520.93 Q1302.27 1517.37 1298.64 1517.37 M1298.64 1513.66 Q1304.45 1513.66 1307.5 1518.27 Q1310.58 1522.85 1310.58 1531.6 Q1310.58 1540.33 1307.5 1544.94 Q1304.45 1549.52 1298.64 1549.52 Q1292.83 1549.52 1289.75 1544.94 Q1286.69 1540.33 1286.69 1531.6 Q1286.69 1522.85 1289.75 1518.27 Q1292.83 1513.66 1298.64 1513.66 Z" fill="#000000" fill-rule="nonzero" fill-opacity="1"></path><path clip-path="url(#clip370)" d="M1745.25 1544.91 L1752.88 1544.91 L1752.88 1518.55 L1744.57 1520.21 L1744.57 1515.95 L1752.84 1514.29 L1757.51 1514.29 L1757.51 1544.91 L1765.15 1544.91 L1765.15 1548.85 L1745.25 1548.85 L1745.25 1544.91 Z" fill="#000000" fill-rule="nonzero" fill-opacity="1"></path><path clip-path="url(#clip370)" d="M1774.64 1514.29 L1793 1514.29 L1793 1518.22 L1778.93 1518.22 L1778.93 1526.7 Q1779.94 1526.35 1780.96 1526.19 Q1781.98 1526 1783 1526 Q1788.79 1526 1792.17 1529.17 Q1795.55 1532.34 1795.55 1537.76 Q1795.55 1543.34 1792.07 1546.44 Q1788.6 1549.52 1782.28 1549.52 Q1780.11 1549.52 1777.84 1549.15 Q1775.59 1548.78 1773.19 1548.04 L1773.19 1543.34 Q1775.27 1544.47 1777.49 1545.03 Q1779.71 1545.58 1782.19 1545.58 Q1786.19 1545.58 1788.53 1543.48 Q1790.87 1541.37 1790.87 1537.76 Q1790.87 1534.15 1788.53 1532.04 Q1786.19 1529.94 1782.19 1529.94 Q1780.31 1529.94 1778.44 1530.35 Q1776.59 1530.77 1774.64 1531.65 L1774.64 1514.29 Z" fill="#000000" fill-rule="nonzero" fill-opacity="1"></path><path clip-path="url(#clip370)" d="M1814.76 1517.37 Q1811.15 1517.37 1809.32 1520.93 Q1807.51 1524.47 1807.51 1531.6 Q1807.51 1538.71 1809.32 1542.27 Q1811.15 1545.82 1814.76 1545.82 Q1818.39 1545.82 1820.2 1542.27 Q1822.03 1538.71 1822.03 1531.6 Q1822.03 1524.47 1820.2 1520.93 Q1818.39 1517.37 1814.76 1517.37 M1814.76 1513.66 Q1820.57 1513.66 1823.62 1518.27 Q1826.7 1522.85 1826.7 1531.6 Q1826.7 1540.33 1823.62 1544.94 Q1820.57 1549.52 1814.76 1549.52 Q1808.95 1549.52 1805.87 1544.94 Q1802.81 1540.33 1802.81 1531.6 Q1802.81 1522.85 1805.87 1518.27 Q1808.95 1513.66 1814.76 1513.66 Z" fill="#000000" fill-rule="nonzero" fill-opacity="1"></path><path clip-path="url(#clip370)" d="M2265.46 1544.91 L2281.77 1544.91 L2281.77 1548.85 L2259.83 1548.85 L2259.83 1544.91 Q2262.49 1542.16 2267.08 1537.53 Q2271.68 1532.88 2272.86 1531.53 Q2275.11 1529.01 2275.99 1527.27 Q2276.89 1525.51 2276.89 1523.82 Q2276.89 1521.07 2274.95 1519.33 Q2273.02 1517.6 2269.92 1517.6 Q2267.72 1517.6 2265.27 1518.36 Q2262.84 1519.13 2260.06 1520.68 L2260.06 1515.95 Q2262.89 1514.82 2265.34 1514.24 Q2267.79 1513.66 2269.83 1513.66 Q2275.2 1513.66 2278.39 1516.35 Q2281.59 1519.03 2281.59 1523.52 Q2281.59 1525.65 2280.78 1527.57 Q2279.99 1529.47 2277.89 1532.07 Q2277.31 1532.74 2274.21 1535.95 Q2271.1 1539.15 2265.46 1544.91 Z" fill="#000000" fill-rule="nonzero" fill-opacity="1"></path><path clip-path="url(#clip370)" d="M2301.59 1517.37 Q2297.98 1517.37 2296.15 1520.93 Q2294.34 1524.47 2294.34 1531.6 Q2294.34 1538.71 2296.15 1542.27 Q2297.98 1545.82 2301.59 1545.82 Q2305.22 1545.82 2307.03 1542.27 Q2308.86 1538.71 2308.86 1531.6 Q2308.86 1524.47 2307.03 1520.93 Q2305.22 1517.37 2301.59 1517.37 M2301.59 1513.66 Q2307.4 1513.66 2310.45 1518.27 Q2313.53 1522.85 2313.53 1531.6 Q2313.53 1540.33 2310.45 1544.94 Q2307.4 1549.52 2301.59 1549.52 Q2295.78 1549.52 2292.7 1544.94 Q2289.64 1540.33 2289.64 1531.6 Q2289.64 1522.85 2292.7 1518.27 Q2295.78 1513.66 2301.59 1513.66 Z" fill="#000000" fill-rule="nonzero" fill-opacity="1"></path><path clip-path="url(#clip370)" d="M2331.75 1517.37 Q2328.14 1517.37 2326.31 1520.93 Q2324.51 1524.47 2324.51 1531.6 Q2324.51 1538.71 2326.31 1542.27 Q2328.14 1545.82 2331.75 1545.82 Q2335.39 1545.82 2337.19 1542.27 Q2339.02 1538.71 2339.02 1531.6 Q2339.02 1524.47 2337.19 1520.93 Q2335.39 1517.37 2331.75 1517.37 M2331.75 1513.66 Q2337.56 1513.66 2340.62 1518.27 Q2343.7 1522.85 2343.7 1531.6 Q2343.7 1540.33 2340.62 1544.94 Q2337.56 1549.52 2331.75 1549.52 Q2325.94 1549.52 2322.86 1544.94 Q2319.81 1540.33 2319.81 1531.6 Q2319.81 1522.85 2322.86 1518.27 Q2325.94 1513.66 2331.75 1513.66 Z" fill="#000000" fill-rule="nonzero" fill-opacity="1"></path><polyline clip-path="url(#clip372)" style="stroke:#000000; stroke-linecap:round; stroke-linejoin:round; stroke-width:2; stroke-opacity:0.1; fill:none" points="186.274,1475.95 2352.76,1475.95 "></polyline>
<polyline clip-path="url(#clip372)" style="stroke:#000000; stroke-linecap:round; stroke-linejoin:round; stroke-width:2; stroke-opacity:0.1; fill:none" points="186.274,1232.58 2352.76,1232.58 "></polyline>
<polyline clip-path="url(#clip372)" style="stroke:#000000; stroke-linecap:round; stroke-linejoin:round; stroke-width:2; stroke-opacity:0.1; fill:none" points="186.274,989.214 2352.76,989.214 "></polyline>
<polyline clip-path="url(#clip372)" style="stroke:#000000; stroke-linecap:round; stroke-linejoin:round; stroke-width:2; stroke-opacity:0.1; fill:none" points="186.274,745.848 2352.76,745.848 "></polyline>
<polyline clip-path="url(#clip372)" style="stroke:#000000; stroke-linecap:round; stroke-linejoin:round; stroke-width:2; stroke-opacity:0.1; fill:none" points="186.274,502.482 2352.76,502.482 "></polyline>
<polyline clip-path="url(#clip372)" style="stroke:#000000; stroke-linecap:round; stroke-linejoin:round; stroke-width:2; stroke-opacity:0.1; fill:none" points="186.274,259.116 2352.76,259.116 "></polyline>
<polyline clip-path="url(#clip370)" style="stroke:#000000; stroke-linecap:round; stroke-linejoin:round; stroke-width:4; stroke-opacity:1; fill:none" points="186.274,1486.45 186.274,47.2441 "></polyline>
<polyline clip-path="url(#clip370)" style="stroke:#000000; stroke-linecap:round; stroke-linejoin:round; stroke-width:4; stroke-opacity:1; fill:none" points="186.274,1475.95 205.172,1475.95 "></polyline>
<polyline clip-path="url(#clip370)" style="stroke:#000000; stroke-linecap:round; stroke-linejoin:round; stroke-width:4; stroke-opacity:1; fill:none" points="186.274,1232.58 205.172,1232.58 "></polyline>
<polyline clip-path="url(#clip370)" style="stroke:#000000; stroke-linecap:round; stroke-linejoin:round; stroke-width:4; stroke-opacity:1; fill:none" points="186.274,989.214 205.172,989.214 "></polyline>
<polyline clip-path="url(#clip370)" style="stroke:#000000; stroke-linecap:round; stroke-linejoin:round; stroke-width:4; stroke-opacity:1; fill:none" points="186.274,745.848 205.172,745.848 "></polyline>
<polyline clip-path="url(#clip370)" style="stroke:#000000; stroke-linecap:round; stroke-linejoin:round; stroke-width:4; stroke-opacity:1; fill:none" points="186.274,502.482 205.172,502.482 "></polyline>
<polyline clip-path="url(#clip370)" style="stroke:#000000; stroke-linecap:round; stroke-linejoin:round; stroke-width:4; stroke-opacity:1; fill:none" points="186.274,259.116 205.172,259.116 "></polyline>
<path clip-path="url(#clip370)" d="M63.9319 1461.75 Q60.3208 1461.75 58.4921 1465.31 Q56.6865 1468.85 56.6865 1475.98 Q56.6865 1483.09 58.4921 1486.65 Q60.3208 1490.19 63.9319 1490.19 Q67.5661 1490.19 69.3717 1486.65 Q71.2004 1483.09 71.2004 1475.98 Q71.2004 1468.85 69.3717 1465.31 Q67.5661 1461.75 63.9319 1461.75 M63.9319 1458.04 Q69.742 1458.04 72.7976 1462.65 Q75.8763 1467.23 75.8763 1475.98 Q75.8763 1484.71 72.7976 1489.31 Q69.742 1493.9 63.9319 1493.9 Q58.1217 1493.9 55.043 1489.31 Q51.9875 1484.71 51.9875 1475.98 Q51.9875 1467.23 55.043 1462.65 Q58.1217 1458.04 63.9319 1458.04 Z" fill="#000000" fill-rule="nonzero" fill-opacity="1"></path><path clip-path="url(#clip370)" d="M84.0938 1487.35 L88.978 1487.35 L88.978 1493.23 L84.0938 1493.23 L84.0938 1487.35 Z" fill="#000000" fill-rule="nonzero" fill-opacity="1"></path><path clip-path="url(#clip370)" d="M103.191 1489.29 L119.51 1489.29 L119.51 1493.23 L97.566 1493.23 L97.566 1489.29 Q100.228 1486.54 104.811 1481.91 Q109.418 1477.25 110.598 1475.91 Q112.844 1473.39 113.723 1471.65 Q114.626 1469.89 114.626 1468.2 Q114.626 1465.45 112.682 1463.71 Q110.76 1461.98 107.658 1461.98 Q105.459 1461.98 103.006 1462.74 Q100.575 1463.5 97.7974 1465.06 L97.7974 1460.33 Q100.621 1459.2 103.075 1458.62 Q105.529 1458.04 107.566 1458.04 Q112.936 1458.04 116.131 1460.73 Q119.325 1463.41 119.325 1467.9 Q119.325 1470.03 118.515 1471.95 Q117.728 1473.85 115.621 1476.44 Q115.043 1477.12 111.941 1480.33 Q108.839 1483.53 103.191 1489.29 Z" fill="#000000" fill-rule="nonzero" fill-opacity="1"></path><path clip-path="url(#clip370)" d="M129.371 1458.67 L147.728 1458.67 L147.728 1462.6 L133.654 1462.6 L133.654 1471.07 Q134.672 1470.73 135.691 1470.56 Q136.709 1470.38 137.728 1470.38 Q143.515 1470.38 146.894 1473.55 Q150.274 1476.72 150.274 1482.14 Q150.274 1487.72 146.802 1490.82 Q143.33 1493.9 137.01 1493.9 Q134.834 1493.9 132.566 1493.53 Q130.32 1493.16 127.913 1492.42 L127.913 1487.72 Q129.996 1488.85 132.219 1489.41 Q134.441 1489.96 136.918 1489.96 Q140.922 1489.96 143.26 1487.86 Q145.598 1485.75 145.598 1482.14 Q145.598 1478.53 143.26 1476.42 Q140.922 1474.31 136.918 1474.31 Q135.043 1474.31 133.168 1474.73 Q131.316 1475.15 129.371 1476.03 L129.371 1458.67 Z" fill="#000000" fill-rule="nonzero" fill-opacity="1"></path><path clip-path="url(#clip370)" d="M62.9365 1218.38 Q59.3254 1218.38 57.4967 1221.94 Q55.6912 1225.49 55.6912 1232.61 Q55.6912 1239.72 57.4967 1243.29 Q59.3254 1246.83 62.9365 1246.83 Q66.5707 1246.83 68.3763 1243.29 Q70.205 1239.72 70.205 1232.61 Q70.205 1225.49 68.3763 1221.94 Q66.5707 1218.38 62.9365 1218.38 M62.9365 1214.68 Q68.7467 1214.68 71.8022 1219.28 Q74.8809 1223.87 74.8809 1232.61 Q74.8809 1241.34 71.8022 1245.95 Q68.7467 1250.53 62.9365 1250.53 Q57.1264 1250.53 54.0477 1245.95 Q50.9921 1241.34 50.9921 1232.61 Q50.9921 1223.87 54.0477 1219.28 Q57.1264 1214.68 62.9365 1214.68 Z" fill="#000000" fill-rule="nonzero" fill-opacity="1"></path><path clip-path="url(#clip370)" d="M83.0984 1243.98 L87.9827 1243.98 L87.9827 1249.86 L83.0984 1249.86 L83.0984 1243.98 Z" fill="#000000" fill-rule="nonzero" fill-opacity="1"></path><path clip-path="url(#clip370)" d="M112.334 1231.23 Q115.691 1231.94 117.566 1234.21 Q119.464 1236.48 119.464 1239.81 Q119.464 1244.93 115.945 1247.73 Q112.427 1250.53 105.946 1250.53 Q103.77 1250.53 101.455 1250.09 Q99.1632 1249.68 96.7095 1248.82 L96.7095 1244.3 Q98.6539 1245.44 100.969 1246.02 Q103.284 1246.6 105.807 1246.6 Q110.205 1246.6 112.496 1244.86 Q114.811 1243.12 114.811 1239.81 Q114.811 1236.76 112.658 1235.05 Q110.529 1233.31 106.709 1233.31 L102.682 1233.31 L102.682 1229.47 L106.895 1229.47 Q110.344 1229.47 112.172 1228.1 Q114.001 1226.71 114.001 1224.12 Q114.001 1221.46 112.103 1220.05 Q110.228 1218.61 106.709 1218.61 Q104.788 1218.61 102.589 1219.03 Q100.39 1219.44 97.7511 1220.32 L97.7511 1216.16 Q100.413 1215.42 102.728 1215.05 Q105.066 1214.68 107.126 1214.68 Q112.45 1214.68 115.552 1217.11 Q118.654 1219.51 118.654 1223.63 Q118.654 1226.5 117.01 1228.49 Q115.367 1230.46 112.334 1231.23 Z" fill="#000000" fill-rule="nonzero" fill-opacity="1"></path><path clip-path="url(#clip370)" d="M138.33 1218.38 Q134.719 1218.38 132.89 1221.94 Q131.084 1225.49 131.084 1232.61 Q131.084 1239.72 132.89 1243.29 Q134.719 1246.83 138.33 1246.83 Q141.964 1246.83 143.769 1243.29 Q145.598 1239.72 145.598 1232.61 Q145.598 1225.49 143.769 1221.94 Q141.964 1218.38 138.33 1218.38 M138.33 1214.68 Q144.14 1214.68 147.195 1219.28 Q150.274 1223.87 150.274 1232.61 Q150.274 1241.34 147.195 1245.95 Q144.14 1250.53 138.33 1250.53 Q132.519 1250.53 129.441 1245.95 Q126.385 1241.34 126.385 1232.61 Q126.385 1223.87 129.441 1219.28 Q132.519 1214.68 138.33 1214.68 Z" fill="#000000" fill-rule="nonzero" fill-opacity="1"></path><path clip-path="url(#clip370)" d="M63.9319 975.013 Q60.3208 975.013 58.4921 978.578 Q56.6865 982.119 56.6865 989.249 Q56.6865 996.355 58.4921 999.92 Q60.3208 1003.46 63.9319 1003.46 Q67.5661 1003.46 69.3717 999.92 Q71.2004 996.355 71.2004 989.249 Q71.2004 982.119 69.3717 978.578 Q67.5661 975.013 63.9319 975.013 M63.9319 971.309 Q69.742 971.309 72.7976 975.916 Q75.8763 980.499 75.8763 989.249 Q75.8763 997.976 72.7976 1002.58 Q69.742 1007.17 63.9319 1007.17 Q58.1217 1007.17 55.043 1002.58 Q51.9875 997.976 51.9875 989.249 Q51.9875 980.499 55.043 975.916 Q58.1217 971.309 63.9319 971.309 Z" fill="#000000" fill-rule="nonzero" fill-opacity="1"></path><path clip-path="url(#clip370)" d="M84.0938 1000.61 L88.978 1000.61 L88.978 1006.49 L84.0938 1006.49 L84.0938 1000.61 Z" fill="#000000" fill-rule="nonzero" fill-opacity="1"></path><path clip-path="url(#clip370)" d="M113.33 987.86 Q116.686 988.578 118.561 990.846 Q120.459 993.115 120.459 996.448 Q120.459 1001.56 116.941 1004.36 Q113.422 1007.17 106.941 1007.17 Q104.765 1007.17 102.45 1006.73 Q100.159 1006.31 97.7048 1005.45 L97.7048 1000.94 Q99.6493 1002.07 101.964 1002.65 Q104.279 1003.23 106.802 1003.23 Q111.2 1003.23 113.492 1001.49 Q115.807 999.758 115.807 996.448 Q115.807 993.392 113.654 991.679 Q111.524 989.943 107.705 989.943 L103.677 989.943 L103.677 986.101 L107.89 986.101 Q111.339 986.101 113.168 984.735 Q114.996 983.346 114.996 980.754 Q114.996 978.092 113.098 976.679 Q111.223 975.244 107.705 975.244 Q105.783 975.244 103.584 975.661 Q101.385 976.078 98.7465 976.957 L98.7465 972.791 Q101.409 972.05 103.723 971.68 Q106.061 971.309 108.121 971.309 Q113.445 971.309 116.547 973.74 Q119.649 976.147 119.649 980.267 Q119.649 983.138 118.006 985.129 Q116.362 987.096 113.33 987.86 Z" fill="#000000" fill-rule="nonzero" fill-opacity="1"></path><path clip-path="url(#clip370)" d="M129.371 971.934 L147.728 971.934 L147.728 975.869 L133.654 975.869 L133.654 984.341 Q134.672 983.994 135.691 983.832 Q136.709 983.647 137.728 983.647 Q143.515 983.647 146.894 986.818 Q150.274 989.99 150.274 995.406 Q150.274 1000.98 146.802 1004.09 Q143.33 1007.17 137.01 1007.17 Q134.834 1007.17 132.566 1006.8 Q130.32 1006.42 127.913 1005.68 L127.913 1000.98 Q129.996 1002.12 132.219 1002.67 Q134.441 1003.23 136.918 1003.23 Q140.922 1003.23 143.26 1001.12 Q145.598 999.017 145.598 995.406 Q145.598 991.795 143.26 989.689 Q140.922 987.582 136.918 987.582 Q135.043 987.582 133.168 987.999 Q131.316 988.416 129.371 989.295 L129.371 971.934 Z" fill="#000000" fill-rule="nonzero" fill-opacity="1"></path><path clip-path="url(#clip370)" d="M62.9365 731.647 Q59.3254 731.647 57.4967 735.211 Q55.6912 738.753 55.6912 745.883 Q55.6912 752.989 57.4967 756.554 Q59.3254 760.096 62.9365 760.096 Q66.5707 760.096 68.3763 756.554 Q70.205 752.989 70.205 745.883 Q70.205 738.753 68.3763 735.211 Q66.5707 731.647 62.9365 731.647 M62.9365 727.943 Q68.7467 727.943 71.8022 732.549 Q74.8809 737.133 74.8809 745.883 Q74.8809 754.61 71.8022 759.216 Q68.7467 763.799 62.9365 763.799 Q57.1264 763.799 54.0477 759.216 Q50.9921 754.61 50.9921 745.883 Q50.9921 737.133 54.0477 732.549 Q57.1264 727.943 62.9365 727.943 Z" fill="#000000" fill-rule="nonzero" fill-opacity="1"></path><path clip-path="url(#clip370)" d="M83.0984 757.248 L87.9827 757.248 L87.9827 763.128 L83.0984 763.128 L83.0984 757.248 Z" fill="#000000" fill-rule="nonzero" fill-opacity="1"></path><path clip-path="url(#clip370)" d="M111.015 732.642 L99.2095 751.091 L111.015 751.091 L111.015 732.642 M109.788 728.568 L115.668 728.568 L115.668 751.091 L120.598 751.091 L120.598 754.98 L115.668 754.98 L115.668 763.128 L111.015 763.128 L111.015 754.98 L95.4132 754.98 L95.4132 750.466 L109.788 728.568 Z" fill="#000000" fill-rule="nonzero" fill-opacity="1"></path><path clip-path="url(#clip370)" d="M138.33 731.647 Q134.719 731.647 132.89 735.211 Q131.084 738.753 131.084 745.883 Q131.084 752.989 132.89 756.554 Q134.719 760.096 138.33 760.096 Q141.964 760.096 143.769 756.554 Q145.598 752.989 145.598 745.883 Q145.598 738.753 143.769 735.211 Q141.964 731.647 138.33 731.647 M138.33 727.943 Q144.14 727.943 147.195 732.549 Q150.274 737.133 150.274 745.883 Q150.274 754.61 147.195 759.216 Q144.14 763.799 138.33 763.799 Q132.519 763.799 129.441 759.216 Q126.385 754.61 126.385 745.883 Q126.385 737.133 129.441 732.549 Q132.519 727.943 138.33 727.943 Z" fill="#000000" fill-rule="nonzero" fill-opacity="1"></path><path clip-path="url(#clip370)" d="M63.9319 488.281 Q60.3208 488.281 58.4921 491.845 Q56.6865 495.387 56.6865 502.517 Q56.6865 509.623 58.4921 513.188 Q60.3208 516.73 63.9319 516.73 Q67.5661 516.73 69.3717 513.188 Q71.2004 509.623 71.2004 502.517 Q71.2004 495.387 69.3717 491.845 Q67.5661 488.281 63.9319 488.281 M63.9319 484.577 Q69.742 484.577 72.7976 489.183 Q75.8763 493.767 75.8763 502.517 Q75.8763 511.243 72.7976 515.85 Q69.742 520.433 63.9319 520.433 Q58.1217 520.433 55.043 515.85 Q51.9875 511.243 51.9875 502.517 Q51.9875 493.767 55.043 489.183 Q58.1217 484.577 63.9319 484.577 Z" fill="#000000" fill-rule="nonzero" fill-opacity="1"></path><path clip-path="url(#clip370)" d="M84.0938 513.882 L88.978 513.882 L88.978 519.762 L84.0938 519.762 L84.0938 513.882 Z" fill="#000000" fill-rule="nonzero" fill-opacity="1"></path><path clip-path="url(#clip370)" d="M112.01 489.276 L100.205 507.725 L112.01 507.725 L112.01 489.276 M110.783 485.202 L116.663 485.202 L116.663 507.725 L121.594 507.725 L121.594 511.614 L116.663 511.614 L116.663 519.762 L112.01 519.762 L112.01 511.614 L96.4085 511.614 L96.4085 507.1 L110.783 485.202 Z" fill="#000000" fill-rule="nonzero" fill-opacity="1"></path><path clip-path="url(#clip370)" d="M129.371 485.202 L147.728 485.202 L147.728 489.137 L133.654 489.137 L133.654 497.609 Q134.672 497.262 135.691 497.1 Q136.709 496.915 137.728 496.915 Q143.515 496.915 146.894 500.086 Q150.274 503.257 150.274 508.674 Q150.274 514.253 146.802 517.355 Q143.33 520.433 137.01 520.433 Q134.834 520.433 132.566 520.063 Q130.32 519.692 127.913 518.952 L127.913 514.253 Q129.996 515.387 132.219 515.942 Q134.441 516.498 136.918 516.498 Q140.922 516.498 143.26 514.392 Q145.598 512.285 145.598 508.674 Q145.598 505.063 143.26 502.956 Q140.922 500.85 136.918 500.85 Q135.043 500.85 133.168 501.267 Q131.316 501.683 129.371 502.563 L129.371 485.202 Z" fill="#000000" fill-rule="nonzero" fill-opacity="1"></path><path clip-path="url(#clip370)" d="M62.9365 244.914 Q59.3254 244.914 57.4967 248.479 Q55.6912 252.021 55.6912 259.151 Q55.6912 266.257 57.4967 269.822 Q59.3254 273.363 62.9365 273.363 Q66.5707 273.363 68.3763 269.822 Q70.205 266.257 70.205 259.151 Q70.205 252.021 68.3763 248.479 Q66.5707 244.914 62.9365 244.914 M62.9365 241.211 Q68.7467 241.211 71.8022 245.817 Q74.8809 250.401 74.8809 259.151 Q74.8809 267.877 71.8022 272.484 Q68.7467 277.067 62.9365 277.067 Q57.1264 277.067 54.0477 272.484 Q50.9921 267.877 50.9921 259.151 Q50.9921 250.401 54.0477 245.817 Q57.1264 241.211 62.9365 241.211 Z" fill="#000000" fill-rule="nonzero" fill-opacity="1"></path><path clip-path="url(#clip370)" d="M83.0984 270.516 L87.9827 270.516 L87.9827 276.396 L83.0984 276.396 L83.0984 270.516 Z" fill="#000000" fill-rule="nonzero" fill-opacity="1"></path><path clip-path="url(#clip370)" d="M98.2141 241.836 L116.57 241.836 L116.57 245.771 L102.496 245.771 L102.496 254.243 Q103.515 253.896 104.534 253.734 Q105.552 253.549 106.571 253.549 Q112.358 253.549 115.737 256.72 Q119.117 259.891 119.117 265.308 Q119.117 270.887 115.645 273.988 Q112.172 277.067 105.853 277.067 Q103.677 277.067 101.409 276.697 Q99.1632 276.326 96.7558 275.586 L96.7558 270.887 Q98.8391 272.021 101.061 272.576 Q103.284 273.132 105.76 273.132 Q109.765 273.132 112.103 271.025 Q114.441 268.919 114.441 265.308 Q114.441 261.697 112.103 259.59 Q109.765 257.484 105.76 257.484 Q103.885 257.484 102.01 257.901 Q100.159 258.317 98.2141 259.197 L98.2141 241.836 Z" fill="#000000" fill-rule="nonzero" fill-opacity="1"></path><path clip-path="url(#clip370)" d="M138.33 244.914 Q134.719 244.914 132.89 248.479 Q131.084 252.021 131.084 259.151 Q131.084 266.257 132.89 269.822 Q134.719 273.363 138.33 273.363 Q141.964 273.363 143.769 269.822 Q145.598 266.257 145.598 259.151 Q145.598 252.021 143.769 248.479 Q141.964 244.914 138.33 244.914 M138.33 241.211 Q144.14 241.211 147.195 245.817 Q150.274 250.401 150.274 259.151 Q150.274 267.877 147.195 272.484 Q144.14 277.067 138.33 277.067 Q132.519 277.067 129.441 272.484 Q126.385 267.877 126.385 259.151 Q126.385 250.401 129.441 245.817 Q132.519 241.211 138.33 241.211 Z" fill="#000000" fill-rule="nonzero" fill-opacity="1"></path><polyline clip-path="url(#clip372)" style="stroke:#009af9; stroke-linecap:round; stroke-linejoin:round; stroke-width:4; stroke-opacity:1; fill:none" points="247.59,87.9763 257.912,354.056 268.234,1016.5 278.557,1172.71 288.879,1246.46 299.202,1289.64 309.524,1318.04 319.847,1338.15 330.169,1353.14 340.492,1364.75 350.814,1374.01 361.137,1381.56 371.459,1387.85 381.782,1393.16 392.104,1397.71 402.427,1401.64 412.749,1405.08 423.072,1408.12 433.394,1410.81 443.717,1413.22 454.039,1415.39 464.362,1417.35 474.684,1419.13 485.007,1420.76 495.329,1422.25 505.652,1423.62 515.974,1424.88 526.296,1426.05 536.619,1427.14 546.941,1428.15 557.264,1429.09 567.586,1429.97 577.909,1430.79 588.231,1431.57 598.554,1432.29 608.876,1432.98 619.199,1433.62 629.521,1434.23 639.844,1434.81 650.166,1435.35 660.489,1435.87 670.811,1436.36 681.134,1436.82 691.456,1437.27 701.779,1437.69 712.101,1438.09 722.424,1438.47 732.746,1438.84 743.069,1439.19 753.391,1439.52 763.713,1439.84 774.036,1440.14 784.358,1440.43 794.681,1440.71 805.003,1440.98 815.326,1441.23 825.648,1441.47 835.971,1441.71 846.293,1441.93 856.616,1442.15 866.938,1442.35 877.261,1442.55 887.583,1442.74 897.906,1442.92 908.228,1443.09 918.551,1443.25 928.873,1443.41 939.196,1443.57 949.518,1443.71 959.841,1443.85 970.163,1443.98 980.486,1444.11 990.808,1444.23 1001.13,1444.34 1011.45,1444.45 1021.78,1444.56 1032.1,1444.66 1042.42,1444.75 1052.74,1444.84 1063.07,1444.93 1073.39,1445 1083.71,1445.08 1094.03,1445.15 1104.36,1445.22 1114.68,1445.28 1125,1445.34 1135.32,1445.39 1145.65,1445.44 1155.97,1445.48 1166.29,1445.52 1176.61,1445.56 1186.94,1445.59 1197.26,1445.62 1207.58,1445.65 1217.9,1445.67 1228.23,1445.69 1238.55,1445.7 1248.87,1445.71 1259.19,1445.71 1269.51,1445.72 1279.84,1445.71 1290.16,1445.71 1300.48,1445.7 1310.8,1445.69 1321.13,1445.67 1331.45,1445.65 1341.77,1445.62 1352.09,1445.59 1362.42,1445.56 1372.74,1445.52 1383.06,1445.48 1393.38,1445.44 1403.71,1445.39 1414.03,1445.34 1424.35,1445.28 1434.67,1445.22 1445,1445.15 1455.32,1445.08 1465.64,1445 1475.96,1444.93 1486.29,1444.84 1496.61,1444.75 1506.93,1444.66 1517.25,1444.56 1527.58,1444.45 1537.9,1444.34 1548.22,1444.23 1558.54,1444.11 1568.87,1443.98 1579.19,1443.85 1589.51,1443.71 1599.83,1443.57 1610.16,1443.41 1620.48,1443.25 1630.8,1443.09 1641.12,1442.92 1651.45,1442.74 1661.77,1442.55 1672.09,1442.35 1682.41,1442.15 1692.74,1441.93 1703.06,1441.71 1713.38,1441.47 1723.7,1441.23 1734.03,1440.98 1744.35,1440.71 1754.67,1440.43 1764.99,1440.14 1775.32,1439.84 1785.64,1439.52 1795.96,1439.19 1806.28,1438.84 1816.61,1438.47 1826.93,1438.09 1837.25,1437.69 1847.57,1437.27 1857.9,1436.82 1868.22,1436.36 1878.54,1435.87 1888.86,1435.35 1899.19,1434.81 1909.51,1434.23 1919.83,1433.62 1930.15,1432.98 1940.48,1432.29 1950.8,1431.57 1961.12,1430.79 1971.44,1429.97 1981.77,1429.09 1992.09,1428.15 2002.41,1427.14 2012.73,1426.05 2023.06,1424.88 2033.38,1423.62 2043.7,1422.25 2054.02,1420.76 2064.35,1419.13 2074.67,1417.35 2084.99,1415.39 2095.31,1413.22 2105.64,1410.81 2115.96,1408.12 2126.28,1405.08 2136.6,1401.64 2146.93,1397.71 2157.25,1393.16 2167.57,1387.85 2177.89,1381.56 2188.22,1374.01 2198.54,1364.75 2208.86,1353.14 2219.18,1338.15 2229.51,1318.04 2239.83,1289.64 2250.15,1246.46 2260.47,1172.71 2270.8,1016.5 2281.12,354.056 2291.44,87.9763 "></polyline>
<path clip-path="url(#clip370)" d="M2011.46 198.898 L2280.54 198.898 L2280.54 95.2176 L2011.46 95.2176  Z" fill="#ffffff" fill-rule="evenodd" fill-opacity="1"></path>
<polyline clip-path="url(#clip370)" style="stroke:#000000; stroke-linecap:round; stroke-linejoin:round; stroke-width:4; stroke-opacity:1; fill:none" points="2011.46,198.898 2280.54,198.898 2280.54,95.2176 2011.46,95.2176 2011.46,198.898 "></polyline>
<polyline clip-path="url(#clip370)" style="stroke:#009af9; stroke-linecap:round; stroke-linejoin:round; stroke-width:4; stroke-opacity:1; fill:none" points="2035.53,147.058 2179.97,147.058 "></polyline>
<path clip-path="url(#clip370)" d="M2217.88 166.745 Q2216.07 171.375 2214.36 172.787 Q2212.65 174.199 2209.78 174.199 L2206.38 174.199 L2206.38 170.634 L2208.88 170.634 Q2210.63 170.634 2211.61 169.8 Q2212.58 168.967 2213.76 165.865 L2214.52 163.921 L2204.04 138.412 L2208.55 138.412 L2216.65 158.689 L2224.76 138.412 L2229.27 138.412 L2217.88 166.745 Z" fill="#000000" fill-rule="nonzero" fill-opacity="1"></path><path clip-path="url(#clip370)" d="M2236.56 160.402 L2244.2 160.402 L2244.2 134.037 L2235.89 135.703 L2235.89 131.444 L2244.15 129.778 L2248.83 129.778 L2248.83 160.402 L2256.47 160.402 L2256.47 164.338 L2236.56 164.338 L2236.56 160.402 Z" fill="#000000" fill-rule="nonzero" fill-opacity="1"></path></svg>