<svg xmlns="http://www.w3.org/2000/svg" xmlns:xlink="http://www.w3.org/1999/xlink" width="600" height="400" viewBox="0 0 2400 1600">
<defs>
  <clipPath id="clip830">
    <rect x="0" y="0" width="2400" height="1600"></rect>
  </clipPath>
</defs>
<path clip-path="url(#clip830)" d="M0 1600 L2400 1600 L2400 0 L0 0  Z" fill="#ffffff" fill-rule="evenodd" fill-opacity="1"></path>
<defs>
  <clipPath id="clip831">
    <rect x="480" y="0" width="1681" height="1600"></rect>
  </clipPath>
</defs>
<path clip-path="url(#clip830)" d="M193.936 1486.45 L2352.76 1486.45 L2352.76 47.2441 L193.936 47.2441  Z" fill="#ffffff" fill-rule="evenodd" fill-opacity="1"></path>
<defs>
  <clipPath id="clip832">
    <rect x="193" y="47" width="2160" height="1440"></rect>
  </clipPath>
</defs>
<polyline clip-path="url(#clip832)" style="stroke:#000000; stroke-linecap:round; stroke-linejoin:round; stroke-width:2; stroke-opacity:0.1; fill:none" points="252.483,1486.45 252.483,47.2441 "></polyline>
<polyline clip-path="url(#clip832)" style="stroke:#000000; stroke-linecap:round; stroke-linejoin:round; stroke-width:2; stroke-opacity:0.1; fill:none" points="762.914,1486.45 762.914,47.2441 "></polyline>
<polyline clip-path="url(#clip832)" style="stroke:#000000; stroke-linecap:round; stroke-linejoin:round; stroke-width:2; stroke-opacity:0.1; fill:none" points="1273.35,1486.45 1273.35,47.2441 "></polyline>
<polyline clip-path="url(#clip832)" style="stroke:#000000; stroke-linecap:round; stroke-linejoin:round; stroke-width:2; stroke-opacity:0.1; fill:none" points="1783.78,1486.45 1783.78,47.2441 "></polyline>
<polyline clip-path="url(#clip832)" style="stroke:#000000; stroke-linecap:round; stroke-linejoin:round; stroke-width:2; stroke-opacity:0.1; fill:none" points="2294.21,1486.45 2294.21,47.2441 "></polyline>
<polyline clip-path="url(#clip830)" style="stroke:#000000; stroke-linecap:round; stroke-linejoin:round; stroke-width:4; stroke-opacity:1; fill:none" points="193.936,1486.45 2352.76,1486.45 "></polyline>
<polyline clip-path="url(#clip830)" style="stroke:#000000; stroke-linecap:round; stroke-linejoin:round; stroke-width:4; stroke-opacity:1; fill:none" points="252.483,1486.45 252.483,1467.55 "></polyline>
<polyline clip-path="url(#clip830)" style="stroke:#000000; stroke-linecap:round; stroke-linejoin:round; stroke-width:4; stroke-opacity:1; fill:none" points="762.914,1486.45 762.914,1467.55 "></polyline>
<polyline clip-path="url(#clip830)" style="stroke:#000000; stroke-linecap:round; stroke-linejoin:round; stroke-width:4; stroke-opacity:1; fill:none" points="1273.35,1486.45 1273.35,1467.55 "></polyline>
<polyline clip-path="url(#clip830)" style="stroke:#000000; stroke-linecap:round; stroke-linejoin:round; stroke-width:4; stroke-opacity:1; fill:none" points="1783.78,1486.45 1783.78,1467.55 "></polyline>
<polyline clip-path="url(#clip830)" style="stroke:#000000; stroke-linecap:round; stroke-linejoin:round; stroke-width:4; stroke-opacity:1; fill:none" points="2294.21,1486.45 2294.21,1467.55 "></polyline>
<path clip-path="url(#clip830)" d="M252.483 1517.37 Q248.871 1517.37 247.043 1520.93 Q245.237 1524.47 245.237 1531.6 Q245.237 1538.71 247.043 1542.27 Q248.871 1545.82 252.483 1545.82 Q256.117 1545.82 257.922 1542.27 Q259.751 1538.71 259.751 1531.6 Q259.751 1524.47 257.922 1520.93 Q256.117 1517.37 252.483 1517.37 M252.483 1513.66 Q258.293 1513.66 261.348 1518.27 Q264.427 1522.85 264.427 1531.6 Q264.427 1540.33 261.348 1544.94 Q258.293 1549.52 252.483 1549.52 Q246.672 1549.52 243.594 1544.94 Q240.538 1540.33 240.538 1531.6 Q240.538 1522.85 243.594 1518.27 Q246.672 1513.66 252.483 1513.66 Z" fill="#000000" fill-rule="nonzero" fill-opacity="1"></path><path clip-path="url(#clip830)" d="M726.607 1544.91 L742.926 1544.91 L742.926 1548.85 L720.982 1548.85 L720.982 1544.91 Q723.644 1542.16 728.227 1537.53 Q732.833 1532.88 734.014 1531.53 Q736.259 1529.01 737.139 1527.27 Q738.042 1525.51 738.042 1523.82 Q738.042 1521.07 736.097 1519.33 Q734.176 1517.6 731.074 1517.6 Q728.875 1517.6 726.421 1518.36 Q723.991 1519.13 721.213 1520.68 L721.213 1515.95 Q724.037 1514.82 726.491 1514.24 Q728.945 1513.66 730.982 1513.66 Q736.352 1513.66 739.546 1516.35 Q742.741 1519.03 742.741 1523.52 Q742.741 1525.65 741.931 1527.57 Q741.144 1529.47 739.037 1532.07 Q738.458 1532.74 735.357 1535.95 Q732.255 1539.15 726.607 1544.91 Z" fill="#000000" fill-rule="nonzero" fill-opacity="1"></path><path clip-path="url(#clip830)" d="M762.741 1517.37 Q759.13 1517.37 757.301 1520.93 Q755.495 1524.47 755.495 1531.6 Q755.495 1538.71 757.301 1542.27 Q759.13 1545.82 762.741 1545.82 Q766.375 1545.82 768.18 1542.27 Q770.009 1538.71 770.009 1531.6 Q770.009 1524.47 768.18 1520.93 Q766.375 1517.37 762.741 1517.37 M762.741 1513.66 Q768.551 1513.66 771.606 1518.27 Q774.685 1522.85 774.685 1531.6 Q774.685 1540.33 771.606 1544.94 Q768.551 1549.52 762.741 1549.52 Q756.93 1549.52 753.852 1544.94 Q750.796 1540.33 750.796 1531.6 Q750.796 1522.85 753.852 1518.27 Q756.93 1513.66 762.741 1513.66 Z" fill="#000000" fill-rule="nonzero" fill-opacity="1"></path><path clip-path="url(#clip830)" d="M792.902 1517.37 Q789.291 1517.37 787.463 1520.93 Q785.657 1524.47 785.657 1531.6 Q785.657 1538.71 787.463 1542.27 Q789.291 1545.82 792.902 1545.82 Q796.537 1545.82 798.342 1542.27 Q800.171 1538.71 800.171 1531.6 Q800.171 1524.47 798.342 1520.93 Q796.537 1517.37 792.902 1517.37 M792.902 1513.66 Q798.713 1513.66 801.768 1518.27 Q804.847 1522.85 804.847 1531.6 Q804.847 1540.33 801.768 1544.94 Q798.713 1549.52 792.902 1549.52 Q787.092 1549.52 784.014 1544.94 Q780.958 1540.33 780.958 1531.6 Q780.958 1522.85 784.014 1518.27 Q787.092 1513.66 792.902 1513.66 Z" fill="#000000" fill-rule="nonzero" fill-opacity="1"></path><path clip-path="url(#clip830)" d="M1246.44 1518.36 L1234.63 1536.81 L1246.44 1536.81 L1246.44 1518.36 M1245.21 1514.29 L1251.09 1514.29 L1251.09 1536.81 L1256.02 1536.81 L1256.02 1540.7 L1251.09 1540.7 L1251.09 1548.85 L1246.44 1548.85 L1246.44 1540.7 L1230.83 1540.7 L1230.83 1536.19 L1245.21 1514.29 Z" fill="#000000" fill-rule="nonzero" fill-opacity="1"></path><path clip-path="url(#clip830)" d="M1273.75 1517.37 Q1270.14 1517.37 1268.31 1520.93 Q1266.51 1524.47 1266.51 1531.6 Q1266.51 1538.71 1268.31 1542.27 Q1270.14 1545.82 1273.75 1545.82 Q1277.39 1545.82 1279.19 1542.27 Q1281.02 1538.71 1281.02 1531.6 Q1281.02 1524.47 1279.19 1520.93 Q1277.39 1517.37 1273.75 1517.37 M1273.75 1513.66 Q1279.56 1513.66 1282.62 1518.27 Q1285.7 1522.85 1285.7 1531.6 Q1285.7 1540.33 1282.62 1544.94 Q1279.56 1549.52 1273.75 1549.52 Q1267.94 1549.52 1264.86 1544.94 Q1261.81 1540.33 1261.81 1531.6 Q1261.81 1522.85 1264.86 1518.27 Q1267.94 1513.66 1273.75 1513.66 Z" fill="#000000" fill-rule="nonzero" fill-opacity="1"></path><path clip-path="url(#clip830)" d="M1303.91 1517.37 Q1300.3 1517.37 1298.47 1520.93 Q1296.67 1524.47 1296.67 1531.6 Q1296.67 1538.71 1298.47 1542.27 Q1300.3 1545.82 1303.91 1545.82 Q1307.55 1545.82 1309.35 1542.27 Q1311.18 1538.71 1311.18 1531.6 Q1311.18 1524.47 1309.35 1520.93 Q1307.55 1517.37 1303.91 1517.37 M1303.91 1513.66 Q1309.72 1513.66 1312.78 1518.27 Q1315.86 1522.85 1315.86 1531.6 Q1315.86 1540.33 1312.78 1544.94 Q1309.72 1549.52 1303.91 1549.52 Q1298.1 1549.52 1295.02 1544.94 Q1291.97 1540.33 1291.97 1531.6 Q1291.97 1522.85 1295.02 1518.27 Q1298.1 1513.66 1303.91 1513.66 Z" fill="#000000" fill-rule="nonzero" fill-opacity="1"></path><path clip-path="url(#clip830)" d="M1754.1 1529.7 Q1750.95 1529.7 1749.1 1531.86 Q1747.27 1534.01 1747.27 1537.76 Q1747.27 1541.49 1749.1 1543.66 Q1750.95 1545.82 1754.1 1545.82 Q1757.25 1545.82 1759.08 1543.66 Q1760.93 1541.49 1760.93 1537.76 Q1760.93 1534.01 1759.08 1531.86 Q1757.25 1529.7 1754.1 1529.7 M1763.38 1515.05 L1763.38 1519.31 Q1761.63 1518.48 1759.82 1518.04 Q1758.04 1517.6 1756.28 1517.6 Q1751.65 1517.6 1749.19 1520.72 Q1746.76 1523.85 1746.42 1530.17 Q1747.78 1528.15 1749.84 1527.09 Q1751.9 1526 1754.38 1526 Q1759.59 1526 1762.6 1529.17 Q1765.63 1532.32 1765.63 1537.76 Q1765.63 1543.08 1762.48 1546.3 Q1759.33 1549.52 1754.1 1549.52 Q1748.11 1549.52 1744.94 1544.94 Q1741.76 1540.33 1741.76 1531.6 Q1741.76 1523.41 1745.65 1518.55 Q1749.54 1513.66 1756.09 1513.66 Q1757.85 1513.66 1759.63 1514.01 Q1761.44 1514.36 1763.38 1515.05 Z" fill="#000000" fill-rule="nonzero" fill-opacity="1"></path><path clip-path="url(#clip830)" d="M1783.69 1517.37 Q1780.07 1517.37 1778.25 1520.93 Q1776.44 1524.47 1776.44 1531.6 Q1776.44 1538.71 1778.25 1542.27 Q1780.07 1545.82 1783.69 1545.82 Q1787.32 1545.82 1789.12 1542.27 Q1790.95 1538.71 1790.95 1531.6 Q1790.95 1524.47 1789.12 1520.93 Q1787.32 1517.37 1783.69 1517.37 M1783.69 1513.66 Q1789.5 1513.66 1792.55 1518.27 Q1795.63 1522.85 1795.63 1531.6 Q1795.63 1540.33 1792.55 1544.94 Q1789.5 1549.52 1783.69 1549.52 Q1777.87 1549.52 1774.8 1544.94 Q1771.74 1540.33 1771.74 1531.6 Q1771.74 1522.85 1774.8 1518.27 Q1777.87 1513.66 1783.69 1513.66 Z" fill="#000000" fill-rule="nonzero" fill-opacity="1"></path><path clip-path="url(#clip830)" d="M1813.85 1517.37 Q1810.24 1517.37 1808.41 1520.93 Q1806.6 1524.47 1806.6 1531.6 Q1806.6 1538.71 1808.41 1542.27 Q1810.24 1545.82 1813.85 1545.82 Q1817.48 1545.82 1819.29 1542.27 Q1821.12 1538.71 1821.12 1531.6 Q1821.12 1524.47 1819.29 1520.93 Q1817.48 1517.37 1813.85 1517.37 M1813.85 1513.66 Q1819.66 1513.66 1822.71 1518.27 Q1825.79 1522.85 1825.79 1531.6 Q1825.79 1540.33 1822.71 1544.94 Q1819.66 1549.52 1813.85 1549.52 Q1808.04 1549.52 1804.96 1544.94 Q1801.9 1540.33 1801.9 1531.6 Q1801.9 1522.85 1804.96 1518.27 Q1808.04 1513.66 1813.85 1513.66 Z" fill="#000000" fill-rule="nonzero" fill-opacity="1"></path><path clip-path="url(#clip830)" d="M2264 1532.44 Q2260.67 1532.44 2258.75 1534.22 Q2256.85 1536 2256.85 1539.13 Q2256.85 1542.25 2258.75 1544.03 Q2260.67 1545.82 2264 1545.82 Q2267.33 1545.82 2269.26 1544.03 Q2271.18 1542.23 2271.18 1539.13 Q2271.18 1536 2269.26 1534.22 Q2267.36 1532.44 2264 1532.44 M2259.33 1530.45 Q2256.32 1529.7 2254.63 1527.64 Q2252.96 1525.58 2252.96 1522.62 Q2252.96 1518.48 2255.9 1516.07 Q2258.86 1513.66 2264 1513.66 Q2269.16 1513.66 2272.1 1516.07 Q2275.04 1518.48 2275.04 1522.62 Q2275.04 1525.58 2273.35 1527.64 Q2271.69 1529.7 2268.7 1530.45 Q2272.08 1531.23 2273.95 1533.52 Q2275.85 1535.82 2275.85 1539.13 Q2275.85 1544.15 2272.77 1546.83 Q2269.72 1549.52 2264 1549.52 Q2258.28 1549.52 2255.2 1546.83 Q2252.15 1544.15 2252.15 1539.13 Q2252.15 1535.82 2254.05 1533.52 Q2255.95 1531.23 2259.33 1530.45 M2257.61 1523.06 Q2257.61 1525.75 2259.28 1527.25 Q2260.97 1528.76 2264 1528.76 Q2267.01 1528.76 2268.7 1527.25 Q2270.41 1525.75 2270.41 1523.06 Q2270.41 1520.38 2268.7 1518.87 Q2267.01 1517.37 2264 1517.37 Q2260.97 1517.37 2259.28 1518.87 Q2257.61 1520.38 2257.61 1523.06 Z" fill="#000000" fill-rule="nonzero" fill-opacity="1"></path><path clip-path="url(#clip830)" d="M2294.16 1517.37 Q2290.55 1517.37 2288.72 1520.93 Q2286.92 1524.47 2286.92 1531.6 Q2286.92 1538.71 2288.72 1542.27 Q2290.55 1545.82 2294.16 1545.82 Q2297.8 1545.82 2299.6 1542.27 Q2301.43 1538.71 2301.43 1531.6 Q2301.43 1524.47 2299.6 1520.93 Q2297.8 1517.37 2294.16 1517.37 M2294.16 1513.66 Q2299.97 1513.66 2303.03 1518.27 Q2306.11 1522.85 2306.11 1531.6 Q2306.11 1540.33 2303.03 1544.94 Q2299.97 1549.52 2294.16 1549.52 Q2288.35 1549.52 2285.27 1544.94 Q2282.22 1540.33 2282.22 1531.6 Q2282.22 1522.85 2285.27 1518.27 Q2288.35 1513.66 2294.16 1513.66 Z" fill="#000000" fill-rule="nonzero" fill-opacity="1"></path><path clip-path="url(#clip830)" d="M2324.32 1517.37 Q2320.71 1517.37 2318.89 1520.93 Q2317.08 1524.47 2317.08 1531.6 Q2317.08 1538.71 2318.89 1542.27 Q2320.71 1545.82 2324.32 1545.82 Q2327.96 1545.82 2329.76 1542.27 Q2331.59 1538.71 2331.59 1531.6 Q2331.59 1524.47 2329.76 1520.93 Q2327.96 1517.37 2324.32 1517.37 M2324.32 1513.66 Q2330.14 1513.66 2333.19 1518.27 Q2336.27 1522.85 2336.27 1531.6 Q2336.27 1540.33 2333.19 1544.94 Q2330.14 1549.52 2324.32 1549.52 Q2318.51 1549.52 2315.44 1544.94 Q2312.38 1540.33 2312.38 1531.6 Q2312.38 1522.85 2315.44 1518.27 Q2318.51 1513.66 2324.32 1513.66 Z" fill="#000000" fill-rule="nonzero" fill-opacity="1"></path><polyline clip-path="url(#clip832)" style="stroke:#000000; stroke-linecap:round; stroke-linejoin:round; stroke-width:2; stroke-opacity:0.1; fill:none" points="193.936,1378.4 2352.76,1378.4 "></polyline>
<polyline clip-path="url(#clip832)" style="stroke:#000000; stroke-linecap:round; stroke-linejoin:round; stroke-width:2; stroke-opacity:0.1; fill:none" points="193.936,1072.08 2352.76,1072.08 "></polyline>
<polyline clip-path="url(#clip832)" style="stroke:#000000; stroke-linecap:round; stroke-linejoin:round; stroke-width:2; stroke-opacity:0.1; fill:none" points="193.936,765.757 2352.76,765.757 "></polyline>
<polyline clip-path="url(#clip832)" style="stroke:#000000; stroke-linecap:round; stroke-linejoin:round; stroke-width:2; stroke-opacity:0.1; fill:none" points="193.936,459.437 2352.76,459.437 "></polyline>
<polyline clip-path="url(#clip832)" style="stroke:#000000; stroke-linecap:round; stroke-linejoin:round; stroke-width:2; stroke-opacity:0.1; fill:none" points="193.936,153.117 2352.76,153.117 "></polyline>
<polyline clip-path="url(#clip830)" style="stroke:#000000; stroke-linecap:round; stroke-linejoin:round; stroke-width:4; stroke-opacity:1; fill:none" points="193.936,1486.45 193.936,47.2441 "></polyline>
<polyline clip-path="url(#clip830)" style="stroke:#000000; stroke-linecap:round; stroke-linejoin:round; stroke-width:4; stroke-opacity:1; fill:none" points="193.936,1378.4 212.834,1378.4 "></polyline>
<polyline clip-path="url(#clip830)" style="stroke:#000000; stroke-linecap:round; stroke-linejoin:round; stroke-width:4; stroke-opacity:1; fill:none" points="193.936,1072.08 212.834,1072.08 "></polyline>
<polyline clip-path="url(#clip830)" style="stroke:#000000; stroke-linecap:round; stroke-linejoin:round; stroke-width:4; stroke-opacity:1; fill:none" points="193.936,765.757 212.834,765.757 "></polyline>
<polyline clip-path="url(#clip830)" style="stroke:#000000; stroke-linecap:round; stroke-linejoin:round; stroke-width:4; stroke-opacity:1; fill:none" points="193.936,459.437 212.834,459.437 "></polyline>
<polyline clip-path="url(#clip830)" style="stroke:#000000; stroke-linecap:round; stroke-linejoin:round; stroke-width:4; stroke-opacity:1; fill:none" points="193.936,153.117 212.834,153.117 "></polyline>
<path clip-path="url(#clip830)" d="M50.9921 1378.85 L80.6679 1378.85 L80.6679 1382.78 L50.9921 1382.78 L50.9921 1378.85 Z" fill="#000000" fill-rule="nonzero" fill-opacity="1"></path><path clip-path="url(#clip830)" d="M91.5706 1391.74 L99.2095 1391.74 L99.2095 1365.38 L90.8993 1367.04 L90.8993 1362.78 L99.1632 1361.12 L103.839 1361.12 L103.839 1391.74 L111.478 1391.74 L111.478 1395.68 L91.5706 1395.68 L91.5706 1391.74 Z" fill="#000000" fill-rule="nonzero" fill-opacity="1"></path><path clip-path="url(#clip830)" d="M120.922 1389.8 L125.807 1389.8 L125.807 1395.68 L120.922 1395.68 L120.922 1389.8 Z" fill="#000000" fill-rule="nonzero" fill-opacity="1"></path><path clip-path="url(#clip830)" d="M145.992 1364.2 Q142.381 1364.2 140.552 1367.76 Q138.746 1371.3 138.746 1378.43 Q138.746 1385.54 140.552 1389.1 Q142.381 1392.64 145.992 1392.64 Q149.626 1392.64 151.431 1389.1 Q153.26 1385.54 153.26 1378.43 Q153.26 1371.3 151.431 1367.76 Q149.626 1364.2 145.992 1364.2 M145.992 1360.49 Q151.802 1360.49 154.857 1365.1 Q157.936 1369.68 157.936 1378.43 Q157.936 1387.16 154.857 1391.76 Q151.802 1396.35 145.992 1396.35 Q140.181 1396.35 137.103 1391.76 Q134.047 1387.16 134.047 1378.43 Q134.047 1369.68 137.103 1365.1 Q140.181 1360.49 145.992 1360.49 Z" fill="#000000" fill-rule="nonzero" fill-opacity="1"></path><path clip-path="url(#clip830)" d="M51.9875 1072.53 L81.6633 1072.53 L81.6633 1076.46 L51.9875 1076.46 L51.9875 1072.53 Z" fill="#000000" fill-rule="nonzero" fill-opacity="1"></path><path clip-path="url(#clip830)" d="M101.756 1057.88 Q98.1447 1057.88 96.316 1061.44 Q94.5104 1064.98 94.5104 1072.11 Q94.5104 1079.22 96.316 1082.78 Q98.1447 1086.32 101.756 1086.32 Q105.39 1086.32 107.196 1082.78 Q109.024 1079.22 109.024 1072.11 Q109.024 1064.98 107.196 1061.44 Q105.39 1057.88 101.756 1057.88 M101.756 1054.17 Q107.566 1054.17 110.621 1058.78 Q113.7 1063.36 113.7 1072.11 Q113.7 1080.84 110.621 1085.44 Q107.566 1090.03 101.756 1090.03 Q95.9456 1090.03 92.8669 1085.44 Q89.8114 1080.84 89.8114 1072.11 Q89.8114 1063.36 92.8669 1058.78 Q95.9456 1054.17 101.756 1054.17 Z" fill="#000000" fill-rule="nonzero" fill-opacity="1"></path><path clip-path="url(#clip830)" d="M121.918 1083.48 L126.802 1083.48 L126.802 1089.36 L121.918 1089.36 L121.918 1083.48 Z" fill="#000000" fill-rule="nonzero" fill-opacity="1"></path><path clip-path="url(#clip830)" d="M137.033 1054.8 L155.39 1054.8 L155.39 1058.73 L141.316 1058.73 L141.316 1067.2 Q142.334 1066.86 143.353 1066.69 Q144.371 1066.51 145.39 1066.51 Q151.177 1066.51 154.556 1069.68 Q157.936 1072.85 157.936 1078.27 Q157.936 1083.85 154.464 1086.95 Q150.992 1090.03 144.672 1090.03 Q142.496 1090.03 140.228 1089.66 Q137.982 1089.29 135.575 1088.55 L135.575 1083.85 Q137.658 1084.98 139.881 1085.54 Q142.103 1086.09 144.58 1086.09 Q148.584 1086.09 150.922 1083.99 Q153.26 1081.88 153.26 1078.27 Q153.26 1074.66 150.922 1072.55 Q148.584 1070.44 144.58 1070.44 Q142.705 1070.44 140.83 1070.86 Q138.978 1071.28 137.033 1072.16 L137.033 1054.8 Z" fill="#000000" fill-rule="nonzero" fill-opacity="1"></path><path clip-path="url(#clip830)" d="M100.76 751.555 Q97.1493 751.555 95.3206 755.12 Q93.515 758.662 93.515 765.792 Q93.515 772.898 95.3206 776.463 Q97.1493 780.004 100.76 780.004 Q104.395 780.004 106.2 776.463 Q108.029 772.898 108.029 765.792 Q108.029 758.662 106.2 755.12 Q104.395 751.555 100.76 751.555 M100.76 747.852 Q106.571 747.852 109.626 752.458 Q112.705 757.042 112.705 765.792 Q112.705 774.518 109.626 779.125 Q106.571 783.708 100.76 783.708 Q94.9502 783.708 91.8715 779.125 Q88.816 774.518 88.816 765.792 Q88.816 757.042 91.8715 752.458 Q94.9502 747.852 100.76 747.852 Z" fill="#000000" fill-rule="nonzero" fill-opacity="1"></path><path clip-path="url(#clip830)" d="M120.922 777.157 L125.807 777.157 L125.807 783.037 L120.922 783.037 L120.922 777.157 Z" fill="#000000" fill-rule="nonzero" fill-opacity="1"></path><path clip-path="url(#clip830)" d="M145.992 751.555 Q142.381 751.555 140.552 755.12 Q138.746 758.662 138.746 765.792 Q138.746 772.898 140.552 776.463 Q142.381 780.004 145.992 780.004 Q149.626 780.004 151.431 776.463 Q153.26 772.898 153.26 765.792 Q153.26 758.662 151.431 755.12 Q149.626 751.555 145.992 751.555 M145.992 747.852 Q151.802 747.852 154.857 752.458 Q157.936 757.042 157.936 765.792 Q157.936 774.518 154.857 779.125 Q151.802 783.708 145.992 783.708 Q140.181 783.708 137.103 779.125 Q134.047 774.518 134.047 765.792 Q134.047 757.042 137.103 752.458 Q140.181 747.852 145.992 747.852 Z" fill="#000000" fill-rule="nonzero" fill-opacity="1"></path><path clip-path="url(#clip830)" d="M101.756 445.235 Q98.1447 445.235 96.316 448.8 Q94.5104 452.342 94.5104 459.471 Q94.5104 466.578 96.316 470.143 Q98.1447 473.684 101.756 473.684 Q105.39 473.684 107.196 470.143 Q109.024 466.578 109.024 459.471 Q109.024 452.342 107.196 448.8 Q105.39 445.235 101.756 445.235 M101.756 441.532 Q107.566 441.532 110.621 446.138 Q113.7 450.722 113.7 459.471 Q113.7 468.198 110.621 472.805 Q107.566 477.388 101.756 477.388 Q95.9456 477.388 92.8669 472.805 Q89.8114 468.198 89.8114 459.471 Q89.8114 450.722 92.8669 446.138 Q95.9456 441.532 101.756 441.532 Z" fill="#000000" fill-rule="nonzero" fill-opacity="1"></path><path clip-path="url(#clip830)" d="M121.918 470.837 L126.802 470.837 L126.802 476.717 L121.918 476.717 L121.918 470.837 Z" fill="#000000" fill-rule="nonzero" fill-opacity="1"></path><path clip-path="url(#clip830)" d="M137.033 442.157 L155.39 442.157 L155.39 446.092 L141.316 446.092 L141.316 454.564 Q142.334 454.217 143.353 454.055 Q144.371 453.87 145.39 453.87 Q151.177 453.87 154.556 457.041 Q157.936 460.212 157.936 465.629 Q157.936 471.208 154.464 474.309 Q150.992 477.388 144.672 477.388 Q142.496 477.388 140.228 477.018 Q137.982 476.647 135.575 475.907 L135.575 471.208 Q137.658 472.342 139.881 472.897 Q142.103 473.453 144.58 473.453 Q148.584 473.453 150.922 471.346 Q153.26 469.24 153.26 465.629 Q153.26 462.018 150.922 459.911 Q148.584 457.805 144.58 457.805 Q142.705 457.805 140.83 458.221 Q138.978 458.638 137.033 459.518 L137.033 442.157 Z" fill="#000000" fill-rule="nonzero" fill-opacity="1"></path><path clip-path="url(#clip830)" d="M91.5706 166.462 L99.2095 166.462 L99.2095 140.096 L90.8993 141.763 L90.8993 137.503 L99.1632 135.837 L103.839 135.837 L103.839 166.462 L111.478 166.462 L111.478 170.397 L91.5706 170.397 L91.5706 166.462 Z" fill="#000000" fill-rule="nonzero" fill-opacity="1"></path><path clip-path="url(#clip830)" d="M120.922 164.517 L125.807 164.517 L125.807 170.397 L120.922 170.397 L120.922 164.517 Z" fill="#000000" fill-rule="nonzero" fill-opacity="1"></path><path clip-path="url(#clip830)" d="M145.992 138.915 Q142.381 138.915 140.552 142.48 Q138.746 146.022 138.746 153.151 Q138.746 160.258 140.552 163.823 Q142.381 167.364 145.992 167.364 Q149.626 167.364 151.431 163.823 Q153.26 160.258 153.26 153.151 Q153.26 146.022 151.431 142.48 Q149.626 138.915 145.992 138.915 M145.992 135.212 Q151.802 135.212 154.857 139.818 Q157.936 144.402 157.936 153.151 Q157.936 161.878 154.857 166.485 Q151.802 171.068 145.992 171.068 Q140.181 171.068 137.103 166.485 Q134.047 161.878 134.047 153.151 Q134.047 144.402 137.103 139.818 Q140.181 135.212 145.992 135.212 Z" fill="#000000" fill-rule="nonzero" fill-opacity="1"></path><polyline clip-path="url(#clip832)" style="stroke:#009af9; stroke-linecap:round; stroke-linejoin:round; stroke-width:4; stroke-opacity:1; fill:none" points="255.035,1445.72 257.587,87.9763 260.139,569.2 262.691,670.873 265.243,710.497 267.795,729.932 270.348,740.831 272.9,747.518 275.452,751.895 278.004,754.906 280.556,757.058 283.108,758.645 285.661,759.847 288.213,760.778 290.765,761.511 293.317,762.099 295.869,762.576 298.421,762.969 300.974,763.296 303.526,763.57 306.078,763.803 308.63,764.002 311.182,764.172 313.734,764.32 316.286,764.449 318.839,764.562 321.391,764.662 323.943,764.75 326.495,764.828 329.047,764.897 331.599,764.96 334.152,765.016 336.704,765.067 339.256,765.112 341.808,765.154 344.36,765.192 346.912,765.226 349.465,765.258 352.017,765.287 354.569,765.313 357.121,765.338 359.673,765.36 362.225,765.381 364.777,765.401 367.33,765.419 369.882,765.435 372.434,765.451 374.986,765.465 377.538,765.479 380.09,765.491 382.643,765.503 385.195,765.514 387.747,765.524 390.299,765.534 392.851,765.543 395.403,765.552 397.956,765.56 400.508,765.568 403.06,765.575 405.612,765.582 408.164,765.589 410.716,765.595 413.269,765.601 415.821,765.606 418.373,765.611 420.925,765.616 423.477,765.621 426.029,765.626 428.581,765.63 431.134,765.634 433.686,765.638 436.238,765.642 438.79,765.645 441.342,765.649 443.894,765.652 446.447,765.655 448.999,765.658 451.551,765.661 454.103,765.664 456.655,765.666 459.207,765.669 461.76,765.671 464.312,765.674 466.864,765.676 469.416,765.678 471.968,765.68 474.52,765.682 477.072,765.684 479.625,765.686 482.177,765.688 484.729,765.689 487.281,765.691 489.833,765.693 492.385,765.694 494.938,765.696 497.49,765.697 500.042,765.698 502.594,765.7 505.146,765.701 507.698,765.702 510.251,765.704 512.803,765.705 515.355,765.706 517.907,765.707 520.459,765.708 523.011,765.709 525.563,765.71 528.116,765.711 530.668,765.712 533.22,765.713 535.772,765.714 538.324,765.715 540.876,765.716 543.429,765.716 545.981,765.717 548.533,765.718 551.085,765.719 553.637,765.719 556.189,765.72 558.742,765.721 561.294,765.721 563.846,765.722 566.398,765.723 568.95,765.723 571.502,765.724 574.054,765.725 576.607,765.725 579.159,765.726 581.711,765.726 584.263,765.727 586.815,765.727 589.367,765.728 591.92,765.728 594.472,765.729 597.024,765.729 599.576,765.73 602.128,765.73 604.68,765.73 607.233,765.731 609.785,765.731 612.337,765.732 614.889,765.732 617.441,765.732 619.993,765.733 622.546,765.733 625.098,765.734 627.65,765.734 630.202,765.734 632.754,765.735 635.306,765.735 637.858,765.735 640.411,765.736 642.963,765.736 645.515,765.736 648.067,765.736 650.619,765.737 653.171,765.737 655.724,765.737 658.276,765.738 660.828,765.738 663.38,765.738 665.932,765.738 668.484,765.739 671.037,765.739 673.589,765.739 676.141,765.739 678.693,765.739 681.245,765.74 683.797,765.74 686.349,765.74 688.902,765.74 691.454,765.741 694.006,765.741 696.558,765.741 699.11,765.741 701.662,765.741 704.215,765.742 706.767,765.742 709.319,765.742 711.871,765.742 714.423,765.742 716.975,765.742 719.528,765.743 722.08,765.743 724.632,765.743 727.184,765.743 729.736,765.743 732.288,765.743 734.84,765.744 737.393,765.744 739.945,765.744 742.497,765.744 745.049,765.744 747.601,765.744 750.153,765.744 752.706,765.744 755.258,765.745 757.81,765.745 760.362,765.745 762.914,765.745 765.466,765.745 768.019,765.745 770.571,765.745 773.123,765.745 775.675,765.746 778.227,765.746 780.779,765.746 783.332,765.746 785.884,765.746 788.436,765.746 790.988,765.746 793.54,765.746 796.092,765.746 798.644,765.747 801.197,765.747 803.749,765.747 806.301,765.747 808.853,765.747 811.405,765.747 813.957,765.747 816.51,765.747 819.062,765.747 821.614,765.747 824.166,765.747 826.718,765.748 829.27,765.748 831.823,765.748 834.375,765.748 836.927,765.748 839.479,765.748 842.031,765.748 844.583,765.748 847.135,765.748 849.688,765.748 852.24,765.748 854.792,765.748 857.344,765.748 859.896,765.748 862.448,765.749 865.001,765.749 867.553,765.749 870.105,765.749 872.657,765.749 875.209,765.749 877.761,765.749 880.314,765.749 882.866,765.749 885.418,765.749 887.97,765.749 890.522,765.749 893.074,765.749 895.626,765.749 898.179,765.749 900.731,765.749 903.283,765.749 905.835,765.75 908.387,765.75 910.939,765.75 913.492,765.75 916.044,765.75 918.596,765.75 921.148,765.75 923.7,765.75 926.252,765.75 928.805,765.75 931.357,765.75 933.909,765.75 936.461,765.75 939.013,765.75 941.565,765.75 944.117,765.75 946.67,765.75 949.222,765.75 951.774,765.75 954.326,765.75 956.878,765.75 959.43,765.75 961.983,765.75 964.535,765.751 967.087,765.751 969.639,765.751 972.191,765.751 974.743,765.751 977.296,765.751 979.848,765.751 982.4,765.751 984.952,765.751 987.504,765.751 990.056,765.751 992.609,765.751 995.161,765.751 997.713,765.751 1000.26,765.751 1002.82,765.751 1005.37,765.751 1007.92,765.751 1010.47,765.751 1013.03,765.751 1015.58,765.751 1018.13,765.751 1020.68,765.751 1023.23,765.751 1025.79,765.751 1028.34,765.751 1030.89,765.751 1033.44,765.751 1036,765.751 1038.55,765.751 1041.1,765.751 1043.65,765.751 1046.2,765.751 1048.76,765.751 1051.31,765.751 1053.86,765.752 1056.41,765.752 1058.96,765.752 1061.52,765.752 1064.07,765.752 1066.62,765.752 1069.17,765.752 1071.73,765.752 1074.28,765.752 1076.83,765.752 1079.38,765.752 1081.93,765.752 1084.49,765.752 1087.04,765.752 1089.59,765.752 1092.14,765.752 1094.69,765.752 1097.25,765.752 1099.8,765.752 1102.35,765.752 1104.9,765.752 1107.46,765.752 1110.01,765.752 1112.56,765.752 1115.11,765.752 1117.66,765.752 1120.22,765.752 1122.77,765.752 1125.32,765.752 1127.87,765.752 1130.43,765.752 1132.98,765.752 1135.53,765.752 1138.08,765.752 1140.63,765.752 1143.19,765.752 1145.74,765.752 1148.29,765.752 1150.84,765.752 1153.39,765.752 1155.95,765.752 1158.5,765.752 1161.05,765.752 1163.6,765.752 1166.16,765.752 1168.71,765.752 1171.26,765.752 1173.81,765.752 1176.36,765.752 1178.92,765.752 1181.47,765.752 1184.02,765.752 1186.57,765.752 1189.12,765.752 1191.68,765.752 1194.23,765.752 1196.78,765.752 1199.33,765.752 1201.89,765.752 1204.44,765.752 1206.99,765.752 1209.54,765.752 1212.09,765.752 1214.65,765.752 1217.2,765.752 1219.75,765.752 1222.3,765.752 1224.85,765.752 1227.41,765.752 1229.96,765.752 1232.51,765.752 1235.06,765.752 1237.62,765.752 1240.17,765.752 1242.72,765.752 1245.27,765.752 1247.82,765.752 1250.38,765.752 1252.93,765.752 1255.48,765.752 1258.03,765.752 1260.59,765.752 1263.14,765.752 1265.69,765.752 1268.24,765.752 1270.79,765.752 1273.35,765.752 1275.9,765.752 1278.45,765.752 1281,765.752 1283.55,765.752 1286.11,765.752 1288.66,765.752 1291.21,765.752 1293.76,765.752 1296.32,765.752 1298.87,765.752 1301.42,765.752 1303.97,765.752 1306.52,765.752 1309.08,765.752 1311.63,765.752 1314.18,765.752 1316.73,765.752 1319.28,765.752 1321.84,765.752 1324.39,765.752 1326.94,765.752 1329.49,765.752 1332.05,765.752 1334.6,765.752 1337.15,765.752 1339.7,765.752 1342.25,765.752 1344.81,765.752 1347.36,765.752 1349.91,765.752 1352.46,765.752 1355.02,765.752 1357.57,765.752 1360.12,765.752 1362.67,765.752 1365.22,765.752 1367.78,765.752 1370.33,765.752 1372.88,765.752 1375.43,765.752 1377.98,765.752 1380.54,765.752 1383.09,765.752 1385.64,765.752 1388.19,765.752 1390.75,765.752 1393.3,765.752 1395.85,765.752 1398.4,765.752 1400.95,765.752 1403.51,765.752 1406.06,765.752 1408.61,765.752 1411.16,765.752 1413.71,765.752 1416.27,765.752 1418.82,765.752 1421.37,765.752 1423.92,765.752 1426.48,765.752 1429.03,765.752 1431.58,765.752 1434.13,765.752 1436.68,765.752 1439.24,765.752 1441.79,765.752 1444.34,765.752 1446.89,765.752 1449.44,765.752 1452,765.752 1454.55,765.752 1457.1,765.752 1459.65,765.752 1462.21,765.752 1464.76,765.752 1467.31,765.752 1469.86,765.752 1472.41,765.752 1474.97,765.752 1477.52,765.752 1480.07,765.752 1482.62,765.752 1485.18,765.752 1487.73,765.752 1490.28,765.752 1492.83,765.752 1495.38,765.751 1497.94,765.751 1500.49,765.751 1503.04,765.751 1505.59,765.751 1508.14,765.751 1510.7,765.751 1513.25,765.751 1515.8,765.751 1518.35,765.751 1520.91,765.751 1523.46,765.751 1526.01,765.751 1528.56,765.751 1531.11,765.751 1533.67,765.751 1536.22,765.751 1538.77,765.751 1541.32,765.751 1543.87,765.751 1546.43,765.751 1548.98,765.751 1551.53,765.751 1554.08,765.751 1556.64,765.751 1559.19,765.751 1561.74,765.751 1564.29,765.751 1566.84,765.751 1569.4,765.751 1571.95,765.751 1574.5,765.751 1577.05,765.751 1579.6,765.751 1582.16,765.751 1584.71,765.75 1587.26,765.75 1589.81,765.75 1592.37,765.75 1594.92,765.75 1597.47,765.75 1600.02,765.75 1602.57,765.75 1605.13,765.75 1607.68,765.75 1610.23,765.75 1612.78,765.75 1615.34,765.75 1617.89,765.75 1620.44,765.75 1622.99,765.75 1625.54,765.75 1628.1,765.75 1630.65,765.75 1633.2,765.75 1635.75,765.75 1638.3,765.75 1640.86,765.75 1643.41,765.749 1645.96,765.749 1648.51,765.749 1651.07,765.749 1653.62,765.749 1656.17,765.749 1658.72,765.749 1661.27,765.749 1663.83,765.749 1666.38,765.749 1668.93,765.749 1671.48,765.749 1674.03,765.749 1676.59,765.749 1679.14,765.749 1681.69,765.749 1684.24,765.749 1686.8,765.748 1689.35,765.748 1691.9,765.748 1694.45,765.748 1697,765.748 1699.56,765.748 1702.11,765.748 1704.66,765.748 1707.21,765.748 1709.77,765.748 1712.32,765.748 1714.87,765.748 1717.42,765.748 1719.97,765.748 1722.53,765.747 1725.08,765.747 1727.63,765.747 1730.18,765.747 1732.73,765.747 1735.29,765.747 1737.84,765.747 1740.39,765.747 1742.94,765.747 1745.5,765.747 1748.05,765.747 1750.6,765.746 1753.15,765.746 1755.7,765.746 1758.26,765.746 1760.81,765.746 1763.36,765.746 1765.91,765.746 1768.46,765.746 1771.02,765.746 1773.57,765.745 1776.12,765.745 1778.67,765.745 1781.23,765.745 1783.78,765.745 1786.33,765.745 1788.88,765.745 1791.43,765.745 1793.99,765.744 1796.54,765.744 1799.09,765.744 1801.64,765.744 1804.19,765.744 1806.75,765.744 1809.3,765.744 1811.85,765.744 1814.4,765.743 1816.96,765.743 1819.51,765.743 1822.06,765.743 1824.61,765.743 1827.16,765.743 1829.72,765.742 1832.27,765.742 1834.82,765.742 1837.37,765.742 1839.93,765.742 1842.48,765.742 1845.03,765.741 1847.58,765.741 1850.13,765.741 1852.69,765.741 1855.24,765.741 1857.79,765.74 1860.34,765.74 1862.89,765.74 1865.45,765.74 1868,765.739 1870.55,765.739 1873.1,765.739 1875.66,765.739 1878.21,765.739 1880.76,765.738 1883.31,765.738 1885.86,765.738 1888.42,765.738 1890.97,765.737 1893.52,765.737 1896.07,765.737 1898.62,765.736 1901.18,765.736 1903.73,765.736 1906.28,765.736 1908.83,765.735 1911.39,765.735 1913.94,765.735 1916.49,765.734 1919.04,765.734 1921.59,765.734 1924.15,765.733 1926.7,765.733 1929.25,765.732 1931.8,765.732 1934.36,765.732 1936.91,765.731 1939.46,765.731 1942.01,765.73 1944.56,765.73 1947.12,765.73 1949.67,765.729 1952.22,765.729 1954.77,765.728 1957.32,765.728 1959.88,765.727 1962.43,765.727 1964.98,765.726 1967.53,765.726 1970.09,765.725 1972.64,765.725 1975.19,765.724 1977.74,765.723 1980.29,765.723 1982.85,765.722 1985.4,765.721 1987.95,765.721 1990.5,765.72 1993.05,765.719 1995.61,765.719 1998.16,765.718 2000.71,765.717 2003.26,765.716 2005.82,765.716 2008.37,765.715 2010.92,765.714 2013.47,765.713 2016.02,765.712 2018.58,765.711 2021.13,765.71 2023.68,765.709 2026.23,765.708 2028.78,765.707 2031.34,765.706 2033.89,765.705 2036.44,765.704 2038.99,765.702 2041.55,765.701 2044.1,765.7 2046.65,765.698 2049.2,765.697 2051.75,765.696 2054.31,765.694 2056.86,765.693 2059.41,765.691 2061.96,765.689 2064.52,765.688 2067.07,765.686 2069.62,765.684 2072.17,765.682 2074.72,765.68 2077.28,765.678 2079.83,765.676 2082.38,765.674 2084.93,765.671 2087.48,765.669 2090.04,765.666 2092.59,765.664 2095.14,765.661 2097.69,765.658 2100.25,765.655 2102.8,765.652 2105.35,765.649 2107.9,765.645 2110.45,765.642 2113.01,765.638 2115.56,765.634 2118.11,765.63 2120.66,765.626 2123.21,765.621 2125.77,765.616 2128.32,765.611 2130.87,765.606 2133.42,765.601 2135.98,765.595 2138.53,765.589 2141.08,765.582 2143.63,765.575 2146.18,765.568 2148.74,765.56 2151.29,765.552 2153.84,765.543 2156.39,765.534 2158.94,765.524 2161.5,765.514 2164.05,765.503 2166.6,765.491 2169.15,765.479 2171.71,765.465 2174.26,765.451 2176.81,765.435 2179.36,765.419 2181.91,765.401 2184.47,765.381 2187.02,765.36 2189.57,765.338 2192.12,765.313 2194.68,765.287 2197.23,765.258 2199.78,765.226 2202.33,765.192 2204.88,765.154 2207.44,765.112 2209.99,765.067 2212.54,765.016 2215.09,764.96 2217.64,764.897 2220.2,764.828 2222.75,764.75 2225.3,764.662 2227.85,764.562 2230.41,764.449 2232.96,764.32 2235.51,764.172 2238.06,764.002 2240.61,763.803 2243.17,763.57 2245.72,763.296 2248.27,762.969 2250.82,762.576 2253.37,762.099 2255.93,761.511 2258.48,760.778 2261.03,759.847 2263.58,758.645 2266.14,757.058 2268.69,754.906 2271.24,751.895 2273.79,747.518 2276.34,740.831 2278.9,729.932 2281.45,710.497 2284,670.873 2286.55,569.2 2289.11,87.9763 2291.66,1445.72 "></polyline>
<path clip-path="url(#clip830)" d="M2012.48 198.898 L2280.8 198.898 L2280.8 95.2176 L2012.48 95.2176  Z" fill="#ffffff" fill-rule="evenodd" fill-opacity="1"></path>
<polyline clip-path="url(#clip830)" style="stroke:#000000; stroke-linecap:round; stroke-linejoin:round; stroke-width:4; stroke-opacity:1; fill:none" points="2012.48,198.898 2280.8,198.898 2280.8,95.2176 2012.48,95.2176 2012.48,198.898 "></polyline>
<polyline clip-path="url(#clip830)" style="stroke:#009af9; stroke-linecap:round; stroke-linejoin:round; stroke-width:4; stroke-opacity:1; fill:none" points="2036.47,147.058 2180.39,147.058 "></polyline>
<path clip-path="url(#clip830)" d="M2218.22 166.745 Q2216.42 171.375 2214.7 172.787 Q2212.99 174.199 2210.12 174.199 L2206.72 174.199 L2206.72 170.634 L2209.22 170.634 Q2210.98 170.634 2211.95 169.8 Q2212.92 168.967 2214.1 165.865 L2214.86 163.921 L2204.38 138.412 L2208.89 138.412 L2216.99 158.689 L2225.1 138.412 L2229.61 138.412 L2218.22 166.745 Z" fill="#000000" fill-rule="nonzero" fill-opacity="1"></path><path clip-path="url(#clip830)" d="M2236.9 160.402 L2244.54 160.402 L2244.54 134.037 L2236.23 135.703 L2236.23 131.444 L2244.49 129.778 L2249.17 129.778 L2249.17 160.402 L2256.81 160.402 L2256.81 164.338 L2236.9 164.338 L2236.9 160.402 Z" fill="#000000" fill-rule="nonzero" fill-opacity="1"></path></svg>