<svg xmlns="http://www.w3.org/2000/svg" xmlns:xlink="http://www.w3.org/1999/xlink" width="600" height="400" viewBox="0 0 2400 1600">
<defs>
  <clipPath id="clip220">
    <rect x="0" y="0" width="2400" height="1600"></rect>
  </clipPath>
</defs>
<path clip-path="url(#clip220)" d="M0 1600 L2400 1600 L2400 0 L0 0  Z" fill="#ffffff" fill-rule="evenodd" fill-opacity="1"></path>
<defs>
  <clipPath id="clip221">
    <rect x="480" y="0" width="1681" height="1600"></rect>
  </clipPath>
</defs>
<path clip-path="url(#clip220)" d="M202.177 1486.45 L2352.76 1486.45 L2352.76 47.2441 L202.177 47.2441  Z" fill="#ffffff" fill-rule="evenodd" fill-opacity="1"></path>
<defs>
  <clipPath id="clip222">
    <rect x="202" y="47" width="2152" height="1440"></rect>
  </clipPath>
</defs>
<polyline clip-path="url(#clip222)" style="stroke:#000000; stroke-linecap:round; stroke-linejoin:round; stroke-width:2; stroke-opacity:0.1; fill:none" points="263.042,1486.45 263.042,47.2441 "></polyline>
<polyline clip-path="url(#clip222)" style="stroke:#000000; stroke-linecap:round; stroke-linejoin:round; stroke-width:2; stroke-opacity:0.1; fill:none" points="770.254,1486.45 770.254,47.2441 "></polyline>
<polyline clip-path="url(#clip222)" style="stroke:#000000; stroke-linecap:round; stroke-linejoin:round; stroke-width:2; stroke-opacity:0.1; fill:none" points="1277.47,1486.45 1277.47,47.2441 "></polyline>
<polyline clip-path="url(#clip222)" style="stroke:#000000; stroke-linecap:round; stroke-linejoin:round; stroke-width:2; stroke-opacity:0.1; fill:none" points="1784.68,1486.45 1784.68,47.2441 "></polyline>
<polyline clip-path="url(#clip222)" style="stroke:#000000; stroke-linecap:round; stroke-linejoin:round; stroke-width:2; stroke-opacity:0.1; fill:none" points="2291.89,1486.45 2291.89,47.2441 "></polyline>
<polyline clip-path="url(#clip220)" style="stroke:#000000; stroke-linecap:round; stroke-linejoin:round; stroke-width:4; stroke-opacity:1; fill:none" points="202.177,1486.45 2352.76,1486.45 "></polyline>
<polyline clip-path="url(#clip220)" style="stroke:#000000; stroke-linecap:round; stroke-linejoin:round; stroke-width:4; stroke-opacity:1; fill:none" points="263.042,1486.45 263.042,1467.55 "></polyline>
<polyline clip-path="url(#clip220)" style="stroke:#000000; stroke-linecap:round; stroke-linejoin:round; stroke-width:4; stroke-opacity:1; fill:none" points="770.254,1486.45 770.254,1467.55 "></polyline>
<polyline clip-path="url(#clip220)" style="stroke:#000000; stroke-linecap:round; stroke-linejoin:round; stroke-width:4; stroke-opacity:1; fill:none" points="1277.47,1486.45 1277.47,1467.55 "></polyline>
<polyline clip-path="url(#clip220)" style="stroke:#000000; stroke-linecap:round; stroke-linejoin:round; stroke-width:4; stroke-opacity:1; fill:none" points="1784.68,1486.45 1784.68,1467.55 "></polyline>
<polyline clip-path="url(#clip220)" style="stroke:#000000; stroke-linecap:round; stroke-linejoin:round; stroke-width:4; stroke-opacity:1; fill:none" points="2291.89,1486.45 2291.89,1467.55 "></polyline>
<path clip-path="url(#clip220)" d="M225.346 1517.37 Q221.734 1517.37 219.906 1520.93 Q218.1 1524.47 218.1 1531.6 Q218.1 1538.71 219.906 1542.27 Q221.734 1545.82 225.346 1545.82 Q228.98 1545.82 230.785 1542.27 Q232.614 1538.71 232.614 1531.6 Q232.614 1524.47 230.785 1520.93 Q228.98 1517.37 225.346 1517.37 M225.346 1513.66 Q231.156 1513.66 234.211 1518.27 Q237.29 1522.85 237.29 1531.6 Q237.29 1540.33 234.211 1544.94 Q231.156 1549.52 225.346 1549.52 Q219.535 1549.52 216.457 1544.94 Q213.401 1540.33 213.401 1531.6 Q213.401 1522.85 216.457 1518.27 Q219.535 1513.66 225.346 1513.66 Z" fill="#000000" fill-rule="nonzero" fill-opacity="1"></path><path clip-path="url(#clip220)" d="M245.508 1542.97 L250.392 1542.97 L250.392 1548.85 L245.508 1548.85 L245.508 1542.97 Z" fill="#000000" fill-rule="nonzero" fill-opacity="1"></path><path clip-path="url(#clip220)" d="M270.577 1517.37 Q266.966 1517.37 265.137 1520.93 Q263.331 1524.47 263.331 1531.6 Q263.331 1538.71 265.137 1542.27 Q266.966 1545.82 270.577 1545.82 Q274.211 1545.82 276.017 1542.27 Q277.845 1538.71 277.845 1531.6 Q277.845 1524.47 276.017 1520.93 Q274.211 1517.37 270.577 1517.37 M270.577 1513.66 Q276.387 1513.66 279.443 1518.27 Q282.521 1522.85 282.521 1531.6 Q282.521 1540.33 279.443 1544.94 Q276.387 1549.52 270.577 1549.52 Q264.767 1549.52 261.688 1544.94 Q258.632 1540.33 258.632 1531.6 Q258.632 1522.85 261.688 1518.27 Q264.767 1513.66 270.577 1513.66 Z" fill="#000000" fill-rule="nonzero" fill-opacity="1"></path><path clip-path="url(#clip220)" d="M300.739 1517.37 Q297.128 1517.37 295.299 1520.93 Q293.493 1524.47 293.493 1531.6 Q293.493 1538.71 295.299 1542.27 Q297.128 1545.82 300.739 1545.82 Q304.373 1545.82 306.178 1542.27 Q308.007 1538.71 308.007 1531.6 Q308.007 1524.47 306.178 1520.93 Q304.373 1517.37 300.739 1517.37 M300.739 1513.66 Q306.549 1513.66 309.604 1518.27 Q312.683 1522.85 312.683 1531.6 Q312.683 1540.33 309.604 1544.94 Q306.549 1549.52 300.739 1549.52 Q294.929 1549.52 291.85 1544.94 Q288.794 1540.33 288.794 1531.6 Q288.794 1522.85 291.85 1518.27 Q294.929 1513.66 300.739 1513.66 Z" fill="#000000" fill-rule="nonzero" fill-opacity="1"></path><path clip-path="url(#clip220)" d="M733.055 1517.37 Q729.444 1517.37 727.616 1520.93 Q725.81 1524.47 725.81 1531.6 Q725.81 1538.71 727.616 1542.27 Q729.444 1545.82 733.055 1545.82 Q736.69 1545.82 738.495 1542.27 Q740.324 1538.71 740.324 1531.6 Q740.324 1524.47 738.495 1520.93 Q736.69 1517.37 733.055 1517.37 M733.055 1513.66 Q738.866 1513.66 741.921 1518.27 Q745 1522.85 745 1531.6 Q745 1540.33 741.921 1544.94 Q738.866 1549.52 733.055 1549.52 Q727.245 1549.52 724.167 1544.94 Q721.111 1540.33 721.111 1531.6 Q721.111 1522.85 724.167 1518.27 Q727.245 1513.66 733.055 1513.66 Z" fill="#000000" fill-rule="nonzero" fill-opacity="1"></path><path clip-path="url(#clip220)" d="M753.217 1542.97 L758.102 1542.97 L758.102 1548.85 L753.217 1548.85 L753.217 1542.97 Z" fill="#000000" fill-rule="nonzero" fill-opacity="1"></path><path clip-path="url(#clip220)" d="M772.314 1544.91 L788.634 1544.91 L788.634 1548.85 L766.689 1548.85 L766.689 1544.91 Q769.351 1542.16 773.935 1537.53 Q778.541 1532.88 779.722 1531.53 Q781.967 1529.01 782.847 1527.27 Q783.75 1525.51 783.75 1523.82 Q783.75 1521.07 781.805 1519.33 Q779.884 1517.6 776.782 1517.6 Q774.583 1517.6 772.129 1518.36 Q769.699 1519.13 766.921 1520.68 L766.921 1515.95 Q769.745 1514.82 772.199 1514.24 Q774.652 1513.66 776.689 1513.66 Q782.06 1513.66 785.254 1516.35 Q788.449 1519.03 788.449 1523.52 Q788.449 1525.65 787.638 1527.57 Q786.851 1529.47 784.745 1532.07 Q784.166 1532.74 781.064 1535.95 Q777.963 1539.15 772.314 1544.91 Z" fill="#000000" fill-rule="nonzero" fill-opacity="1"></path><path clip-path="url(#clip220)" d="M798.495 1514.29 L816.851 1514.29 L816.851 1518.22 L802.777 1518.22 L802.777 1526.7 Q803.796 1526.35 804.814 1526.19 Q805.833 1526 806.851 1526 Q812.638 1526 816.018 1529.17 Q819.397 1532.34 819.397 1537.76 Q819.397 1543.34 815.925 1546.44 Q812.453 1549.52 806.134 1549.52 Q803.958 1549.52 801.689 1549.15 Q799.444 1548.78 797.036 1548.04 L797.036 1543.34 Q799.12 1544.47 801.342 1545.03 Q803.564 1545.58 806.041 1545.58 Q810.046 1545.58 812.384 1543.48 Q814.722 1541.37 814.722 1537.76 Q814.722 1534.15 812.384 1532.04 Q810.046 1529.94 806.041 1529.94 Q804.166 1529.94 802.291 1530.35 Q800.439 1530.77 798.495 1531.65 L798.495 1514.29 Z" fill="#000000" fill-rule="nonzero" fill-opacity="1"></path><path clip-path="url(#clip220)" d="M1239.77 1517.37 Q1236.16 1517.37 1234.33 1520.93 Q1232.52 1524.47 1232.52 1531.6 Q1232.52 1538.71 1234.33 1542.27 Q1236.16 1545.82 1239.77 1545.82 Q1243.4 1545.82 1245.21 1542.27 Q1247.04 1538.71 1247.04 1531.6 Q1247.04 1524.47 1245.21 1520.93 Q1243.4 1517.37 1239.77 1517.37 M1239.77 1513.66 Q1245.58 1513.66 1248.64 1518.27 Q1251.71 1522.85 1251.71 1531.6 Q1251.71 1540.33 1248.64 1544.94 Q1245.58 1549.52 1239.77 1549.52 Q1233.96 1549.52 1230.88 1544.94 Q1227.83 1540.33 1227.83 1531.6 Q1227.83 1522.85 1230.88 1518.27 Q1233.96 1513.66 1239.77 1513.66 Z" fill="#000000" fill-rule="nonzero" fill-opacity="1"></path><path clip-path="url(#clip220)" d="M1259.93 1542.97 L1264.82 1542.97 L1264.82 1548.85 L1259.93 1548.85 L1259.93 1542.97 Z" fill="#000000" fill-rule="nonzero" fill-opacity="1"></path><path clip-path="url(#clip220)" d="M1275.05 1514.29 L1293.4 1514.29 L1293.4 1518.22 L1279.33 1518.22 L1279.33 1526.7 Q1280.35 1526.35 1281.37 1526.19 Q1282.39 1526 1283.4 1526 Q1289.19 1526 1292.57 1529.17 Q1295.95 1532.34 1295.95 1537.76 Q1295.95 1543.34 1292.48 1546.44 Q1289.01 1549.52 1282.69 1549.52 Q1280.51 1549.52 1278.24 1549.15 Q1276 1548.78 1273.59 1548.04 L1273.59 1543.34 Q1275.67 1544.47 1277.89 1545.03 Q1280.12 1545.58 1282.59 1545.58 Q1286.6 1545.58 1288.94 1543.48 Q1291.27 1541.37 1291.27 1537.76 Q1291.27 1534.15 1288.94 1532.04 Q1286.6 1529.94 1282.59 1529.94 Q1280.72 1529.94 1278.84 1530.35 Q1276.99 1530.77 1275.05 1531.65 L1275.05 1514.29 Z" fill="#000000" fill-rule="nonzero" fill-opacity="1"></path><path clip-path="url(#clip220)" d="M1315.16 1517.37 Q1311.55 1517.37 1309.72 1520.93 Q1307.92 1524.47 1307.92 1531.6 Q1307.92 1538.71 1309.72 1542.27 Q1311.55 1545.82 1315.16 1545.82 Q1318.8 1545.82 1320.6 1542.27 Q1322.43 1538.71 1322.43 1531.6 Q1322.43 1524.47 1320.6 1520.93 Q1318.8 1517.37 1315.16 1517.37 M1315.16 1513.66 Q1320.97 1513.66 1324.03 1518.27 Q1327.11 1522.85 1327.11 1531.6 Q1327.11 1540.33 1324.03 1544.94 Q1320.97 1549.52 1315.16 1549.52 Q1309.35 1549.52 1306.27 1544.94 Q1303.22 1540.33 1303.22 1531.6 Q1303.22 1522.85 1306.27 1518.27 Q1309.35 1513.66 1315.16 1513.66 Z" fill="#000000" fill-rule="nonzero" fill-opacity="1"></path><path clip-path="url(#clip220)" d="M1747.48 1517.37 Q1743.87 1517.37 1742.04 1520.93 Q1740.23 1524.47 1740.23 1531.6 Q1740.23 1538.71 1742.04 1542.27 Q1743.87 1545.82 1747.48 1545.82 Q1751.11 1545.82 1752.92 1542.27 Q1754.75 1538.71 1754.75 1531.6 Q1754.75 1524.47 1752.92 1520.93 Q1751.11 1517.37 1747.48 1517.37 M1747.48 1513.66 Q1753.29 1513.66 1756.35 1518.27 Q1759.42 1522.85 1759.42 1531.6 Q1759.42 1540.33 1756.35 1544.94 Q1753.29 1549.52 1747.48 1549.52 Q1741.67 1549.52 1738.59 1544.94 Q1735.54 1540.33 1735.54 1531.6 Q1735.54 1522.85 1738.59 1518.27 Q1741.67 1513.66 1747.48 1513.66 Z" fill="#000000" fill-rule="nonzero" fill-opacity="1"></path><path clip-path="url(#clip220)" d="M1767.64 1542.97 L1772.53 1542.97 L1772.53 1548.85 L1767.64 1548.85 L1767.64 1542.97 Z" fill="#000000" fill-rule="nonzero" fill-opacity="1"></path><path clip-path="url(#clip220)" d="M1781.53 1514.29 L1803.75 1514.29 L1803.75 1516.28 L1791.21 1548.85 L1786.32 1548.85 L1798.13 1518.22 L1781.53 1518.22 L1781.53 1514.29 Z" fill="#000000" fill-rule="nonzero" fill-opacity="1"></path><path clip-path="url(#clip220)" d="M1812.92 1514.29 L1831.28 1514.29 L1831.28 1518.22 L1817.2 1518.22 L1817.2 1526.7 Q1818.22 1526.35 1819.24 1526.19 Q1820.26 1526 1821.28 1526 Q1827.06 1526 1830.44 1529.17 Q1833.82 1532.34 1833.82 1537.76 Q1833.82 1543.34 1830.35 1546.44 Q1826.88 1549.52 1820.56 1549.52 Q1818.38 1549.52 1816.11 1549.15 Q1813.87 1548.78 1811.46 1548.04 L1811.46 1543.34 Q1813.54 1544.47 1815.77 1545.03 Q1817.99 1545.58 1820.47 1545.58 Q1824.47 1545.58 1826.81 1543.48 Q1829.15 1541.37 1829.15 1537.76 Q1829.15 1534.15 1826.81 1532.04 Q1824.47 1529.94 1820.47 1529.94 Q1818.59 1529.94 1816.72 1530.35 Q1814.86 1530.77 1812.92 1531.65 L1812.92 1514.29 Z" fill="#000000" fill-rule="nonzero" fill-opacity="1"></path><path clip-path="url(#clip220)" d="M2243.96 1544.91 L2251.6 1544.91 L2251.6 1518.55 L2243.29 1520.21 L2243.29 1515.95 L2251.56 1514.29 L2256.23 1514.29 L2256.23 1544.91 L2263.87 1544.91 L2263.87 1548.85 L2243.96 1548.85 L2243.96 1544.91 Z" fill="#000000" fill-rule="nonzero" fill-opacity="1"></path><path clip-path="url(#clip220)" d="M2273.31 1542.97 L2278.2 1542.97 L2278.2 1548.85 L2273.31 1548.85 L2273.31 1542.97 Z" fill="#000000" fill-rule="nonzero" fill-opacity="1"></path><path clip-path="url(#clip220)" d="M2298.38 1517.37 Q2294.77 1517.37 2292.94 1520.93 Q2291.14 1524.47 2291.14 1531.6 Q2291.14 1538.71 2292.94 1542.27 Q2294.77 1545.82 2298.38 1545.82 Q2302.02 1545.82 2303.82 1542.27 Q2305.65 1538.71 2305.65 1531.6 Q2305.65 1524.47 2303.82 1520.93 Q2302.02 1517.37 2298.38 1517.37 M2298.38 1513.66 Q2304.19 1513.66 2307.25 1518.27 Q2310.33 1522.85 2310.33 1531.6 Q2310.33 1540.33 2307.25 1544.94 Q2304.19 1549.52 2298.38 1549.52 Q2292.57 1549.52 2289.49 1544.94 Q2286.44 1540.33 2286.44 1531.6 Q2286.44 1522.85 2289.49 1518.27 Q2292.57 1513.66 2298.38 1513.66 Z" fill="#000000" fill-rule="nonzero" fill-opacity="1"></path><path clip-path="url(#clip220)" d="M2328.55 1517.37 Q2324.93 1517.37 2323.11 1520.93 Q2321.3 1524.47 2321.3 1531.6 Q2321.3 1538.71 2323.11 1542.27 Q2324.93 1545.82 2328.55 1545.82 Q2332.18 1545.82 2333.99 1542.27 Q2335.81 1538.71 2335.81 1531.6 Q2335.81 1524.47 2333.99 1520.93 Q2332.18 1517.37 2328.55 1517.37 M2328.55 1513.66 Q2334.36 1513.66 2337.41 1518.27 Q2340.49 1522.85 2340.49 1531.6 Q2340.49 1540.33 2337.41 1544.94 Q2334.36 1549.52 2328.55 1549.52 Q2322.74 1549.52 2319.66 1544.94 Q2316.6 1540.33 2316.6 1531.6 Q2316.6 1522.85 2319.66 1518.27 Q2322.74 1513.66 2328.55 1513.66 Z" fill="#000000" fill-rule="nonzero" fill-opacity="1"></path><polyline clip-path="url(#clip222)" style="stroke:#000000; stroke-linecap:round; stroke-linejoin:round; stroke-width:2; stroke-opacity:0.1; fill:none" points="202.177,1445.72 2352.76,1445.72 "></polyline>
<polyline clip-path="url(#clip222)" style="stroke:#000000; stroke-linecap:round; stroke-linejoin:round; stroke-width:2; stroke-opacity:0.1; fill:none" points="202.177,1111.96 2352.76,1111.96 "></polyline>
<polyline clip-path="url(#clip222)" style="stroke:#000000; stroke-linecap:round; stroke-linejoin:round; stroke-width:2; stroke-opacity:0.1; fill:none" points="202.177,778.196 2352.76,778.196 "></polyline>
<polyline clip-path="url(#clip222)" style="stroke:#000000; stroke-linecap:round; stroke-linejoin:round; stroke-width:2; stroke-opacity:0.1; fill:none" points="202.177,444.436 2352.76,444.436 "></polyline>
<polyline clip-path="url(#clip222)" style="stroke:#000000; stroke-linecap:round; stroke-linejoin:round; stroke-width:2; stroke-opacity:0.1; fill:none" points="202.177,110.676 2352.76,110.676 "></polyline>
<polyline clip-path="url(#clip220)" style="stroke:#000000; stroke-linecap:round; stroke-linejoin:round; stroke-width:4; stroke-opacity:1; fill:none" points="202.177,1486.45 202.177,47.2441 "></polyline>
<polyline clip-path="url(#clip220)" style="stroke:#000000; stroke-linecap:round; stroke-linejoin:round; stroke-width:4; stroke-opacity:1; fill:none" points="202.177,1445.72 221.074,1445.72 "></polyline>
<polyline clip-path="url(#clip220)" style="stroke:#000000; stroke-linecap:round; stroke-linejoin:round; stroke-width:4; stroke-opacity:1; fill:none" points="202.177,1111.96 221.074,1111.96 "></polyline>
<polyline clip-path="url(#clip220)" style="stroke:#000000; stroke-linecap:round; stroke-linejoin:round; stroke-width:4; stroke-opacity:1; fill:none" points="202.177,778.196 221.074,778.196 "></polyline>
<polyline clip-path="url(#clip220)" style="stroke:#000000; stroke-linecap:round; stroke-linejoin:round; stroke-width:4; stroke-opacity:1; fill:none" points="202.177,444.436 221.074,444.436 "></polyline>
<polyline clip-path="url(#clip220)" style="stroke:#000000; stroke-linecap:round; stroke-linejoin:round; stroke-width:4; stroke-opacity:1; fill:none" points="202.177,110.676 221.074,110.676 "></polyline>
<path clip-path="url(#clip220)" d="M154.232 1431.51 Q150.621 1431.51 148.793 1435.08 Q146.987 1438.62 146.987 1445.75 Q146.987 1452.86 148.793 1456.42 Q150.621 1459.96 154.232 1459.96 Q157.867 1459.96 159.672 1456.42 Q161.501 1452.86 161.501 1445.75 Q161.501 1438.62 159.672 1435.08 Q157.867 1431.51 154.232 1431.51 M154.232 1427.81 Q160.042 1427.81 163.098 1432.42 Q166.177 1437 166.177 1445.75 Q166.177 1454.48 163.098 1459.08 Q160.042 1463.67 154.232 1463.67 Q148.422 1463.67 145.343 1459.08 Q142.288 1454.48 142.288 1445.75 Q142.288 1437 145.343 1432.42 Q148.422 1427.81 154.232 1427.81 Z" fill="#000000" fill-rule="nonzero" fill-opacity="1"></path><path clip-path="url(#clip220)" d="M54.5569 1125.3 L62.1958 1125.3 L62.1958 1098.94 L53.8856 1100.6 L53.8856 1096.34 L62.1495 1094.68 L66.8254 1094.68 L66.8254 1125.3 L74.4642 1125.3 L74.4642 1129.24 L54.5569 1129.24 L54.5569 1125.3 Z" fill="#000000" fill-rule="nonzero" fill-opacity="1"></path><path clip-path="url(#clip220)" d="M93.9086 1097.75 Q90.2975 1097.75 88.4688 1101.32 Q86.6632 1104.86 86.6632 1111.99 Q86.6632 1119.1 88.4688 1122.66 Q90.2975 1126.2 93.9086 1126.2 Q97.5428 1126.2 99.3483 1122.66 Q101.177 1119.1 101.177 1111.99 Q101.177 1104.86 99.3483 1101.32 Q97.5428 1097.75 93.9086 1097.75 M93.9086 1094.05 Q99.7187 1094.05 102.774 1098.66 Q105.853 1103.24 105.853 1111.99 Q105.853 1120.72 102.774 1125.32 Q99.7187 1129.91 93.9086 1129.91 Q88.0984 1129.91 85.0197 1125.32 Q81.9642 1120.72 81.9642 1111.99 Q81.9642 1103.24 85.0197 1098.66 Q88.0984 1094.05 93.9086 1094.05 Z" fill="#000000" fill-rule="nonzero" fill-opacity="1"></path><path clip-path="url(#clip220)" d="M124.07 1097.75 Q120.459 1097.75 118.631 1101.32 Q116.825 1104.86 116.825 1111.99 Q116.825 1119.1 118.631 1122.66 Q120.459 1126.2 124.07 1126.2 Q127.705 1126.2 129.51 1122.66 Q131.339 1119.1 131.339 1111.99 Q131.339 1104.86 129.51 1101.32 Q127.705 1097.75 124.07 1097.75 M124.07 1094.05 Q129.881 1094.05 132.936 1098.66 Q136.015 1103.24 136.015 1111.99 Q136.015 1120.72 132.936 1125.32 Q129.881 1129.91 124.07 1129.91 Q118.26 1129.91 115.182 1125.32 Q112.126 1120.72 112.126 1111.99 Q112.126 1103.24 115.182 1098.66 Q118.26 1094.05 124.07 1094.05 Z" fill="#000000" fill-rule="nonzero" fill-opacity="1"></path><path clip-path="url(#clip220)" d="M154.232 1097.75 Q150.621 1097.75 148.793 1101.32 Q146.987 1104.86 146.987 1111.99 Q146.987 1119.1 148.793 1122.66 Q150.621 1126.2 154.232 1126.2 Q157.867 1126.2 159.672 1122.66 Q161.501 1119.1 161.501 1111.99 Q161.501 1104.86 159.672 1101.32 Q157.867 1097.75 154.232 1097.75 M154.232 1094.05 Q160.042 1094.05 163.098 1098.66 Q166.177 1103.24 166.177 1111.99 Q166.177 1120.72 163.098 1125.32 Q160.042 1129.91 154.232 1129.91 Q148.422 1129.91 145.343 1125.32 Q142.288 1120.72 142.288 1111.99 Q142.288 1103.24 145.343 1098.66 Q148.422 1094.05 154.232 1094.05 Z" fill="#000000" fill-rule="nonzero" fill-opacity="1"></path><path clip-path="url(#clip220)" d="M57.7745 791.541 L74.0939 791.541 L74.0939 795.476 L52.1495 795.476 L52.1495 791.541 Q54.8115 788.786 59.3949 784.156 Q64.0013 779.504 65.1819 778.161 Q67.4272 775.638 68.3068 773.902 Q69.2096 772.143 69.2096 770.453 Q69.2096 767.698 67.2652 765.962 Q65.3439 764.226 62.2421 764.226 Q60.043 764.226 57.5893 764.99 Q55.1588 765.754 52.381 767.305 L52.381 762.583 Q55.2051 761.448 57.6588 760.87 Q60.1124 760.291 62.1495 760.291 Q67.5198 760.291 70.7142 762.976 Q73.9087 765.661 73.9087 770.152 Q73.9087 772.282 73.0985 774.203 Q72.3115 776.101 70.205 778.694 Q69.6263 779.365 66.5245 782.582 Q63.4226 785.777 57.7745 791.541 Z" fill="#000000" fill-rule="nonzero" fill-opacity="1"></path><path clip-path="url(#clip220)" d="M93.9086 763.995 Q90.2975 763.995 88.4688 767.559 Q86.6632 771.101 86.6632 778.231 Q86.6632 785.337 88.4688 788.902 Q90.2975 792.443 93.9086 792.443 Q97.5428 792.443 99.3483 788.902 Q101.177 785.337 101.177 778.231 Q101.177 771.101 99.3483 767.559 Q97.5428 763.995 93.9086 763.995 M93.9086 760.291 Q99.7187 760.291 102.774 764.897 Q105.853 769.481 105.853 778.231 Q105.853 786.957 102.774 791.564 Q99.7187 796.147 93.9086 796.147 Q88.0984 796.147 85.0197 791.564 Q81.9642 786.957 81.9642 778.231 Q81.9642 769.481 85.0197 764.897 Q88.0984 760.291 93.9086 760.291 Z" fill="#000000" fill-rule="nonzero" fill-opacity="1"></path><path clip-path="url(#clip220)" d="M124.07 763.995 Q120.459 763.995 118.631 767.559 Q116.825 771.101 116.825 778.231 Q116.825 785.337 118.631 788.902 Q120.459 792.443 124.07 792.443 Q127.705 792.443 129.51 788.902 Q131.339 785.337 131.339 778.231 Q131.339 771.101 129.51 767.559 Q127.705 763.995 124.07 763.995 M124.07 760.291 Q129.881 760.291 132.936 764.897 Q136.015 769.481 136.015 778.231 Q136.015 786.957 132.936 791.564 Q129.881 796.147 124.07 796.147 Q118.26 796.147 115.182 791.564 Q112.126 786.957 112.126 778.231 Q112.126 769.481 115.182 764.897 Q118.26 760.291 124.07 760.291 Z" fill="#000000" fill-rule="nonzero" fill-opacity="1"></path><path clip-path="url(#clip220)" d="M154.232 763.995 Q150.621 763.995 148.793 767.559 Q146.987 771.101 146.987 778.231 Q146.987 785.337 148.793 788.902 Q150.621 792.443 154.232 792.443 Q157.867 792.443 159.672 788.902 Q161.501 785.337 161.501 778.231 Q161.501 771.101 159.672 767.559 Q157.867 763.995 154.232 763.995 M154.232 760.291 Q160.042 760.291 163.098 764.897 Q166.177 769.481 166.177 778.231 Q166.177 786.957 163.098 791.564 Q160.042 796.147 154.232 796.147 Q148.422 796.147 145.343 791.564 Q142.288 786.957 142.288 778.231 Q142.288 769.481 145.343 764.897 Q148.422 760.291 154.232 760.291 Z" fill="#000000" fill-rule="nonzero" fill-opacity="1"></path><path clip-path="url(#clip220)" d="M67.9133 443.082 Q71.2698 443.799 73.1448 446.068 Q75.0429 448.336 75.0429 451.67 Q75.0429 456.785 71.5244 459.586 Q68.0059 462.387 61.5245 462.387 Q59.3486 462.387 57.0338 461.947 Q54.7421 461.531 52.2884 460.674 L52.2884 456.16 Q54.2328 457.295 56.5477 457.873 Q58.8625 458.452 61.3856 458.452 Q65.7837 458.452 68.0754 456.716 Q70.3902 454.98 70.3902 451.67 Q70.3902 448.614 68.2374 446.901 Q66.1078 445.165 62.2884 445.165 L58.2606 445.165 L58.2606 441.323 L62.4735 441.323 Q65.9226 441.323 67.7513 439.957 Q69.58 438.568 69.58 435.975 Q69.58 433.313 67.6819 431.901 Q65.8069 430.466 62.2884 430.466 Q60.3671 430.466 58.168 430.883 Q55.969 431.299 53.3301 432.179 L53.3301 428.012 Q55.9921 427.272 58.3069 426.901 Q60.6449 426.531 62.705 426.531 Q68.0291 426.531 71.1309 428.962 Q74.2327 431.369 74.2327 435.489 Q74.2327 438.36 72.5892 440.35 Q70.9457 442.318 67.9133 443.082 Z" fill="#000000" fill-rule="nonzero" fill-opacity="1"></path><path clip-path="url(#clip220)" d="M93.9086 430.235 Q90.2975 430.235 88.4688 433.799 Q86.6632 437.341 86.6632 444.471 Q86.6632 451.577 88.4688 455.142 Q90.2975 458.684 93.9086 458.684 Q97.5428 458.684 99.3483 455.142 Q101.177 451.577 101.177 444.471 Q101.177 437.341 99.3483 433.799 Q97.5428 430.235 93.9086 430.235 M93.9086 426.531 Q99.7187 426.531 102.774 431.137 Q105.853 435.721 105.853 444.471 Q105.853 453.197 102.774 457.804 Q99.7187 462.387 93.9086 462.387 Q88.0984 462.387 85.0197 457.804 Q81.9642 453.197 81.9642 444.471 Q81.9642 435.721 85.0197 431.137 Q88.0984 426.531 93.9086 426.531 Z" fill="#000000" fill-rule="nonzero" fill-opacity="1"></path><path clip-path="url(#clip220)" d="M124.07 430.235 Q120.459 430.235 118.631 433.799 Q116.825 437.341 116.825 444.471 Q116.825 451.577 118.631 455.142 Q120.459 458.684 124.07 458.684 Q127.705 458.684 129.51 455.142 Q131.339 451.577 131.339 444.471 Q131.339 437.341 129.51 433.799 Q127.705 430.235 124.07 430.235 M124.07 426.531 Q129.881 426.531 132.936 431.137 Q136.015 435.721 136.015 444.471 Q136.015 453.197 132.936 457.804 Q129.881 462.387 124.07 462.387 Q118.26 462.387 115.182 457.804 Q112.126 453.197 112.126 444.471 Q112.126 435.721 115.182 431.137 Q118.26 426.531 124.07 426.531 Z" fill="#000000" fill-rule="nonzero" fill-opacity="1"></path><path clip-path="url(#clip220)" d="M154.232 430.235 Q150.621 430.235 148.793 433.799 Q146.987 437.341 146.987 444.471 Q146.987 451.577 148.793 455.142 Q150.621 458.684 154.232 458.684 Q157.867 458.684 159.672 455.142 Q161.501 451.577 161.501 444.471 Q161.501 437.341 159.672 433.799 Q157.867 430.235 154.232 430.235 M154.232 426.531 Q160.042 426.531 163.098 431.137 Q166.177 435.721 166.177 444.471 Q166.177 453.197 163.098 457.804 Q160.042 462.387 154.232 462.387 Q148.422 462.387 145.343 457.804 Q142.288 453.197 142.288 444.471 Q142.288 435.721 145.343 431.137 Q148.422 426.531 154.232 426.531 Z" fill="#000000" fill-rule="nonzero" fill-opacity="1"></path><path clip-path="url(#clip220)" d="M66.5939 97.4701 L54.7884 115.919 L66.5939 115.919 L66.5939 97.4701 M65.367 93.3961 L71.2466 93.3961 L71.2466 115.919 L76.1772 115.919 L76.1772 119.808 L71.2466 119.808 L71.2466 127.956 L66.5939 127.956 L66.5939 119.808 L50.9921 119.808 L50.9921 115.294 L65.367 93.3961 Z" fill="#000000" fill-rule="nonzero" fill-opacity="1"></path><path clip-path="url(#clip220)" d="M93.9086 96.4747 Q90.2975 96.4747 88.4688 100.04 Q86.6632 103.581 86.6632 110.711 Q86.6632 117.817 88.4688 121.382 Q90.2975 124.924 93.9086 124.924 Q97.5428 124.924 99.3483 121.382 Q101.177 117.817 101.177 110.711 Q101.177 103.581 99.3483 100.04 Q97.5428 96.4747 93.9086 96.4747 M93.9086 92.7711 Q99.7187 92.7711 102.774 97.3775 Q105.853 101.961 105.853 110.711 Q105.853 119.438 102.774 124.044 Q99.7187 128.627 93.9086 128.627 Q88.0984 128.627 85.0197 124.044 Q81.9642 119.438 81.9642 110.711 Q81.9642 101.961 85.0197 97.3775 Q88.0984 92.7711 93.9086 92.7711 Z" fill="#000000" fill-rule="nonzero" fill-opacity="1"></path><path clip-path="url(#clip220)" d="M124.07 96.4747 Q120.459 96.4747 118.631 100.04 Q116.825 103.581 116.825 110.711 Q116.825 117.817 118.631 121.382 Q120.459 124.924 124.07 124.924 Q127.705 124.924 129.51 121.382 Q131.339 117.817 131.339 110.711 Q131.339 103.581 129.51 100.04 Q127.705 96.4747 124.07 96.4747 M124.07 92.7711 Q129.881 92.7711 132.936 97.3775 Q136.015 101.961 136.015 110.711 Q136.015 119.438 132.936 124.044 Q129.881 128.627 124.07 128.627 Q118.26 128.627 115.182 124.044 Q112.126 119.438 112.126 110.711 Q112.126 101.961 115.182 97.3775 Q118.26 92.7711 124.07 92.7711 Z" fill="#000000" fill-rule="nonzero" fill-opacity="1"></path><path clip-path="url(#clip220)" d="M154.232 96.4747 Q150.621 96.4747 148.793 100.04 Q146.987 103.581 146.987 110.711 Q146.987 117.817 148.793 121.382 Q150.621 124.924 154.232 124.924 Q157.867 124.924 159.672 121.382 Q161.501 117.817 161.501 110.711 Q161.501 103.581 159.672 100.04 Q157.867 96.4747 154.232 96.4747 M154.232 92.7711 Q160.042 92.7711 163.098 97.3775 Q166.177 101.961 166.177 110.711 Q166.177 119.438 163.098 124.044 Q160.042 128.627 154.232 128.627 Q148.422 128.627 145.343 124.044 Q142.288 119.438 142.288 110.711 Q142.288 101.961 145.343 97.3775 Q148.422 92.7711 154.232 92.7711 Z" fill="#000000" fill-rule="nonzero" fill-opacity="1"></path><polyline clip-path="url(#clip222)" style="stroke:#009af9; stroke-linecap:round; stroke-linejoin:round; stroke-width:4; stroke-opacity:1; fill:none" points="263.042,1150.22 263.042,1407.22 263.043,1436.89 263.045,1442.83 263.048,1444.53 263.055,1445.15 263.066,1445.41 263.084,1445.54 263.109,1445.61 263.144,1445.65 263.191,1445.67 263.252,1445.68 263.332,1445.69 263.432,1445.7 263.556,1445.7 263.707,1445.71 263.889,1445.71 264.107,1445.71 264.364,1445.71 264.665,1445.71 265.015,1445.71 265.418,1445.71 265.881,1445.71 266.408,1445.71 267.005,1445.71 267.678,1445.71 268.433,1445.71 269.277,1445.71 270.217,1445.71 271.259,1445.72 272.411,1445.72 273.679,1445.72 275.072,1445.72 276.598,1445.72 278.265,1445.72 280.081,1445.72 282.054,1445.72 284.194,1445.72 286.51,1445.72 289.011,1445.72 291.707,1445.72 294.608,1445.72 297.723,1445.72 301.064,1445.72 304.64,1445.72 308.463,1445.72 312.543,1445.72 316.892,1445.72 321.522,1445.72 326.444,1445.72 331.67,1445.72 337.213,1445.72 343.085,1445.72 349.299,1445.72 355.868,1445.72 362.806,1445.72 370.125,1445.72 377.839,1445.72 385.964,1445.72 394.512,1445.72 403.498,1445.72 412.937,1445.72 422.844,1445.72 433.234,1445.72 444.123,1445.72 455.526,1445.72 467.46,1445.72 479.94,1445.72 492.983,1445.72 506.605,1445.72 520.824,1445.72 535.657,1445.72 551.121,1445.72 567.233,1445.72 584.012,1445.72 601.476,1445.72 619.643,1445.72 638.532,1445.72 658.161,1445.72 678.55,1445.72 699.718,1445.72 721.685,1445.72 744.471,1445.72 768.095,1445.72 792.578,1445.72 817.94,1445.72 844.203,1445.72 871.388,1445.72 899.515,1445.72 928.606,1445.72 958.683,1445.72 989.768,1445.72 1021.88,1445.72 1055.05,1445.72 1089.3,1445.72 1124.64,1445.72 1161.1,1445.72 1198.71,1445.72 1237.49,1445.72 1277.47,1445.72 1317.44,1445.72 1356.22,1445.72 1393.83,1445.72 1430.29,1445.72 1465.64,1445.72 1499.88,1445.72 1533.05,1445.72 1565.16,1445.72 1596.25,1445.72 1626.33,1445.72 1655.42,1445.72 1683.54,1445.72 1710.73,1445.72 1736.99,1445.72 1762.35,1445.72 1786.84,1445.72 1810.46,1445.72 1833.25,1445.72 1855.21,1445.72 1876.38,1445.72 1896.77,1445.72 1916.4,1445.72 1935.29,1445.72 1953.46,1445.72 1970.92,1445.72 1987.7,1445.72 2003.81,1445.72 2019.28,1445.72 2034.11,1445.72 2048.33,1445.72 2061.95,1445.72 2074.99,1445.72 2087.47,1445.72 2099.41,1445.72 2110.81,1445.72 2121.7,1445.72 2132.09,1445.72 2142,1445.72 2151.43,1445.72 2160.42,1445.72 2168.97,1445.72 2177.09,1445.72 2184.81,1445.72 2192.13,1445.72 2199.06,1445.72 2205.63,1445.72 2211.85,1445.72 2217.72,1445.72 2223.26,1445.72 2228.49,1445.72 2233.41,1445.72 2238.04,1445.72 2242.39,1445.72 2246.47,1445.72 2250.29,1445.72 2253.87,1445.72 2257.21,1445.72 2260.32,1445.72 2263.23,1445.72 2265.92,1445.72 2268.42,1445.72 2270.74,1445.72 2272.88,1445.72 2274.85,1445.72 2276.67,1445.72 2278.33,1445.72 2279.86,1445.72 2281.25,1445.72 2282.52,1445.72 2283.67,1445.72 2284.72,1445.71 2285.66,1445.71 2286.5,1445.71 2287.25,1445.71 2287.93,1445.71 2288.52,1445.71 2289.05,1445.71 2289.51,1445.71 2289.92,1445.71 2290.27,1445.71 2290.57,1445.71 2290.83,1445.71 2291.04,1445.71 2291.23,1445.71 2291.38,1445.7 2291.5,1445.7 2291.6,1445.69 2291.68,1445.68 2291.74,1445.67 2291.79,1445.65 2291.82,1445.61 2291.85,1445.54 2291.87,1445.41 2291.88,1445.15 2291.88,1444.53 2291.89,1442.83 2291.89,1436.89 2291.89,1407.22 2291.89,1150.22 "></polyline>
<polyline clip-path="url(#clip222)" style="stroke:#e26f46; stroke-linecap:round; stroke-linejoin:round; stroke-width:4; stroke-opacity:1; fill:none" points="263.042,87.9763 263.042,1268.84 263.042,1405.18 263.042,1432.44 263.043,1440.26 263.043,1443.11 263.044,1444.33 263.045,1444.91 263.046,1445.22 263.048,1445.4 263.051,1445.5 263.055,1445.57 263.06,1445.61 263.066,1445.64 263.074,1445.66 263.084,1445.67 263.095,1445.68 263.109,1445.69 263.125,1445.69 263.144,1445.7 263.165,1445.7 263.191,1445.7 263.22,1445.71 263.252,1445.71 263.29,1445.71 263.332,1445.71 263.379,1445.71 263.432,1445.71 263.491,1445.71 263.556,1445.71 263.628,1445.71 263.707,1445.71 263.794,1445.71 263.889,1445.71 263.994,1445.71 264.107,1445.71 264.23,1445.71 264.364,1445.71 264.509,1445.71 264.665,1445.71 264.834,1445.71 265.015,1445.71 265.21,1445.71 265.418,1445.72 265.642,1445.72 265.881,1445.72 266.136,1445.72 266.408,1445.72 266.697,1445.72 267.005,1445.72 267.331,1445.72 267.678,1445.72 268.045,1445.72 268.433,1445.72 268.844,1445.72 269.277,1445.72 269.735,1445.72 270.217,1445.72 270.725,1445.72 271.259,1445.72 271.821,1445.72 272.411,1445.72 273.03,1445.72 273.679,1445.72 274.36,1445.72 275.072,1445.72 275.818,1445.72 276.598,1445.72 277.413,1445.72 278.265,1445.72 279.154,1445.72 280.081,1445.72 281.047,1445.72 282.054,1445.72 283.103,1445.72 284.194,1445.72 285.33,1445.72 286.51,1445.72 287.737,1445.72 289.011,1445.72 290.334,1445.72 291.707,1445.72 293.131,1445.72 294.608,1445.72 296.138,1445.72 297.723,1445.72 299.365,1445.72 301.064,1445.72 302.822,1445.72 304.64,1445.72 306.52,1445.72 308.463,1445.72 310.47,1445.72 312.543,1445.72 314.683,1445.72 316.892,1445.72 319.171,1445.72 321.522,1445.72 323.945,1445.72 326.444,1445.72 329.018,1445.72 331.67,1445.72 334.401,1445.72 337.213,1445.72 340.107,1445.72 343.085,1445.72 346.149,1445.72 349.299,1445.72 352.539,1445.72 355.868,1445.72 359.29,1445.72 362.806,1445.72 366.417,1445.72 370.125,1445.72 373.932,1445.72 377.839,1445.72 381.849,1445.72 385.964,1445.72 390.184,1445.72 394.512,1445.72 398.949,1445.72 403.498,1445.72 408.16,1445.72 412.937,1445.72 417.831,1445.72 422.844,1445.72 427.978,1445.72 433.234,1445.72 438.615,1445.72 444.123,1445.72 449.76,1445.72 455.526,1445.72 461.426,1445.72 467.46,1445.72 473.631,1445.72 479.94,1445.72 486.39,1445.72 492.983,1445.72 499.721,1445.72 506.605,1445.72 513.639,1445.72 520.824,1445.72 528.163,1445.72 535.657,1445.72 543.309,1445.72 551.121,1445.72 559.095,1445.72 567.233,1445.72 575.538,1445.72 584.012,1445.72 592.657,1445.72 601.476,1445.72 610.471,1445.72 619.643,1445.72 628.996,1445.72 638.532,1445.72 648.253,1445.72 658.161,1445.72 668.26,1445.72 678.55,1445.72 689.036,1445.72 699.718,1445.72 710.601,1445.72 721.685,1445.72 732.975,1445.72 744.471,1445.72 756.177,1445.72 768.095,1445.72 780.228,1445.72 792.578,1445.72 805.148,1445.72 817.94,1445.72 830.958,1445.72 844.203,1445.72 857.679,1445.72 871.388,1445.72 885.332,1445.72 899.515,1445.72 913.938,1445.72 928.606,1445.72 943.52,1445.72 958.683,1445.72 974.098,1445.72 989.768,1445.72 1005.7,1445.72 1021.88,1445.72 1038.34,1445.72 1055.05,1445.72 1072.04,1445.72 1089.3,1445.72 1106.83,1445.72 1124.64,1445.72 1142.73,1445.72 1161.1,1445.72 1179.76,1445.72 1198.71,1445.72 1217.96,1445.72 1237.49,1445.72 1257.33,1445.72 1277.47,1445.72 1297.6,1445.72 1317.44,1445.72 1336.98,1445.72 1356.22,1445.72 1375.17,1445.72 1393.83,1445.72 1412.2,1445.72 1430.29,1445.72 1448.1,1445.72 1465.64,1445.72 1482.89,1445.72 1499.88,1445.72 1516.6,1445.72 1533.05,1445.72 1549.24,1445.72 1565.16,1445.72 1580.83,1445.72 1596.25,1445.72 1611.41,1445.72 1626.33,1445.72 1640.99,1445.72 1655.42,1445.72 1669.6,1445.72 1683.54,1445.72 1697.25,1445.72 1710.73,1445.72 1723.97,1445.72 1736.99,1445.72 1749.78,1445.72 1762.35,1445.72 1774.7,1445.72 1786.84,1445.72 1798.76,1445.72 1810.46,1445.72 1821.96,1445.72 1833.25,1445.72 1844.33,1445.72 1855.21,1445.72 1865.9,1445.72 1876.38,1445.72 1886.67,1445.72 1896.77,1445.72 1906.68,1445.72 1916.4,1445.72 1925.94,1445.72 1935.29,1445.72 1944.46,1445.72 1953.46,1445.72 1962.28,1445.72 1970.92,1445.72 1979.39,1445.72 1987.7,1445.72 1995.84,1445.72 2003.81,1445.72 2011.62,1445.72 2019.28,1445.72 2026.77,1445.72 2034.11,1445.72 2041.29,1445.72 2048.33,1445.72 2055.21,1445.72 2061.95,1445.72 2068.54,1445.72 2074.99,1445.72 2081.3,1445.72 2087.47,1445.72 2093.51,1445.72 2099.41,1445.72 2105.17,1445.72 2110.81,1445.72 2116.32,1445.72 2121.7,1445.72 2126.95,1445.72 2132.09,1445.72 2137.1,1445.72 2142,1445.72 2146.77,1445.72 2151.43,1445.72 2155.98,1445.72 2160.42,1445.72 2164.75,1445.72 2168.97,1445.72 2173.08,1445.72 2177.09,1445.72 2181,1445.72 2184.81,1445.72 2188.52,1445.72 2192.13,1445.72 2195.64,1445.72 2199.06,1445.72 2202.39,1445.72 2205.63,1445.72 2208.78,1445.72 2211.85,1445.72 2214.83,1445.72 2217.72,1445.72 2220.53,1445.72 2223.26,1445.72 2225.91,1445.72 2228.49,1445.72 2230.99,1445.72 2233.41,1445.72 2235.76,1445.72 2238.04,1445.72 2240.25,1445.72 2242.39,1445.72 2244.46,1445.72 2246.47,1445.72 2248.41,1445.72 2250.29,1445.72 2252.11,1445.72 2253.87,1445.72 2255.57,1445.72 2257.21,1445.72 2258.79,1445.72 2260.32,1445.72 2261.8,1445.72 2263.23,1445.72 2264.6,1445.72 2265.92,1445.72 2267.2,1445.72 2268.42,1445.72 2269.6,1445.72 2270.74,1445.72 2271.83,1445.72 2272.88,1445.72 2273.89,1445.72 2274.85,1445.72 2275.78,1445.72 2276.67,1445.72 2277.52,1445.72 2278.33,1445.72 2279.11,1445.72 2279.86,1445.72 2280.57,1445.72 2281.25,1445.72 2281.9,1445.72 2282.52,1445.72 2283.11,1445.72 2283.67,1445.72 2284.21,1445.72 2284.72,1445.72 2285.2,1445.72 2285.66,1445.72 2286.09,1445.72 2286.5,1445.72 2286.89,1445.72 2287.25,1445.72 2287.6,1445.72 2287.93,1445.72 2288.24,1445.72 2288.52,1445.72 2288.8,1445.72 2289.05,1445.72 2289.29,1445.72 2289.51,1445.72 2289.72,1445.71 2289.92,1445.71 2290.1,1445.71 2290.27,1445.71 2290.42,1445.71 2290.57,1445.71 2290.7,1445.71 2290.83,1445.71 2290.94,1445.71 2291.04,1445.71 2291.14,1445.71 2291.23,1445.71 2291.3,1445.71 2291.38,1445.71 2291.44,1445.71 2291.5,1445.71 2291.55,1445.71 2291.6,1445.71 2291.64,1445.71 2291.68,1445.71 2291.71,1445.71 2291.74,1445.7 2291.77,1445.7 2291.79,1445.7 2291.81,1445.69 2291.82,1445.69 2291.84,1445.68 2291.85,1445.67 2291.86,1445.66 2291.87,1445.64 2291.87,1445.61 2291.88,1445.57 2291.88,1445.5 2291.88,1445.4 2291.89,1445.22 2291.89,1444.91 2291.89,1444.33 2291.89,1443.11 2291.89,1440.26 2291.89,1432.44 2291.89,1405.18 2291.89,1268.84 2291.89,87.9763 "></polyline>
<path clip-path="url(#clip220)" d="M2013.58 250.738 L2281.07 250.738 L2281.07 95.2176 L2013.58 95.2176  Z" fill="#ffffff" fill-rule="evenodd" fill-opacity="1"></path>
<polyline clip-path="url(#clip220)" style="stroke:#000000; stroke-linecap:round; stroke-linejoin:round; stroke-width:4; stroke-opacity:1; fill:none" points="2013.58,250.738 2281.07,250.738 2281.07,95.2176 2013.58,95.2176 2013.58,250.738 "></polyline>
<polyline clip-path="url(#clip220)" style="stroke:#009af9; stroke-linecap:round; stroke-linejoin:round; stroke-width:4; stroke-opacity:1; fill:none" points="2037.48,147.058 2180.85,147.058 "></polyline>
<path clip-path="url(#clip220)" d="M2218.59 166.745 Q2216.78 171.375 2215.07 172.787 Q2213.36 174.199 2210.49 174.199 L2207.08 174.199 L2207.08 170.634 L2209.58 170.634 Q2211.34 170.634 2212.31 169.8 Q2213.29 168.967 2214.47 165.865 L2215.23 163.921 L2204.74 138.412 L2209.26 138.412 L2217.36 158.689 L2225.46 138.412 L2229.98 138.412 L2218.59 166.745 Z" fill="#000000" fill-rule="nonzero" fill-opacity="1"></path><path clip-path="url(#clip220)" d="M2237.27 160.402 L2244.91 160.402 L2244.91 134.037 L2236.6 135.703 L2236.6 131.444 L2244.86 129.778 L2249.54 129.778 L2249.54 160.402 L2257.17 160.402 L2257.17 164.338 L2237.27 164.338 L2237.27 160.402 Z" fill="#000000" fill-rule="nonzero" fill-opacity="1"></path><polyline clip-path="url(#clip220)" style="stroke:#e26f46; stroke-linecap:round; stroke-linejoin:round; stroke-width:4; stroke-opacity:1; fill:none" points="2037.48,198.898 2180.85,198.898 "></polyline>
<path clip-path="url(#clip220)" d="M2218.59 218.585 Q2216.78 223.215 2215.07 224.627 Q2213.36 226.039 2210.49 226.039 L2207.08 226.039 L2207.08 222.474 L2209.58 222.474 Q2211.34 222.474 2212.31 221.64 Q2213.29 220.807 2214.47 217.705 L2215.23 215.761 L2204.74 190.252 L2209.26 190.252 L2217.36 210.529 L2225.46 190.252 L2229.98 190.252 L2218.59 218.585 Z" fill="#000000" fill-rule="nonzero" fill-opacity="1"></path><path clip-path="url(#clip220)" d="M2240.48 212.242 L2256.8 212.242 L2256.8 216.178 L2234.86 216.178 L2234.86 212.242 Q2237.52 209.488 2242.11 204.858 Q2246.71 200.205 2247.89 198.863 Q2250.14 196.34 2251.02 194.604 Q2251.92 192.844 2251.92 191.155 Q2251.92 188.4 2249.98 186.664 Q2248.05 184.928 2244.95 184.928 Q2242.75 184.928 2240.3 185.692 Q2237.87 186.455 2235.09 188.006 L2235.09 183.284 Q2237.92 182.15 2240.37 181.571 Q2242.82 180.993 2244.86 180.993 Q2250.23 180.993 2253.42 183.678 Q2256.62 186.363 2256.62 190.854 Q2256.62 192.983 2255.81 194.905 Q2255.02 196.803 2252.92 199.395 Q2252.34 200.067 2249.23 203.284 Q2246.13 206.479 2240.48 212.242 Z" fill="#000000" fill-rule="nonzero" fill-opacity="1"></path></svg>