<svg xmlns="http://www.w3.org/2000/svg" xmlns:xlink="http://www.w3.org/1999/xlink" width="600" height="400" viewBox="0 0 2400 1600">
<defs>
  <clipPath id="clip140">
    <rect x="0" y="0" width="2400" height="1600"></rect>
  </clipPath>
</defs>
<path clip-path="url(#clip140)" d="M0 1600 L2400 1600 L2400 0 L0 0  Z" fill="#ffffff" fill-rule="evenodd" fill-opacity="1"></path>
<defs>
  <clipPath id="clip141">
    <rect x="480" y="0" width="1681" height="1600"></rect>
  </clipPath>
</defs>
<path clip-path="url(#clip140)" d="M247.084 1486.45 L2352.76 1486.45 L2352.76 47.2441 L247.084 47.2441  Z" fill="#ffffff" fill-rule="evenodd" fill-opacity="1"></path>
<defs>
  <clipPath id="clip142">
    <rect x="247" y="47" width="2107" height="1440"></rect>
  </clipPath>
</defs>
<polyline clip-path="url(#clip142)" style="stroke:#000000; stroke-linecap:round; stroke-linejoin:round; stroke-width:2; stroke-opacity:0.1; fill:none" points="664.245,1486.45 664.245,47.2441 "></polyline>
<polyline clip-path="url(#clip142)" style="stroke:#000000; stroke-linecap:round; stroke-linejoin:round; stroke-width:2; stroke-opacity:0.1; fill:none" points="1088.03,1486.45 1088.03,47.2441 "></polyline>
<polyline clip-path="url(#clip142)" style="stroke:#000000; stroke-linecap:round; stroke-linejoin:round; stroke-width:2; stroke-opacity:0.1; fill:none" points="1511.81,1486.45 1511.81,47.2441 "></polyline>
<polyline clip-path="url(#clip142)" style="stroke:#000000; stroke-linecap:round; stroke-linejoin:round; stroke-width:2; stroke-opacity:0.1; fill:none" points="1935.59,1486.45 1935.59,47.2441 "></polyline>
<polyline clip-path="url(#clip140)" style="stroke:#000000; stroke-linecap:round; stroke-linejoin:round; stroke-width:4; stroke-opacity:1; fill:none" points="247.084,1486.45 2352.76,1486.45 "></polyline>
<polyline clip-path="url(#clip140)" style="stroke:#000000; stroke-linecap:round; stroke-linejoin:round; stroke-width:4; stroke-opacity:1; fill:none" points="664.245,1486.45 664.245,1467.55 "></polyline>
<polyline clip-path="url(#clip140)" style="stroke:#000000; stroke-linecap:round; stroke-linejoin:round; stroke-width:4; stroke-opacity:1; fill:none" points="1088.03,1486.45 1088.03,1467.55 "></polyline>
<polyline clip-path="url(#clip140)" style="stroke:#000000; stroke-linecap:round; stroke-linejoin:round; stroke-width:4; stroke-opacity:1; fill:none" points="1511.81,1486.45 1511.81,1467.55 "></polyline>
<polyline clip-path="url(#clip140)" style="stroke:#000000; stroke-linecap:round; stroke-linejoin:round; stroke-width:4; stroke-opacity:1; fill:none" points="1935.59,1486.45 1935.59,1467.55 "></polyline>
<path clip-path="url(#clip140)" d="M642.428 1517.37 Q638.817 1517.37 636.989 1520.93 Q635.183 1524.47 635.183 1531.6 Q635.183 1538.71 636.989 1542.27 Q638.817 1545.82 642.428 1545.82 Q646.063 1545.82 647.868 1542.27 Q649.697 1538.71 649.697 1531.6 Q649.697 1524.47 647.868 1520.93 Q646.063 1517.37 642.428 1517.37 M642.428 1513.66 Q648.238 1513.66 651.294 1518.27 Q654.373 1522.85 654.373 1531.6 Q654.373 1540.33 651.294 1544.94 Q648.238 1549.52 642.428 1549.52 Q636.618 1549.52 633.539 1544.94 Q630.484 1540.33 630.484 1531.6 Q630.484 1522.85 633.539 1518.27 Q636.618 1513.66 642.428 1513.66 Z" fill="#000000" fill-rule="nonzero" fill-opacity="1"></path><path clip-path="url(#clip140)" d="M662.59 1542.97 L667.474 1542.97 L667.474 1548.85 L662.59 1548.85 L662.59 1542.97 Z" fill="#000000" fill-rule="nonzero" fill-opacity="1"></path><path clip-path="url(#clip140)" d="M681.687 1544.91 L698.007 1544.91 L698.007 1548.85 L676.062 1548.85 L676.062 1544.91 Q678.724 1542.16 683.308 1537.53 Q687.914 1532.88 689.095 1531.53 Q691.34 1529.01 692.22 1527.27 Q693.122 1525.51 693.122 1523.82 Q693.122 1521.07 691.178 1519.33 Q689.257 1517.6 686.155 1517.6 Q683.956 1517.6 681.502 1518.36 Q679.072 1519.13 676.294 1520.68 L676.294 1515.95 Q679.118 1514.82 681.572 1514.24 Q684.025 1513.66 686.062 1513.66 Q691.433 1513.66 694.627 1516.35 Q697.822 1519.03 697.822 1523.52 Q697.822 1525.65 697.011 1527.57 Q696.224 1529.47 694.118 1532.07 Q693.539 1532.74 690.437 1535.95 Q687.335 1539.15 681.687 1544.91 Z" fill="#000000" fill-rule="nonzero" fill-opacity="1"></path><path clip-path="url(#clip140)" d="M1065.17 1517.37 Q1061.56 1517.37 1059.73 1520.93 Q1057.92 1524.47 1057.92 1531.6 Q1057.92 1538.71 1059.73 1542.27 Q1061.56 1545.82 1065.17 1545.82 Q1068.8 1545.82 1070.61 1542.27 Q1072.44 1538.71 1072.44 1531.6 Q1072.44 1524.47 1070.61 1520.93 Q1068.8 1517.37 1065.17 1517.37 M1065.17 1513.66 Q1070.98 1513.66 1074.04 1518.27 Q1077.11 1522.85 1077.11 1531.6 Q1077.11 1540.33 1074.04 1544.94 Q1070.98 1549.52 1065.17 1549.52 Q1059.36 1549.52 1056.28 1544.94 Q1053.23 1540.33 1053.23 1531.6 Q1053.23 1522.85 1056.28 1518.27 Q1059.36 1513.66 1065.17 1513.66 Z" fill="#000000" fill-rule="nonzero" fill-opacity="1"></path><path clip-path="url(#clip140)" d="M1085.33 1542.97 L1090.22 1542.97 L1090.22 1548.85 L1085.33 1548.85 L1085.33 1542.97 Z" fill="#000000" fill-rule="nonzero" fill-opacity="1"></path><path clip-path="url(#clip140)" d="M1113.25 1518.36 L1101.44 1536.81 L1113.25 1536.81 L1113.25 1518.36 M1112.02 1514.29 L1117.9 1514.29 L1117.9 1536.81 L1122.83 1536.81 L1122.83 1540.7 L1117.9 1540.7 L1117.9 1548.85 L1113.25 1548.85 L1113.25 1540.7 L1097.65 1540.7 L1097.65 1536.19 L1112.02 1514.29 Z" fill="#000000" fill-rule="nonzero" fill-opacity="1"></path><path clip-path="url(#clip140)" d="M1489.11 1517.37 Q1485.5 1517.37 1483.67 1520.93 Q1481.87 1524.47 1481.87 1531.6 Q1481.87 1538.71 1483.67 1542.27 Q1485.5 1545.82 1489.11 1545.82 Q1492.75 1545.82 1494.55 1542.27 Q1496.38 1538.71 1496.38 1531.6 Q1496.38 1524.47 1494.55 1520.93 Q1492.75 1517.37 1489.11 1517.37 M1489.11 1513.66 Q1494.92 1513.66 1497.98 1518.27 Q1501.06 1522.85 1501.06 1531.6 Q1501.06 1540.33 1497.98 1544.94 Q1494.92 1549.52 1489.11 1549.52 Q1483.3 1549.52 1480.23 1544.94 Q1477.17 1540.33 1477.17 1531.6 Q1477.17 1522.85 1480.23 1518.27 Q1483.3 1513.66 1489.11 1513.66 Z" fill="#000000" fill-rule="nonzero" fill-opacity="1"></path><path clip-path="url(#clip140)" d="M1509.28 1542.97 L1514.16 1542.97 L1514.16 1548.85 L1509.28 1548.85 L1509.28 1542.97 Z" fill="#000000" fill-rule="nonzero" fill-opacity="1"></path><path clip-path="url(#clip140)" d="M1534.92 1529.7 Q1531.78 1529.7 1529.92 1531.86 Q1528.1 1534.01 1528.1 1537.76 Q1528.1 1541.49 1529.92 1543.66 Q1531.78 1545.82 1534.92 1545.82 Q1538.07 1545.82 1539.9 1543.66 Q1541.75 1541.49 1541.75 1537.76 Q1541.75 1534.01 1539.9 1531.86 Q1538.07 1529.7 1534.92 1529.7 M1544.21 1515.05 L1544.21 1519.31 Q1542.45 1518.48 1540.64 1518.04 Q1538.86 1517.6 1537.1 1517.6 Q1532.47 1517.6 1530.02 1520.72 Q1527.59 1523.85 1527.24 1530.17 Q1528.61 1528.15 1530.67 1527.09 Q1532.73 1526 1535.2 1526 Q1540.41 1526 1543.42 1529.17 Q1546.45 1532.32 1546.45 1537.76 Q1546.45 1543.08 1543.3 1546.3 Q1540.16 1549.52 1534.92 1549.52 Q1528.93 1549.52 1525.76 1544.94 Q1522.59 1540.33 1522.59 1531.6 Q1522.59 1523.41 1526.48 1518.55 Q1530.36 1513.66 1536.92 1513.66 Q1538.67 1513.66 1540.46 1514.01 Q1542.26 1514.36 1544.21 1515.05 Z" fill="#000000" fill-rule="nonzero" fill-opacity="1"></path><path clip-path="url(#clip140)" d="M1913.03 1517.37 Q1909.41 1517.37 1907.59 1520.93 Q1905.78 1524.47 1905.78 1531.6 Q1905.78 1538.71 1907.59 1542.27 Q1909.41 1545.82 1913.03 1545.82 Q1916.66 1545.82 1918.46 1542.27 Q1920.29 1538.71 1920.29 1531.6 Q1920.29 1524.47 1918.46 1520.93 Q1916.66 1517.37 1913.03 1517.37 M1913.03 1513.66 Q1918.84 1513.66 1921.89 1518.27 Q1924.97 1522.85 1924.97 1531.6 Q1924.97 1540.33 1921.89 1544.94 Q1918.84 1549.52 1913.03 1549.52 Q1907.21 1549.52 1904.14 1544.94 Q1901.08 1540.33 1901.08 1531.6 Q1901.08 1522.85 1904.14 1518.27 Q1907.21 1513.66 1913.03 1513.66 Z" fill="#000000" fill-rule="nonzero" fill-opacity="1"></path><path clip-path="url(#clip140)" d="M1933.19 1542.97 L1938.07 1542.97 L1938.07 1548.85 L1933.19 1548.85 L1933.19 1542.97 Z" fill="#000000" fill-rule="nonzero" fill-opacity="1"></path><path clip-path="url(#clip140)" d="M1958.26 1532.44 Q1954.92 1532.44 1953 1534.22 Q1951.1 1536 1951.1 1539.13 Q1951.1 1542.25 1953 1544.03 Q1954.92 1545.82 1958.26 1545.82 Q1961.59 1545.82 1963.51 1544.03 Q1965.43 1542.23 1965.43 1539.13 Q1965.43 1536 1963.51 1534.22 Q1961.61 1532.44 1958.26 1532.44 M1953.58 1530.45 Q1950.57 1529.7 1948.88 1527.64 Q1947.21 1525.58 1947.21 1522.62 Q1947.21 1518.48 1950.15 1516.07 Q1953.12 1513.66 1958.26 1513.66 Q1963.42 1513.66 1966.36 1516.07 Q1969.3 1518.48 1969.3 1522.62 Q1969.3 1525.58 1967.61 1527.64 Q1965.94 1529.7 1962.96 1530.45 Q1966.34 1531.23 1968.21 1533.52 Q1970.11 1535.82 1970.11 1539.13 Q1970.11 1544.15 1967.03 1546.83 Q1963.97 1549.52 1958.26 1549.52 Q1952.54 1549.52 1949.46 1546.83 Q1946.4 1544.15 1946.4 1539.13 Q1946.4 1535.82 1948.3 1533.52 Q1950.2 1531.23 1953.58 1530.45 M1951.87 1523.06 Q1951.87 1525.75 1953.53 1527.25 Q1955.22 1528.76 1958.26 1528.76 Q1961.27 1528.76 1962.96 1527.25 Q1964.67 1525.75 1964.67 1523.06 Q1964.67 1520.38 1962.96 1518.87 Q1961.27 1517.37 1958.26 1517.37 Q1955.22 1517.37 1953.53 1518.87 Q1951.87 1520.38 1951.87 1523.06 Z" fill="#000000" fill-rule="nonzero" fill-opacity="1"></path><polyline clip-path="url(#clip142)" style="stroke:#000000; stroke-linecap:round; stroke-linejoin:round; stroke-width:2; stroke-opacity:0.1; fill:none" points="247.084,1464.54 2352.76,1464.54 "></polyline>
<polyline clip-path="url(#clip142)" style="stroke:#000000; stroke-linecap:round; stroke-linejoin:round; stroke-width:2; stroke-opacity:0.1; fill:none" points="247.084,1166.06 2352.76,1166.06 "></polyline>
<polyline clip-path="url(#clip142)" style="stroke:#000000; stroke-linecap:round; stroke-linejoin:round; stroke-width:2; stroke-opacity:0.1; fill:none" points="247.084,867.573 2352.76,867.573 "></polyline>
<polyline clip-path="url(#clip142)" style="stroke:#000000; stroke-linecap:round; stroke-linejoin:round; stroke-width:2; stroke-opacity:0.1; fill:none" points="247.084,569.092 2352.76,569.092 "></polyline>
<polyline clip-path="url(#clip142)" style="stroke:#000000; stroke-linecap:round; stroke-linejoin:round; stroke-width:2; stroke-opacity:0.1; fill:none" points="247.084,270.61 2352.76,270.61 "></polyline>
<polyline clip-path="url(#clip140)" style="stroke:#000000; stroke-linecap:round; stroke-linejoin:round; stroke-width:4; stroke-opacity:1; fill:none" points="247.084,1486.45 247.084,47.2441 "></polyline>
<polyline clip-path="url(#clip140)" style="stroke:#000000; stroke-linecap:round; stroke-linejoin:round; stroke-width:4; stroke-opacity:1; fill:none" points="247.084,1464.54 265.981,1464.54 "></polyline>
<polyline clip-path="url(#clip140)" style="stroke:#000000; stroke-linecap:round; stroke-linejoin:round; stroke-width:4; stroke-opacity:1; fill:none" points="247.084,1166.06 265.981,1166.06 "></polyline>
<polyline clip-path="url(#clip140)" style="stroke:#000000; stroke-linecap:round; stroke-linejoin:round; stroke-width:4; stroke-opacity:1; fill:none" points="247.084,867.573 265.981,867.573 "></polyline>
<polyline clip-path="url(#clip140)" style="stroke:#000000; stroke-linecap:round; stroke-linejoin:round; stroke-width:4; stroke-opacity:1; fill:none" points="247.084,569.092 265.981,569.092 "></polyline>
<polyline clip-path="url(#clip140)" style="stroke:#000000; stroke-linecap:round; stroke-linejoin:round; stroke-width:4; stroke-opacity:1; fill:none" points="247.084,270.61 265.981,270.61 "></polyline>
<path clip-path="url(#clip140)" d="M63.4226 1450.34 Q59.8115 1450.34 57.9828 1453.9 Q56.1773 1457.44 56.1773 1464.57 Q56.1773 1471.68 57.9828 1475.24 Q59.8115 1478.79 63.4226 1478.79 Q67.0569 1478.79 68.8624 1475.24 Q70.6911 1471.68 70.6911 1464.57 Q70.6911 1457.44 68.8624 1453.9 Q67.0569 1450.34 63.4226 1450.34 M63.4226 1446.63 Q69.2328 1446.63 72.2883 1451.24 Q75.367 1455.82 75.367 1464.57 Q75.367 1473.3 72.2883 1477.91 Q69.2328 1482.49 63.4226 1482.49 Q57.6125 1482.49 54.5338 1477.91 Q51.4782 1473.3 51.4782 1464.57 Q51.4782 1455.82 54.5338 1451.24 Q57.6125 1446.63 63.4226 1446.63 Z" fill="#000000" fill-rule="nonzero" fill-opacity="1"></path><path clip-path="url(#clip140)" d="M83.5845 1475.94 L88.4688 1475.94 L88.4688 1481.82 L83.5845 1481.82 L83.5845 1475.94 Z" fill="#000000" fill-rule="nonzero" fill-opacity="1"></path><path clip-path="url(#clip140)" d="M108.654 1450.34 Q105.043 1450.34 103.214 1453.9 Q101.409 1457.44 101.409 1464.57 Q101.409 1471.68 103.214 1475.24 Q105.043 1478.79 108.654 1478.79 Q112.288 1478.79 114.094 1475.24 Q115.922 1471.68 115.922 1464.57 Q115.922 1457.44 114.094 1453.9 Q112.288 1450.34 108.654 1450.34 M108.654 1446.63 Q114.464 1446.63 117.52 1451.24 Q120.598 1455.82 120.598 1464.57 Q120.598 1473.3 117.52 1477.91 Q114.464 1482.49 108.654 1482.49 Q102.844 1482.49 99.765 1477.91 Q96.7095 1473.3 96.7095 1464.57 Q96.7095 1455.82 99.765 1451.24 Q102.844 1446.63 108.654 1446.63 Z" fill="#000000" fill-rule="nonzero" fill-opacity="1"></path><path clip-path="url(#clip140)" d="M138.816 1450.34 Q135.205 1450.34 133.376 1453.9 Q131.57 1457.44 131.57 1464.57 Q131.57 1471.68 133.376 1475.24 Q135.205 1478.79 138.816 1478.79 Q142.45 1478.79 144.256 1475.24 Q146.084 1471.68 146.084 1464.57 Q146.084 1457.44 144.256 1453.9 Q142.45 1450.34 138.816 1450.34 M138.816 1446.63 Q144.626 1446.63 147.681 1451.24 Q150.76 1455.82 150.76 1464.57 Q150.76 1473.3 147.681 1477.91 Q144.626 1482.49 138.816 1482.49 Q133.006 1482.49 129.927 1477.91 Q126.871 1473.3 126.871 1464.57 Q126.871 1455.82 129.927 1451.24 Q133.006 1446.63 138.816 1446.63 Z" fill="#000000" fill-rule="nonzero" fill-opacity="1"></path><path clip-path="url(#clip140)" d="M168.978 1450.34 Q165.367 1450.34 163.538 1453.9 Q161.732 1457.44 161.732 1464.57 Q161.732 1471.68 163.538 1475.24 Q165.367 1478.79 168.978 1478.79 Q172.612 1478.79 174.417 1475.24 Q176.246 1471.68 176.246 1464.57 Q176.246 1457.44 174.417 1453.9 Q172.612 1450.34 168.978 1450.34 M168.978 1446.63 Q174.788 1446.63 177.843 1451.24 Q180.922 1455.82 180.922 1464.57 Q180.922 1473.3 177.843 1477.91 Q174.788 1482.49 168.978 1482.49 Q163.167 1482.49 160.089 1477.91 Q157.033 1473.3 157.033 1464.57 Q157.033 1455.82 160.089 1451.24 Q163.167 1446.63 168.978 1446.63 Z" fill="#000000" fill-rule="nonzero" fill-opacity="1"></path><path clip-path="url(#clip140)" d="M199.139 1450.34 Q195.528 1450.34 193.7 1453.9 Q191.894 1457.44 191.894 1464.57 Q191.894 1471.68 193.7 1475.24 Q195.528 1478.79 199.139 1478.79 Q202.774 1478.79 204.579 1475.24 Q206.408 1471.68 206.408 1464.57 Q206.408 1457.44 204.579 1453.9 Q202.774 1450.34 199.139 1450.34 M199.139 1446.63 Q204.95 1446.63 208.005 1451.24 Q211.084 1455.82 211.084 1464.57 Q211.084 1473.3 208.005 1477.91 Q204.95 1482.49 199.139 1482.49 Q193.329 1482.49 190.251 1477.91 Q187.195 1473.3 187.195 1464.57 Q187.195 1455.82 190.251 1451.24 Q193.329 1446.63 199.139 1446.63 Z" fill="#000000" fill-rule="nonzero" fill-opacity="1"></path><path clip-path="url(#clip140)" d="M64.6495 1151.85 Q61.0384 1151.85 59.2097 1155.42 Q57.4041 1158.96 57.4041 1166.09 Q57.4041 1173.2 59.2097 1176.76 Q61.0384 1180.3 64.6495 1180.3 Q68.2837 1180.3 70.0892 1176.76 Q71.9179 1173.2 71.9179 1166.09 Q71.9179 1158.96 70.0892 1155.42 Q68.2837 1151.85 64.6495 1151.85 M64.6495 1148.15 Q70.4596 1148.15 73.5152 1152.76 Q76.5938 1157.34 76.5938 1166.09 Q76.5938 1174.82 73.5152 1179.42 Q70.4596 1184.01 64.6495 1184.01 Q58.8393 1184.01 55.7606 1179.42 Q52.7051 1174.82 52.7051 1166.09 Q52.7051 1157.34 55.7606 1152.76 Q58.8393 1148.15 64.6495 1148.15 Z" fill="#000000" fill-rule="nonzero" fill-opacity="1"></path><path clip-path="url(#clip140)" d="M84.8114 1177.46 L89.6956 1177.46 L89.6956 1183.34 L84.8114 1183.34 L84.8114 1177.46 Z" fill="#000000" fill-rule="nonzero" fill-opacity="1"></path><path clip-path="url(#clip140)" d="M109.881 1151.85 Q106.27 1151.85 104.441 1155.42 Q102.635 1158.96 102.635 1166.09 Q102.635 1173.2 104.441 1176.76 Q106.27 1180.3 109.881 1180.3 Q113.515 1180.3 115.32 1176.76 Q117.149 1173.2 117.149 1166.09 Q117.149 1158.96 115.32 1155.42 Q113.515 1151.85 109.881 1151.85 M109.881 1148.15 Q115.691 1148.15 118.746 1152.76 Q121.825 1157.34 121.825 1166.09 Q121.825 1174.82 118.746 1179.42 Q115.691 1184.01 109.881 1184.01 Q104.071 1184.01 100.992 1179.42 Q97.9363 1174.82 97.9363 1166.09 Q97.9363 1157.34 100.992 1152.76 Q104.071 1148.15 109.881 1148.15 Z" fill="#000000" fill-rule="nonzero" fill-opacity="1"></path><path clip-path="url(#clip140)" d="M140.043 1151.85 Q136.431 1151.85 134.603 1155.42 Q132.797 1158.96 132.797 1166.09 Q132.797 1173.2 134.603 1176.76 Q136.431 1180.3 140.043 1180.3 Q143.677 1180.3 145.482 1176.76 Q147.311 1173.2 147.311 1166.09 Q147.311 1158.96 145.482 1155.42 Q143.677 1151.85 140.043 1151.85 M140.043 1148.15 Q145.853 1148.15 148.908 1152.76 Q151.987 1157.34 151.987 1166.09 Q151.987 1174.82 148.908 1179.42 Q145.853 1184.01 140.043 1184.01 Q134.232 1184.01 131.154 1179.42 Q128.098 1174.82 128.098 1166.09 Q128.098 1157.34 131.154 1152.76 Q134.232 1148.15 140.043 1148.15 Z" fill="#000000" fill-rule="nonzero" fill-opacity="1"></path><path clip-path="url(#clip140)" d="M170.204 1151.85 Q166.593 1151.85 164.765 1155.42 Q162.959 1158.96 162.959 1166.09 Q162.959 1173.2 164.765 1176.76 Q166.593 1180.3 170.204 1180.3 Q173.839 1180.3 175.644 1176.76 Q177.473 1173.2 177.473 1166.09 Q177.473 1158.96 175.644 1155.42 Q173.839 1151.85 170.204 1151.85 M170.204 1148.15 Q176.015 1148.15 179.07 1152.76 Q182.149 1157.34 182.149 1166.09 Q182.149 1174.82 179.07 1179.42 Q176.015 1184.01 170.204 1184.01 Q164.394 1184.01 161.316 1179.42 Q158.26 1174.82 158.26 1166.09 Q158.26 1157.34 161.316 1152.76 Q164.394 1148.15 170.204 1148.15 Z" fill="#000000" fill-rule="nonzero" fill-opacity="1"></path><path clip-path="url(#clip140)" d="M191.177 1179.4 L198.815 1179.4 L198.815 1153.03 L190.505 1154.7 L190.505 1150.44 L198.769 1148.78 L203.445 1148.78 L203.445 1179.4 L211.084 1179.4 L211.084 1183.34 L191.177 1183.34 L191.177 1179.4 Z" fill="#000000" fill-rule="nonzero" fill-opacity="1"></path><path clip-path="url(#clip140)" d="M65.0198 853.372 Q61.4087 853.372 59.58 856.937 Q57.7745 860.479 57.7745 867.608 Q57.7745 874.715 59.58 878.279 Q61.4087 881.821 65.0198 881.821 Q68.6541 881.821 70.4596 878.279 Q72.2883 874.715 72.2883 867.608 Q72.2883 860.479 70.4596 856.937 Q68.6541 853.372 65.0198 853.372 M65.0198 849.668 Q70.83 849.668 73.8855 854.275 Q76.9642 858.858 76.9642 867.608 Q76.9642 876.335 73.8855 880.941 Q70.83 885.525 65.0198 885.525 Q59.2097 885.525 56.131 880.941 Q53.0754 876.335 53.0754 867.608 Q53.0754 858.858 56.131 854.275 Q59.2097 849.668 65.0198 849.668 Z" fill="#000000" fill-rule="nonzero" fill-opacity="1"></path><path clip-path="url(#clip140)" d="M85.1818 878.974 L90.066 878.974 L90.066 884.853 L85.1818 884.853 L85.1818 878.974 Z" fill="#000000" fill-rule="nonzero" fill-opacity="1"></path><path clip-path="url(#clip140)" d="M110.251 853.372 Q106.64 853.372 104.811 856.937 Q103.006 860.479 103.006 867.608 Q103.006 874.715 104.811 878.279 Q106.64 881.821 110.251 881.821 Q113.885 881.821 115.691 878.279 Q117.52 874.715 117.52 867.608 Q117.52 860.479 115.691 856.937 Q113.885 853.372 110.251 853.372 M110.251 849.668 Q116.061 849.668 119.117 854.275 Q122.195 858.858 122.195 867.608 Q122.195 876.335 119.117 880.941 Q116.061 885.525 110.251 885.525 Q104.441 885.525 101.362 880.941 Q98.3067 876.335 98.3067 867.608 Q98.3067 858.858 101.362 854.275 Q104.441 849.668 110.251 849.668 Z" fill="#000000" fill-rule="nonzero" fill-opacity="1"></path><path clip-path="url(#clip140)" d="M140.413 853.372 Q136.802 853.372 134.973 856.937 Q133.168 860.479 133.168 867.608 Q133.168 874.715 134.973 878.279 Q136.802 881.821 140.413 881.821 Q144.047 881.821 145.853 878.279 Q147.681 874.715 147.681 867.608 Q147.681 860.479 145.853 856.937 Q144.047 853.372 140.413 853.372 M140.413 849.668 Q146.223 849.668 149.279 854.275 Q152.357 858.858 152.357 867.608 Q152.357 876.335 149.279 880.941 Q146.223 885.525 140.413 885.525 Q134.603 885.525 131.524 880.941 Q128.469 876.335 128.469 867.608 Q128.469 858.858 131.524 854.275 Q134.603 849.668 140.413 849.668 Z" fill="#000000" fill-rule="nonzero" fill-opacity="1"></path><path clip-path="url(#clip140)" d="M170.575 853.372 Q166.964 853.372 165.135 856.937 Q163.329 860.479 163.329 867.608 Q163.329 874.715 165.135 878.279 Q166.964 881.821 170.575 881.821 Q174.209 881.821 176.015 878.279 Q177.843 874.715 177.843 867.608 Q177.843 860.479 176.015 856.937 Q174.209 853.372 170.575 853.372 M170.575 849.668 Q176.385 849.668 179.441 854.275 Q182.519 858.858 182.519 867.608 Q182.519 876.335 179.441 880.941 Q176.385 885.525 170.575 885.525 Q164.765 885.525 161.686 880.941 Q158.63 876.335 158.63 867.608 Q158.63 858.858 161.686 854.275 Q164.765 849.668 170.575 849.668 Z" fill="#000000" fill-rule="nonzero" fill-opacity="1"></path><path clip-path="url(#clip140)" d="M194.765 880.918 L211.084 880.918 L211.084 884.853 L189.14 884.853 L189.14 880.918 Q191.802 878.164 196.385 873.534 Q200.991 868.881 202.172 867.539 Q204.417 865.016 205.297 863.28 Q206.2 861.52 206.2 859.83 Q206.2 857.076 204.255 855.34 Q202.334 853.604 199.232 853.604 Q197.033 853.604 194.579 854.368 Q192.149 855.131 189.371 856.682 L189.371 851.96 Q192.195 850.826 194.649 850.247 Q197.102 849.668 199.139 849.668 Q204.51 849.668 207.704 852.354 Q210.899 855.039 210.899 859.53 Q210.899 861.659 210.088 863.58 Q209.301 865.479 207.195 868.071 Q206.616 868.742 203.514 871.96 Q200.413 875.154 194.765 880.918 Z" fill="#000000" fill-rule="nonzero" fill-opacity="1"></path><path clip-path="url(#clip140)" d="M64.0708 554.89 Q60.4597 554.89 58.631 558.455 Q56.8254 561.997 56.8254 569.126 Q56.8254 576.233 58.631 579.797 Q60.4597 583.339 64.0708 583.339 Q67.705 583.339 69.5105 579.797 Q71.3392 576.233 71.3392 569.126 Q71.3392 561.997 69.5105 558.455 Q67.705 554.89 64.0708 554.89 M64.0708 551.187 Q69.8809 551.187 72.9365 555.793 Q76.0151 560.376 76.0151 569.126 Q76.0151 577.853 72.9365 582.459 Q69.8809 587.043 64.0708 587.043 Q58.2606 587.043 55.1819 582.459 Q52.1264 577.853 52.1264 569.126 Q52.1264 560.376 55.1819 555.793 Q58.2606 551.187 64.0708 551.187 Z" fill="#000000" fill-rule="nonzero" fill-opacity="1"></path><path clip-path="url(#clip140)" d="M84.2327 580.492 L89.1169 580.492 L89.1169 586.372 L84.2327 586.372 L84.2327 580.492 Z" fill="#000000" fill-rule="nonzero" fill-opacity="1"></path><path clip-path="url(#clip140)" d="M109.302 554.89 Q105.691 554.89 103.862 558.455 Q102.057 561.997 102.057 569.126 Q102.057 576.233 103.862 579.797 Q105.691 583.339 109.302 583.339 Q112.936 583.339 114.742 579.797 Q116.57 576.233 116.57 569.126 Q116.57 561.997 114.742 558.455 Q112.936 554.89 109.302 554.89 M109.302 551.187 Q115.112 551.187 118.168 555.793 Q121.246 560.376 121.246 569.126 Q121.246 577.853 118.168 582.459 Q115.112 587.043 109.302 587.043 Q103.492 587.043 100.413 582.459 Q97.3576 577.853 97.3576 569.126 Q97.3576 560.376 100.413 555.793 Q103.492 551.187 109.302 551.187 Z" fill="#000000" fill-rule="nonzero" fill-opacity="1"></path><path clip-path="url(#clip140)" d="M139.464 554.89 Q135.853 554.89 134.024 558.455 Q132.219 561.997 132.219 569.126 Q132.219 576.233 134.024 579.797 Q135.853 583.339 139.464 583.339 Q143.098 583.339 144.904 579.797 Q146.732 576.233 146.732 569.126 Q146.732 561.997 144.904 558.455 Q143.098 554.89 139.464 554.89 M139.464 551.187 Q145.274 551.187 148.33 555.793 Q151.408 560.376 151.408 569.126 Q151.408 577.853 148.33 582.459 Q145.274 587.043 139.464 587.043 Q133.654 587.043 130.575 582.459 Q127.519 577.853 127.519 569.126 Q127.519 560.376 130.575 555.793 Q133.654 551.187 139.464 551.187 Z" fill="#000000" fill-rule="nonzero" fill-opacity="1"></path><path clip-path="url(#clip140)" d="M169.626 554.89 Q166.015 554.89 164.186 558.455 Q162.38 561.997 162.38 569.126 Q162.38 576.233 164.186 579.797 Q166.015 583.339 169.626 583.339 Q173.26 583.339 175.066 579.797 Q176.894 576.233 176.894 569.126 Q176.894 561.997 175.066 558.455 Q173.26 554.89 169.626 554.89 M169.626 551.187 Q175.436 551.187 178.491 555.793 Q181.57 560.376 181.57 569.126 Q181.57 577.853 178.491 582.459 Q175.436 587.043 169.626 587.043 Q163.816 587.043 160.737 582.459 Q157.681 577.853 157.681 569.126 Q157.681 560.376 160.737 555.793 Q163.816 551.187 169.626 551.187 Z" fill="#000000" fill-rule="nonzero" fill-opacity="1"></path><path clip-path="url(#clip140)" d="M203.954 567.737 Q207.311 568.455 209.186 570.723 Q211.084 572.992 211.084 576.325 Q211.084 581.441 207.565 584.242 Q204.047 587.043 197.565 587.043 Q195.39 587.043 193.075 586.603 Q190.783 586.186 188.329 585.33 L188.329 580.816 Q190.274 581.95 192.589 582.529 Q194.903 583.108 197.427 583.108 Q201.825 583.108 204.116 581.372 Q206.431 579.635 206.431 576.325 Q206.431 573.27 204.278 571.557 Q202.149 569.821 198.329 569.821 L194.302 569.821 L194.302 565.978 L198.514 565.978 Q201.964 565.978 203.792 564.612 Q205.621 563.223 205.621 560.631 Q205.621 557.969 203.723 556.557 Q201.848 555.122 198.329 555.122 Q196.408 555.122 194.209 555.538 Q192.01 555.955 189.371 556.835 L189.371 552.668 Q192.033 551.927 194.348 551.557 Q196.686 551.187 198.746 551.187 Q204.07 551.187 207.172 553.617 Q210.274 556.024 210.274 560.145 Q210.274 563.015 208.63 565.006 Q206.987 566.973 203.954 567.737 Z" fill="#000000" fill-rule="nonzero" fill-opacity="1"></path><path clip-path="url(#clip140)" d="M62.9365 256.408 Q59.3254 256.408 57.4967 259.973 Q55.6912 263.515 55.6912 270.644 Q55.6912 277.751 57.4967 281.315 Q59.3254 284.857 62.9365 284.857 Q66.5707 284.857 68.3763 281.315 Q70.205 277.751 70.205 270.644 Q70.205 263.515 68.3763 259.973 Q66.5707 256.408 62.9365 256.408 M62.9365 252.705 Q68.7467 252.705 71.8022 257.311 Q74.8809 261.894 74.8809 270.644 Q74.8809 279.371 71.8022 283.978 Q68.7467 288.561 62.9365 288.561 Q57.1264 288.561 54.0477 283.978 Q50.9921 279.371 50.9921 270.644 Q50.9921 261.894 54.0477 257.311 Q57.1264 252.705 62.9365 252.705 Z" fill="#000000" fill-rule="nonzero" fill-opacity="1"></path><path clip-path="url(#clip140)" d="M83.0984 282.01 L87.9827 282.01 L87.9827 287.89 L83.0984 287.89 L83.0984 282.01 Z" fill="#000000" fill-rule="nonzero" fill-opacity="1"></path><path clip-path="url(#clip140)" d="M108.168 256.408 Q104.557 256.408 102.728 259.973 Q100.922 263.515 100.922 270.644 Q100.922 277.751 102.728 281.315 Q104.557 284.857 108.168 284.857 Q111.802 284.857 113.608 281.315 Q115.436 277.751 115.436 270.644 Q115.436 263.515 113.608 259.973 Q111.802 256.408 108.168 256.408 M108.168 252.705 Q113.978 252.705 117.033 257.311 Q120.112 261.894 120.112 270.644 Q120.112 279.371 117.033 283.978 Q113.978 288.561 108.168 288.561 Q102.358 288.561 99.2789 283.978 Q96.2234 279.371 96.2234 270.644 Q96.2234 261.894 99.2789 257.311 Q102.358 252.705 108.168 252.705 Z" fill="#000000" fill-rule="nonzero" fill-opacity="1"></path><path clip-path="url(#clip140)" d="M138.33 256.408 Q134.719 256.408 132.89 259.973 Q131.084 263.515 131.084 270.644 Q131.084 277.751 132.89 281.315 Q134.719 284.857 138.33 284.857 Q141.964 284.857 143.769 281.315 Q145.598 277.751 145.598 270.644 Q145.598 263.515 143.769 259.973 Q141.964 256.408 138.33 256.408 M138.33 252.705 Q144.14 252.705 147.195 257.311 Q150.274 261.894 150.274 270.644 Q150.274 279.371 147.195 283.978 Q144.14 288.561 138.33 288.561 Q132.519 288.561 129.441 283.978 Q126.385 279.371 126.385 270.644 Q126.385 261.894 129.441 257.311 Q132.519 252.705 138.33 252.705 Z" fill="#000000" fill-rule="nonzero" fill-opacity="1"></path><path clip-path="url(#clip140)" d="M168.491 256.408 Q164.88 256.408 163.052 259.973 Q161.246 263.515 161.246 270.644 Q161.246 277.751 163.052 281.315 Q164.88 284.857 168.491 284.857 Q172.126 284.857 173.931 281.315 Q175.76 277.751 175.76 270.644 Q175.76 263.515 173.931 259.973 Q172.126 256.408 168.491 256.408 M168.491 252.705 Q174.302 252.705 177.357 257.311 Q180.436 261.894 180.436 270.644 Q180.436 279.371 177.357 283.978 Q174.302 288.561 168.491 288.561 Q162.681 288.561 159.603 283.978 Q156.547 279.371 156.547 270.644 Q156.547 261.894 159.603 257.311 Q162.681 252.705 168.491 252.705 Z" fill="#000000" fill-rule="nonzero" fill-opacity="1"></path><path clip-path="url(#clip140)" d="M201.501 257.404 L189.695 275.853 L201.501 275.853 L201.501 257.404 M200.274 253.33 L206.153 253.33 L206.153 275.853 L211.084 275.853 L211.084 279.741 L206.153 279.741 L206.153 287.89 L201.501 287.89 L201.501 279.741 L185.899 279.741 L185.899 275.228 L200.274 253.33 Z" fill="#000000" fill-rule="nonzero" fill-opacity="1"></path><polyline clip-path="url(#clip142)" style="stroke:#009af9; stroke-linecap:round; stroke-linejoin:round; stroke-width:4; stroke-opacity:1; fill:none" points="306.678,836.709 312.137,893.497 317.926,944.538 324.059,990.485 330.549,1031.91 337.409,1069.3 344.655,1103.1 352.299,1133.69 360.356,1161.39 368.841,1186.5 377.768,1209.28 387.153,1229.96 397.011,1248.73 407.358,1265.77 418.21,1281.24 429.582,1295.28 441.492,1308.01 453.955,1319.53 466.989,1329.93 480.611,1339.31 494.838,1347.72 509.688,1355.23 525.179,1361.9 541.33,1367.75 558.157,1372.83 575.681,1377.15 593.92,1380.74 612.894,1383.59 632.621,1385.7 653.122,1387.04 674.416,1387.6 696.524,1387.33 719.466,1386.14 743.263,1383.97 767.936,1380.7 793.506,1376.17 819.994,1370.19 847.423,1362.5 875.814,1352.76 905.19,1340.54 935.572,1325.22 966.985,1305.98 999.45,1281.65 1032.99,1250.55 1067.63,1210.11 1103.4,1156.21 1140.31,1081.71 1178.39,972.462 1217.67,793.43 1258.17,377.93 1299.92,87.9763 1341.67,377.93 1382.17,793.43 1421.45,972.462 1459.53,1081.71 1496.44,1156.21 1532.21,1210.11 1566.85,1250.55 1600.39,1281.65 1632.85,1305.98 1664.27,1325.22 1694.65,1340.54 1724.03,1352.76 1752.42,1362.5 1779.85,1370.19 1806.33,1376.17 1831.9,1380.7 1856.58,1383.97 1880.37,1386.14 1903.32,1387.33 1925.42,1387.6 1946.72,1387.04 1967.22,1385.7 1986.95,1383.59 2005.92,1380.74 2024.16,1377.15 2041.68,1372.83 2058.51,1367.75 2074.66,1361.9 2090.15,1355.23 2105,1347.72 2119.23,1339.31 2132.85,1329.93 2145.88,1319.53 2158.35,1308.01 2170.26,1295.28 2181.63,1281.24 2192.48,1265.77 2202.83,1248.73 2212.69,1229.96 2222.07,1209.28 2231,1186.5 2239.48,1161.39 2247.54,1133.69 2255.19,1103.1 2262.43,1069.3 2269.29,1031.91 2275.78,990.485 2281.91,944.538 2287.7,893.497 2293.16,836.709 "></polyline>
<polyline clip-path="url(#clip142)" style="stroke:#e26f46; stroke-linecap:round; stroke-linejoin:round; stroke-width:4; stroke-opacity:1; fill:none" points="306.678,1307.02 309.367,1314.35 312.137,1321.3 314.989,1327.89 317.926,1334.14 320.948,1340.07 324.059,1345.7 327.258,1351.04 330.549,1356.11 333.932,1360.93 337.409,1365.51 340.983,1369.87 344.655,1374.01 348.426,1377.95 352.299,1381.7 356.275,1385.27 360.356,1388.67 364.544,1391.9 368.841,1394.98 373.248,1397.92 377.768,1400.71 382.402,1403.37 387.153,1405.91 392.022,1408.33 397.011,1410.63 402.123,1412.82 407.358,1414.92 412.72,1416.91 418.21,1418.81 423.83,1420.62 429.582,1422.34 435.469,1423.98 441.492,1425.54 447.653,1427.03 453.955,1428.44 460.399,1429.78 466.989,1431.06 473.725,1432.27 480.611,1433.42 487.648,1434.51 494.838,1435.54 502.184,1436.52 509.688,1437.44 517.353,1438.31 525.179,1439.12 533.171,1439.89 541.33,1440.61 549.658,1441.27 558.157,1441.89 566.831,1442.47 575.681,1442.99 584.71,1443.47 593.92,1443.91 603.314,1444.3 612.894,1444.64 622.662,1444.94 632.621,1445.19 642.774,1445.39 653.122,1445.55 663.669,1445.65 674.416,1445.71 685.367,1445.72 696.524,1445.67 707.89,1445.56 719.466,1445.4 731.256,1445.18 743.263,1444.89 755.489,1444.53 767.936,1444.1 780.607,1443.6 793.506,1443.01 806.634,1442.33 819.994,1441.56 833.59,1440.68 847.423,1439.68 861.497,1438.56 875.814,1437.31 890.377,1435.89 905.19,1434.31 920.254,1432.55 935.572,1430.56 951.148,1428.34 966.985,1425.85 983.085,1423.05 999.45,1419.89 1016.08,1416.31 1032.99,1412.26 1050.17,1407.65 1067.63,1402.36 1085.37,1396.26 1103.4,1389.18 1121.71,1380.87 1140.31,1371.03 1159.2,1359.17 1178.39,1344.63 1197.88,1326.31 1217.67,1302.34 1237.77,1269.04 1258.17,1217.22 1278.89,1102.96 1299.92,1022.55 1320.95,1102.96 1341.67,1217.22 1362.07,1269.04 1382.17,1302.34 1401.96,1326.31 1421.45,1344.63 1440.64,1359.17 1459.53,1371.03 1478.13,1380.87 1496.44,1389.18 1514.47,1396.26 1532.21,1402.36 1549.67,1407.65 1566.85,1412.26 1583.75,1416.31 1600.39,1419.89 1616.76,1423.05 1632.85,1425.85 1648.69,1428.34 1664.27,1430.56 1679.59,1432.55 1694.65,1434.31 1709.46,1435.89 1724.03,1437.31 1738.34,1438.56 1752.42,1439.68 1766.25,1440.68 1779.85,1441.56 1793.21,1442.33 1806.33,1443.01 1819.23,1443.6 1831.9,1444.1 1844.35,1444.53 1856.58,1444.89 1868.58,1445.18 1880.37,1445.4 1891.95,1445.56 1903.32,1445.67 1914.47,1445.72 1925.42,1445.71 1936.17,1445.65 1946.72,1445.55 1957.07,1445.39 1967.22,1445.19 1977.18,1444.94 1986.95,1444.64 1996.53,1444.3 2005.92,1443.91 2015.13,1443.47 2024.16,1442.99 2033.01,1442.47 2041.68,1441.89 2050.18,1441.27 2058.51,1440.61 2066.67,1439.89 2074.66,1439.12 2082.49,1438.31 2090.15,1437.44 2097.66,1436.52 2105,1435.54 2112.19,1434.51 2119.23,1433.42 2126.11,1432.27 2132.85,1431.06 2139.44,1429.78 2145.88,1428.44 2152.19,1427.03 2158.35,1425.54 2164.37,1423.98 2170.26,1422.34 2176.01,1420.62 2181.63,1418.81 2187.12,1416.91 2192.48,1414.92 2197.72,1412.82 2202.83,1410.63 2207.82,1408.33 2212.69,1405.91 2217.44,1403.37 2222.07,1400.71 2226.59,1397.92 2231,1394.98 2235.3,1391.9 2239.48,1388.67 2243.57,1385.27 2247.54,1381.7 2251.41,1377.95 2255.19,1374.01 2258.86,1369.87 2262.43,1365.51 2265.91,1360.93 2269.29,1356.11 2272.58,1351.04 2275.78,1345.7 2278.89,1340.07 2281.91,1334.14 2284.85,1327.89 2287.7,1321.3 2290.47,1314.35 2293.16,1307.02 "></polyline>
<path clip-path="url(#clip140)" d="M2019.57 250.738 L2282.57 250.738 L2282.57 95.2176 L2019.57 95.2176  Z" fill="#ffffff" fill-rule="evenodd" fill-opacity="1"></path>
<polyline clip-path="url(#clip140)" style="stroke:#000000; stroke-linecap:round; stroke-linejoin:round; stroke-width:4; stroke-opacity:1; fill:none" points="2019.57,250.738 2282.57,250.738 2282.57,95.2176 2019.57,95.2176 2019.57,250.738 "></polyline>
<polyline clip-path="url(#clip140)" style="stroke:#009af9; stroke-linecap:round; stroke-linejoin:round; stroke-width:4; stroke-opacity:1; fill:none" points="2042.97,147.058 2183.34,147.058 "></polyline>
<path clip-path="url(#clip140)" d="M2220.58 166.745 Q2218.78 171.375 2217.06 172.787 Q2215.35 174.199 2212.48 174.199 L2209.08 174.199 L2209.08 170.634 L2211.58 170.634 Q2213.34 170.634 2214.31 169.8 Q2215.28 168.967 2216.46 165.865 L2217.23 163.921 L2206.74 138.412 L2211.25 138.412 L2219.36 158.689 L2227.46 138.412 L2231.97 138.412 L2220.58 166.745 Z" fill="#000000" fill-rule="nonzero" fill-opacity="1"></path><path clip-path="url(#clip140)" d="M2239.26 160.402 L2246.9 160.402 L2246.9 134.037 L2238.59 135.703 L2238.59 131.444 L2246.86 129.778 L2251.53 129.778 L2251.53 160.402 L2259.17 160.402 L2259.17 164.338 L2239.26 164.338 L2239.26 160.402 Z" fill="#000000" fill-rule="nonzero" fill-opacity="1"></path><polyline clip-path="url(#clip140)" style="stroke:#e26f46; stroke-linecap:round; stroke-linejoin:round; stroke-width:4; stroke-opacity:1; fill:none" points="2042.97,198.898 2183.34,198.898 "></polyline>
<path clip-path="url(#clip140)" d="M2220.58 218.585 Q2218.78 223.215 2217.06 224.627 Q2215.35 226.039 2212.48 226.039 L2209.08 226.039 L2209.08 222.474 L2211.58 222.474 Q2213.34 222.474 2214.31 221.64 Q2215.28 220.807 2216.46 217.705 L2217.23 215.761 L2206.74 190.252 L2211.25 190.252 L2219.36 210.529 L2227.46 190.252 L2231.97 190.252 L2220.58 218.585 Z" fill="#000000" fill-rule="nonzero" fill-opacity="1"></path><path clip-path="url(#clip140)" d="M2242.48 212.242 L2258.8 212.242 L2258.8 216.178 L2236.86 216.178 L2236.86 212.242 Q2239.52 209.488 2244.1 204.858 Q2248.71 200.205 2249.89 198.863 Q2252.13 196.34 2253.01 194.604 Q2253.92 192.844 2253.92 191.155 Q2253.92 188.4 2251.97 186.664 Q2250.05 184.928 2246.95 184.928 Q2244.75 184.928 2242.3 185.692 Q2239.87 186.455 2237.09 188.006 L2237.09 183.284 Q2239.91 182.15 2242.37 181.571 Q2244.82 180.993 2246.86 180.993 Q2252.23 180.993 2255.42 183.678 Q2258.61 186.363 2258.61 190.854 Q2258.61 192.983 2257.8 194.905 Q2257.02 196.803 2254.91 199.395 Q2254.33 200.067 2251.23 203.284 Q2248.13 206.479 2242.48 212.242 Z" fill="#000000" fill-rule="nonzero" fill-opacity="1"></path></svg>